<svg width="304" height="119" viewBox="0 0 304 119" fill="none" xmlns="http://www.w3.org/2000/svg">
<g filter="url(#filter0_f_2103_5816)">
<path d="M217.366 27.6198C217.416 29.5222 217.463 31.4312 217.507 33.3135C217.545 34.9699 217.581 36.6094 217.614 38.2505C217.696 38.2419 217.778 38.2338 217.861 38.2252L222.749 37.3574L221.679 42.6568C220.424 47.2484 219.194 51.8438 217.999 56.4435C217.724 57.5027 217.451 58.5623 217.18 59.6222C216.948 62.8836 216.721 66.1502 216.651 69.442L216.86 74.4984L211.377 75.8191C210.731 75.9334 210.083 76.054 209.434 76.1827C198.971 78.258 188.431 81.5668 177.927 83.4272C167.484 85.2755 156.982 87.0366 146.509 88.7165C136.024 90.3987 125.548 92.0036 115.048 93.5619C106.981 94.7582 98.8979 95.9273 90.8176 97.076L87.6926 97.8289L87.5511 94.4253C87.6861 91.9793 87.8228 89.5323 87.9611 87.0869C87.9859 86.6484 88.0108 86.2097 88.0357 85.7711C87.7268 85.789 87.4177 85.8076 87.1091 85.8253L82.2404 86.4846L82 81.1343C82.1281 77.1104 82.2771 73.0834 82.4265 69.0575C82.5159 66.6725 83.0202 64.3323 83.8504 62.5516C84.6812 60.7716 85.7645 59.6956 86.8871 59.5577C87.0195 59.5414 87.1508 59.5412 87.2816 59.5512V59.5092L87.3233 59.5031C87.2958 59.3751 87.2791 59.2452 87.2777 59.1122C87.2669 58.006 88.1705 56.8151 89.7892 55.7658C89.9271 53.4533 90.0661 51.1406 90.204 48.8281C90.2239 48.4997 90.3039 48.1771 90.4318 47.931C90.4801 47.8383 90.5328 47.7586 90.5898 47.6948V47.5513L91.0298 47.4806C91.0734 47.4651 91.119 47.4517 91.1646 47.4406C92.0931 47.216 93.0211 46.9929 93.9522 46.7693C94.5275 46.6311 95.1056 46.4914 95.6795 46.3541C96.0334 46.2693 96.387 46.185 96.737 46.1012C97.3981 45.943 98.0726 45.7832 98.7405 45.6247C99.0031 45.5623 99.266 45.4995 99.5285 45.4371C100.144 45.2909 100.77 45.1431 101.391 44.9966C101.394 44.9958 101.399 44.995 101.402 44.9942C101.707 44.9221 102.013 44.85 102.314 44.7787C103.246 44.5595 104.169 44.3422 105.113 44.1226C105.6 44.0075 106.108 43.8897 106.612 43.7725C106.893 43.7072 107.174 43.6422 107.449 43.5779C107.599 43.5432 107.751 43.5074 107.904 43.4722C111.422 42.6551 114.917 41.8517 118.443 41.0532C121.956 40.2568 125.476 39.4693 128.986 38.6923C132.504 37.9139 136.017 37.1456 139.533 36.3856C161.844 31.5613 184.254 26.9515 206.687 22.729C208.019 22.4778 209.368 22.2259 210.718 21.9752L217.079 20.6961L217.366 27.6198ZM163.04 35.1428C162.937 35.1689 162.862 35.2721 162.758 35.4401C162.571 35.7412 161.933 35.942 161.435 36.0987C161.204 36.1712 161.003 36.2349 160.891 36.2944C160.826 36.3286 160.771 36.3626 160.723 36.396L163.559 35.9443C163.496 35.702 163.534 35.6129 163.846 35.453C163.578 35.3495 163.308 35.2463 163.04 35.1428Z" fill="url(#paint0_linear_2103_5816)"/>
<path d="M218.439 31.0604C218.463 31.7125 218.483 32.4282 218.499 33.1683C218.535 34.8196 218.552 36.5917 218.555 38.0479C218.556 38.0716 218.556 38.0941 218.555 38.1153L217.631 37.3003C217.747 37.2909 217.823 37.2876 217.877 37.2868L217.81 37.2963C218.044 37.2751 217.926 37.3298 218.276 37.2757C219.161 37.1392 219.984 36.9672 220.859 36.8364C221.149 36.7934 220.793 36.9406 221.097 36.8936C221.642 36.809 222.177 36.7199 222.709 36.6285L223.652 36.456L223.463 37.4198C223.233 38.5279 223.017 39.626 222.773 40.7738C222.635 41.4221 222.498 42.0696 222.362 42.7165L222.35 42.7669C221.05 47.3612 219.8 51.9273 218.581 56.5305C218.302 57.5862 218.024 58.6441 217.748 59.7047L217.766 59.5929C217.612 61.6369 217.459 63.6862 217.346 65.7441C217.283 66.8856 217.217 68.1264 217.176 69.3889L217.176 69.3557C217.227 71.0613 217.282 72.8117 217.362 74.4158L217.383 74.8789L216.919 74.9934C216.802 75.0224 216.687 75.0514 216.572 75.0804C216.24 75.1643 216.447 75.1887 216.384 75.2099C215.403 75.5398 215.716 75.3147 215.066 75.4513C213.891 75.6986 212.657 75.9748 211.429 76.2612L211.401 76.2671C210.751 76.3771 210.103 76.496 209.467 76.6231C208.664 76.7834 207.879 76.9519 207.13 77.1211C206.079 77.3606 207.147 77.2754 206.081 77.4262C206.006 77.4369 206.266 77.3011 205.977 77.3565C205.32 77.4817 204.081 77.7788 203.574 77.8917C202.596 78.108 202.435 78.1475 201.511 78.3684C200.249 78.6703 198.743 79.0034 197.391 79.3595C197.103 79.4358 197.496 79.4184 197.036 79.5471C196.577 79.6758 195.355 79.976 194.941 80.061C194.527 80.1461 194.695 80.0404 194.62 80.0446C194.005 80.0763 192.614 80.5954 192.433 80.6446C189.126 81.5412 186.265 82.1391 183.137 82.8147C181.441 83.1804 179.659 83.5526 177.951 83.8625C177.268 83.9864 176.598 84.1062 175.951 84.2188C173.256 84.6869 170.97 85.04 168.352 85.4966C168.075 85.5446 168.404 85.5828 168.066 85.6417C164.481 86.2669 160.919 86.8563 157.345 87.3846C156.987 87.4374 157.445 87.2787 157.087 87.3266C154.893 87.6223 151.421 88.0257 150.133 88.5946C148.998 88.7679 147.677 88.9699 146.524 89.1178C146.168 89.1633 145.829 89.2038 145.516 89.2368C144.658 89.3271 145.486 89.1045 144.436 89.3107C144.199 89.357 144.511 89.3865 144.155 89.45C142.659 89.7175 141.021 89.951 139.541 90.2247C139.24 90.2805 139.325 90.3381 139.24 90.3642C138.526 90.5798 137.325 90.597 137.064 90.6253C135.078 90.8431 133.631 91.104 131.783 91.3867C131.355 91.4522 131.864 91.4688 131.452 91.5353C129.313 91.8785 127.096 92.2091 124.999 92.4848C124.533 92.5459 124.959 92.4002 124.736 92.4253C123.753 92.5367 123.539 92.722 122.597 92.8312C122.398 92.8544 122.508 92.7684 122.471 92.7663C121.901 92.7327 121.413 92.9755 121.268 93.0012C119.425 93.3294 118.241 93.3294 116.46 93.6197C116.247 93.6546 116.73 93.6705 116.131 93.7632C115.775 93.8184 115.417 93.8733 115.057 93.9281C111.388 94.4866 107.564 95.0215 103.963 95.4802C103.349 95.5586 103.786 95.4292 103.747 95.4267C103.114 95.3916 102.71 95.6203 102.51 95.6557C100.93 95.9305 99.4511 96.0011 98.3815 96.3576C95.8577 96.694 93.3388 97.0537 90.824 97.4113L90.8564 97.4051C89.8141 97.6563 88.7725 97.9074 87.7313 98.1566L87.3776 98.2437L87.3607 97.8836C87.3152 96.748 87.2719 95.6129 87.233 94.4778L87.2332 94.4464C87.3575 92.453 87.496 90.461 87.6611 88.4694C87.668 88.3837 87.7424 88.5316 87.7558 88.3608C87.8025 87.7688 87.8234 87.3805 87.8273 87.0956C87.8355 86.5149 87.7737 86.3635 87.7195 85.7916L88.0154 86.0921C87.8924 86.1181 87.7504 86.146 87.5808 86.1761C87.4696 86.1957 87.2861 86.1948 87.0862 86.1839L87.1135 86.1813C86.6989 86.1917 86.2123 86.1674 86.151 86.1662C85.8189 86.1593 86.1612 85.9883 86.05 85.9932C85.1307 86.0387 85.2855 86.43 84.0466 86.5979C84.0078 86.6025 84.1696 86.5047 84.0656 86.5113C83.7422 86.5314 83.4223 86.6048 83.1058 86.6216C82.7594 86.6396 82.5191 86.6112 82.2419 86.6058L82.1259 86.6221L82.1201 86.5049C82.1529 86.1951 82.1625 85.8446 82.0763 85.2778C82.055 85.1403 81.8328 85.3931 81.794 84.2839C81.7787 83.8418 81.687 81.8885 81.6774 81.3383C81.6763 81.2779 81.6765 81.2286 81.6776 81.1885L81.6775 81.1634C81.7114 80.8373 81.7615 81.1286 81.7655 81.0933C81.9123 79.5957 81.9352 80.1565 82.1061 79.3977C82.2767 78.6391 81.9222 78.8767 81.8936 78.576C81.8651 78.2748 81.9842 77.176 82.0219 76.9053C82.0597 76.6347 82.0955 76.9649 82.1199 76.7252C82.2803 75.1353 81.9717 76.0463 81.9349 75.5301C81.848 74.3132 82.1406 73.3344 82.2071 72.2079C82.2251 71.903 82.1573 72.1563 82.1618 71.8859C82.1796 70.8516 82.2776 70.208 82.2587 69.0718C82.258 69.0307 82.2573 68.9891 82.2567 68.9469C82.2488 68.7495 82.1602 67.7497 82.3673 67.0994C82.3966 67.0082 82.4225 67.2689 82.5032 66.8071C82.6188 66.1171 82.8997 64.8808 83.117 64.149C83.2765 63.6077 82.9689 64.2014 83.2338 63.5308C83.3575 63.2349 83.2097 63.8029 83.4403 63.2499C83.5158 63.0739 83.6277 62.8097 83.766 62.5196C84.0513 61.9019 84.4998 61.1883 84.7559 60.8759C85.131 60.4187 84.8704 60.619 84.8954 60.5784C84.981 60.4576 85.2194 60.1762 85.4888 59.9516C85.7545 59.7229 86.0484 59.5652 86.0965 59.5438C86.3481 59.4223 86.6176 59.339 86.8871 59.3064C87.0398 59.2878 87.1883 59.2883 87.3299 59.2995L87.033 59.5817C87.033 59.5677 87.033 59.5537 87.0331 59.5397L87.0318 59.2966L87.2758 59.2596C87.2897 59.2576 87.3036 59.2556 87.3175 59.2536L87.0802 59.5846C87.0505 59.4446 87.0317 59.2974 87.0307 59.1451C87.0919 57.4669 88.5152 56.362 89.6927 55.5913L89.581 55.7786C89.7471 53.4626 89.9147 51.1755 90.0429 48.8381C90.063 48.5167 90.1249 48.1886 90.2852 47.8664C90.2877 47.8614 90.2902 47.8567 90.2927 47.8519C90.5197 47.479 90.3017 47.6803 90.3355 47.623C90.358 47.591 90.3819 47.5603 90.4072 47.5312L90.3301 47.7267C90.329 47.6746 90.3284 47.627 90.3284 47.5834L90.327 47.3312L90.58 47.2893C90.8707 47.2422 90.9781 47.2473 91.0221 47.2728L90.9832 47.2827C91.0603 47.3043 91.0046 47.3854 91.1592 47.3956C91.2203 47.4022 91.3164 47.3977 91.4708 47.3743C91.3286 47.2342 91.8309 47.1442 92.6808 46.9205C93.0903 46.8126 92.8589 46.8008 92.8956 46.785C93.3645 46.5917 93.736 46.5669 93.9283 46.5652C93.9809 46.5648 94.0201 46.566 94.0442 46.5661C94.4587 46.5661 94.884 46.3458 95.1661 46.3447C95.4479 46.3431 94.828 46.59 95.6449 46.3927C95.6614 46.3842 95.6732 46.3761 95.6812 46.3686C95.7048 46.3463 95.6953 46.3279 95.6745 46.3108C95.6217 46.2673 95.4965 46.2316 95.6567 46.1585C95.7005 46.1386 95.7656 46.1158 95.8593 46.0894C96.1192 46.0161 96.4045 45.9397 96.7089 45.8608C97.3168 45.7034 98.0013 45.5387 98.7117 45.3733C98.9716 45.3126 99.2353 45.2516 99.5003 45.1911C100.127 45.0479 100.759 44.9076 101.365 44.7744C101.381 44.771 101.385 44.7704 101.378 44.772C101.69 44.7033 101.996 44.6361 102.291 44.5716C103.151 44.384 103.912 44.2189 104.46 44.0945C104.689 44.0426 104.899 43.9949 105.094 43.9506C105.722 43.8057 106.186 43.699 106.594 43.6053C106.889 43.5376 107.154 43.4777 107.431 43.4163C107.578 43.3839 107.728 43.3509 107.887 43.3171C107.939 43.3061 107.992 43.2949 108.045 43.2835C110.029 42.8642 109.291 42.9145 110.514 42.5763C111.741 42.2377 111.173 42.6664 111.356 42.6879C111.537 42.7102 111.72 42.6022 111.94 42.5867C112.159 42.5714 111.697 42.7213 112.206 42.6174C112.714 42.5133 114.09 42.084 114.263 41.9776C114.629 41.7523 113.988 41.75 115.336 41.494C115.414 41.4794 115.171 41.6131 115.468 41.5532C116.445 41.3552 117.437 41.1449 118.431 40.9329C119.833 40.6334 121.24 40.3303 122.617 40.0525C122.94 39.9874 122.661 40.1372 122.849 40.1003C124.811 39.7163 124.097 39.7297 125.153 39.3307C124.934 39.5966 125.54 39.5936 127.025 39.2647C127.917 39.0672 127.754 39.0087 128.325 38.8153C128.438 38.7772 128.752 38.7311 128.985 38.6845C129.107 38.6602 129.207 38.6357 129.245 38.6121C129.608 38.3863 128.998 38.358 130.535 38.0836C130.603 38.0718 130.396 38.197 130.629 38.1505C132.133 37.8509 132.298 37.6623 133.919 37.2889C135.189 36.9961 137.46 36.5944 138.91 36.2959C138.906 36.4059 139.178 36.3961 139.527 36.3263C139.958 36.2403 140.506 36.0634 140.804 35.9064C141.745 35.7102 142.759 35.4823 143.67 35.3098C143.983 35.2504 143.784 35.3637 143.824 35.3627C144.44 35.35 144.834 35.1022 145.036 35.0524C147.23 34.5198 149.033 34.2589 151.121 33.6943C151.195 33.6742 151.301 33.4825 151.873 33.4847C151.91 33.4854 151.224 33.7079 152.212 33.5044C153.2 33.3007 155.07 32.9961 156.434 32.6307C156.765 32.5423 157.592 32.231 158.275 32.195C158.366 32.1905 158.272 32.2587 158.404 32.258C158.83 32.2547 159.044 32.0389 159.549 32.0785C160.054 32.118 161.087 32.0106 162.462 31.6242C162.505 31.6122 162.821 31.4109 163.257 31.3226C163.951 31.1817 164.94 31.0049 165.665 30.854C166.012 30.7817 165.783 30.745 165.843 30.731C168.173 30.2019 169.841 29.9338 172.345 29.4546C172.804 29.3669 174.113 28.9854 175.008 28.8944C175.991 28.7942 175.021 29.4031 177.254 28.8528C178.155 28.6315 179.259 27.8849 180.904 27.8261C184.049 27.1281 186.974 26.6862 190.127 25.9709C190.268 25.9388 190.707 25.7065 191.042 25.643C191.538 25.549 191.815 25.5631 192.17 25.4983C193.655 25.2285 195.009 24.9069 196.441 24.639C196.985 24.5373 196.8 24.6436 197.448 24.5224C198.096 24.4014 198.522 24.2264 199.402 24.1022C200.068 24.0088 200.743 24.0693 201.624 23.9232C201.646 23.7319 202.25 23.6202 203.321 23.3673C203.527 23.3186 203.301 23.2962 203.398 23.2699C203.794 23.1612 204.165 23.1448 204.54 23.0372C204.632 23.0111 204.632 22.9471 204.706 22.9223C205.338 22.7083 206.4 22.6521 206.582 22.6429C206.616 22.6412 206.649 22.6392 206.681 22.6369C207.312 22.5929 207.624 22.4606 208.132 22.4011C208.665 22.3388 207.875 22.5335 208.496 22.4401C209.172 22.3382 209.949 22.2022 210.723 22.0617C211.422 21.9242 212.117 21.7829 212.735 21.6601C213.254 21.5564 212.893 21.5435 212.967 21.5267C214.04 21.2893 215.134 21.1603 215.717 20.8728C216.317 21.0913 216.375 20.8708 217.076 20.6564L217.117 20.648L217.119 20.6895C217.15 20.8973 217.17 21.1634 217.165 21.5208C217.163 21.6435 216.964 21.832 216.914 21.3703C216.895 21.1891 216.888 20.9684 216.883 20.7284L217.095 20.8915C216.725 20.9582 216.311 21.0289 215.921 21.1361C215.77 21.1778 214.91 21.5457 214.792 21.5813C213.864 21.8601 213.708 21.5805 213.657 21.5736C213.083 21.5048 212.03 21.9265 211.75 21.9974C211.4 22.0859 211.064 22.1635 210.738 22.2348C209.866 22.4123 209.073 22.5465 208.292 22.7273C207.589 22.8896 207.533 23.1037 206.979 23.2016C206.89 23.2174 206.804 23.232 206.72 23.2456C205.072 23.514 204.395 23.3963 202.761 23.9413C202.393 24.0639 202.777 24.2131 201.434 24.2943C201.35 24.2993 200.351 24.3302 199.786 24.5397C199.716 24.5661 199.722 24.6297 199.628 24.6532C198.997 24.8096 198.57 24.8399 197.881 24.9973C197.193 25.1548 196.365 25.3516 195.575 25.4827C195.099 25.5617 194.481 25.5609 194.252 25.576C193.604 25.6168 192.925 25.8889 192.52 25.8648C192.111 25.8408 192.885 25.5322 191.828 25.6717C191.801 25.8455 191.724 26.0336 191.673 26.2131C189.368 26.6583 187.096 27.052 184.784 27.5192C184.498 27.5773 184.798 27.6083 184.491 27.6729C183.195 27.9451 182.058 28.1078 180.716 28.4029C179.676 28.6317 178.543 28.956 177.457 29.1997C176.777 29.1439 175.168 29.5355 173.994 29.757C173.582 29.8347 173.606 29.7784 173.312 29.8214C172.205 29.985 172.735 30.0475 172.435 30.1356C171.148 30.5132 171.006 30.156 169.479 30.4792C169.398 30.4961 168.425 30.902 168.29 30.9428C167.43 31.2034 168.14 30.9018 167.597 30.9986C166.605 31.1754 165.914 31.2692 164.758 31.5691C164.421 31.6568 163.619 31.9514 162.954 31.9906C162.866 31.9958 162.908 31.919 162.838 31.9296C161.573 32.1266 161.558 32.3438 160.844 32.5651C160.13 32.7866 159.005 32.8744 158.776 32.8801C158.174 32.8962 159.225 32.7389 159.256 32.7216C159.622 32.5165 158.813 32.708 158.192 32.8274C158.085 32.6402 157.219 32.8346 157.549 32.952C157.586 32.9645 158.067 32.8441 158.192 32.8274C157.666 33.1435 156.716 33.3694 155.647 33.4024C155.147 33.4178 155.604 33.2162 154.111 33.5698C153.434 33.7304 153.709 33.8166 153.113 33.982C151.753 34.3598 149.963 34.6054 148.554 34.9271C148.042 35.0439 148.548 35.0151 148.199 35.0975C147.272 35.3167 146.448 35.4337 145.518 35.6633C145.434 35.6842 145.648 35.7211 145.358 35.7843C143.369 36.2195 141.607 36.5561 139.588 36.9833C139.378 37.0279 139.164 37.0735 138.947 37.1203C137.839 37.3595 135.861 37.8352 134.712 38.0773C132.899 38.4594 130.698 38.8425 129.037 39.2141C128.874 39.2506 128.716 39.287 128.565 39.3233C127.458 39.5874 127.709 39.6146 127.24 39.7753C126.334 40.0858 124.693 40.2561 124.471 40.2753C124.464 40.2758 125.416 40.0437 124.903 40.1158C124.599 40.0952 124.482 40.2726 124.471 40.2753C124.326 40.288 122.419 40.6964 122.042 40.7972C121.838 40.8518 121.96 40.9027 121.853 40.9298C120.743 41.2102 119.631 41.4823 118.515 41.7463C117.078 42.0858 115.634 42.412 114.179 42.7247C114.133 42.7336 114.193 42.6322 114.086 42.6541C112.587 42.9586 111.641 43.2841 110.415 43.6311C109.454 43.9032 108.644 44.0887 107.98 44.1669C107.818 44.1856 107.663 44.1987 107.517 44.2048C107.5 44.2053 107.482 44.2059 107.465 44.2065C107.224 44.2675 106.957 44.3286 106.68 44.3885C106.179 44.4967 105.645 44.6 105.177 44.6891C104.895 44.7419 104.637 44.7888 104.424 44.8276C103.652 44.9677 103.563 45.1599 103.496 45.179C103.102 45.292 102.738 45.3906 102.393 45.4796C102.078 45.5612 101.777 45.6348 101.482 45.7038C101.441 45.713 101.437 45.7136 101.465 45.7075C100.851 45.8511 100.259 45.9764 99.6066 46.1173C99.3545 46.1718 99.093 46.2288 98.8168 46.2899C98.5546 46.3479 98.2799 46.4095 97.9882 46.4767C97.6722 46.5495 97.2621 46.6476 96.8134 46.7576C96.4753 46.8406 96.1153 46.9295 95.7569 47.0189C95.1398 47.1729 94.5253 47.3296 94.0327 47.4555C93.9409 47.479 93.8533 47.5014 93.7709 47.5226C92.8842 47.7507 92.3445 47.8404 91.5293 48.063C91.419 48.093 91.5396 48.1401 91.5062 48.1511C91.4093 48.1844 91.3276 48.2107 91.2588 48.2313C91.2379 48.2393 91.2216 48.246 91.2113 48.2499L91.06 48.2887C90.6731 48.3523 90.9302 48.184 90.7752 48.182C90.7197 48.1813 90.6659 48.1807 90.6133 48.1802L91.2174 47.4742C91.2092 47.5239 91.2014 47.5726 91.194 47.6206L91.1926 47.8781L91.0146 48.0754C90.9982 48.0726 90.9602 48.1037 90.9248 48.1489C90.8218 48.2766 90.7312 48.505 90.711 48.7972C90.6957 49.031 90.686 49.301 90.6818 49.628C90.6782 49.9026 90.8942 50.6883 90.8796 51.1892C90.8602 51.8406 90.7803 51.6001 90.7623 52.2819C90.7607 52.3403 90.8198 52.3245 90.792 52.7463C90.7291 53.7047 90.6583 54.7057 90.589 55.7164L90.559 56.18L90.1597 56.4361C89.3195 56.9668 88.5282 57.6649 88.2146 58.3667C88.1398 58.5474 88.3106 58.3502 88.2241 58.5967C88.1818 58.7348 88.1621 58.8665 88.1642 58.9946C88.1653 59.0575 88.1739 59.1296 88.1919 59.2121L88.4077 60.2448L87.3439 60.3947C87.3301 60.3968 87.3162 60.3989 87.3023 60.4009L88.1694 59.4002C88.1695 59.4142 88.1695 59.4282 88.1695 59.4422L88.1638 60.5364L87.1093 60.4499C87.0228 60.4435 86.9489 60.4451 86.8869 60.4528C86.105 60.509 85.1686 61.6771 84.6318 62.7902C84.623 62.8077 84.6147 62.8239 84.6069 62.839C84.4481 63.1526 84.4938 62.9143 84.4405 62.9895C84.0921 63.4841 83.9936 64.3217 83.9619 64.4498C83.5265 66.0574 83.3163 67.5233 83.2363 68.989C83.164 70.4413 83.0915 71.9064 83.0666 73.5687C83.064 73.7544 83.194 75.1706 83.0158 75.8228C83.0038 75.8674 82.8221 76.5133 82.9117 77.0625C82.9173 77.0966 83.013 76.6957 82.9809 77.3835C82.9488 78.0714 82.9661 79.1721 82.8452 80.1243C82.8222 80.3061 82.7469 80.6402 82.7125 81.0699L82.7121 81.0145C82.7109 81.296 82.7307 81.6169 82.7967 81.9592C82.8082 82.0153 83.1559 83.3309 82.9801 83.8509C82.9511 83.9352 82.7382 83.8878 82.8929 84.9241C82.9227 85.1221 82.9529 84.7485 83.0059 85.2743C83.0383 85.5946 83.0566 85.9592 83.0756 86.3442L82.2299 85.6437C82.8131 85.5622 83.4429 85.4749 84.0438 85.3369C84.2177 85.2967 84.9572 85.0533 85.5531 85.0813C85.6464 85.0857 85.4704 85.18 85.7845 85.1453C86.2176 85.0977 86.6566 85.042 87.0986 84.9833L87.1633 84.977C87.4695 84.9602 87.7786 84.9411 88.0894 84.9226L88.9236 84.8787L88.8717 85.717C88.8473 86.1555 88.8226 86.5949 88.7937 87.0328C88.7707 87.3828 88.7449 87.7319 88.7145 88.0789C88.6669 88.6239 88.5697 88.3532 88.5076 88.9221C88.4455 89.4911 88.3525 90.6354 88.371 91.2253C88.3895 91.8153 88.6054 91.1552 88.5703 92.0432C88.5397 92.818 88.5026 93.5918 88.461 94.3649L88.4616 94.2753C88.5105 95.411 88.5489 96.5463 88.5839 97.682L87.5887 96.949C88.6315 96.7093 89.6743 96.4725 90.7181 96.2331L90.8011 96.2172C91.6562 96.1054 92.5119 95.9916 93.3692 95.8728C93.9342 95.7945 93.4645 95.7966 94.2971 95.6765C97.3666 95.2338 102.664 94.4087 105.331 94.1578C107.467 93.9571 104.784 94.4323 106.415 94.2395C107.203 94.1461 108.049 93.8113 108.239 93.7769C110.093 93.438 111.385 93.3415 113.054 93.0663C113.399 93.0094 113.059 92.9741 113.352 92.9266C113.902 92.8372 114.468 92.7612 115.026 92.6861C115.483 92.6244 115.935 92.5634 116.366 92.4959C116.796 92.4286 116.715 92.3754 117.111 92.3215C118.057 92.1917 118.895 92.0939 119.819 92.0167C119.903 92.0096 119.338 92.1756 120.038 92.0736C121.172 91.9083 122.58 91.7568 123.881 91.4974C124.268 91.4202 124.279 91.2693 125.113 91.2458C125.288 91.2408 125.071 91.4532 126.034 91.1518C126.197 91.1015 127.817 90.6457 128.619 90.6575C128.831 90.6606 129.373 90.7243 129.837 90.63C129.9 90.6167 129.645 90.5756 130.03 90.5087C131.388 90.2741 132.811 90.063 134.206 89.8215C134.578 89.7569 134.02 89.7604 134.575 89.6667C136.102 89.4088 138.009 89.1318 139.502 88.9226C140.053 88.8457 139.675 88.974 139.715 88.9751C140.364 88.9948 140.739 88.7712 140.952 88.7279C142.28 88.4608 143.295 88.3768 144.519 88.161C144.857 88.1016 144.615 88.062 144.682 88.0443C145.377 87.865 144.862 88.0879 145.305 88.0327C145.685 87.9854 146.078 87.9312 146.477 87.8725C147.379 87.7401 148.308 87.5853 149.176 87.438C149.635 87.3599 149.115 87.3532 149.528 87.2841C151.969 86.8734 154.508 86.4666 156.893 86.122C157.342 86.0573 157.063 86.1735 157.157 86.1739C157.806 86.1782 158.745 85.8697 158.961 85.8191C159.947 85.5886 160.333 85.5858 161.205 85.4281C165.466 84.6572 170.731 83.7958 174.755 83.1153C175.841 82.9318 176.878 82.7575 177.882 82.5884C181.699 81.9403 185.057 81.2218 188.989 80.2577C189.304 80.1802 188.975 80.1664 189.247 80.0983C192.753 79.2228 196.213 78.365 199.74 77.4717C200.03 77.3986 199.602 77.4148 200.066 77.2947C201.019 77.0477 202.23 76.7613 203.201 76.5628C203.674 76.4659 203.049 76.6878 203.525 76.5889C204.634 76.3593 205.822 76.098 206.96 75.8396C207.445 75.7298 206.705 75.7972 207.335 75.6618C208.012 75.5167 208.688 75.3761 209.363 75.241C210.019 75.1098 210.673 74.9873 211.326 74.8717L211.267 74.8842C213.092 74.4446 214.915 74.0124 216.754 73.5946L215.945 74.6491C215.914 73.535 215.889 72.4152 215.872 71.2857C215.868 70.9868 216.039 70.6957 215.977 70.0686C215.925 70.0292 215.866 70.0416 215.811 70.0297C215.804 69.881 215.797 69.7323 215.791 69.5836L215.79 69.5291C215.847 66.2275 216.087 62.9398 216.334 59.6644L216.36 59.5031C216.636 58.4436 216.914 57.3839 217.195 56.3232C217.67 54.525 218.15 52.7244 218.633 50.9172C218.704 50.652 218.489 51.096 218.626 50.5825C219.346 47.8801 220.035 45.2469 220.848 42.5204L220.833 42.5829C220.895 42.3082 220.959 42.0325 221.023 41.7556C221.094 41.4527 221.228 41.623 221.384 40.7259C221.411 40.5677 221.661 39.218 221.695 38.8663C221.7 38.8185 221.572 39.0577 221.658 38.6232C221.745 38.1804 221.834 37.7341 221.925 37.2854L222.794 38.1987C221.175 38.4871 219.524 38.7687 217.904 39.0322L217.846 39.0404C217.761 39.0481 217.679 39.055 217.6 39.062L216.823 39.1395L216.811 38.3659C216.809 37.9818 216.807 37.5996 216.807 37.2202C216.806 36.8152 216.9 37.2331 216.9 36.9446C216.901 35.7938 216.865 34.5915 216.838 33.4112C216.817 32.4925 216.802 31.587 216.815 30.7291C216.834 29.4172 216.992 29.8786 217.118 29.1642C217.135 29.0631 217.118 28.255 217.2 28.2008C217.407 28.0623 217.647 28.4194 217.866 28.2256C217.913 28.1844 217.833 27.1101 217.966 27.7334C217.975 27.777 218.034 28.5558 218.079 28.7432C218.109 28.8737 218.188 28.6187 218.23 28.888C218.272 29.1574 218.208 29.4696 218.261 29.9187C218.314 30.3676 218.405 30.1533 218.439 31.0604ZM100.948 45.4643C100.229 45.5522 100.157 45.8701 100.918 45.6184C100.954 45.6058 100.985 45.4596 100.948 45.4643ZM187.092 26.8277C186.15 26.8818 185.527 27.2002 186.192 27.1704C186.857 27.1406 187.379 26.8111 187.092 26.8277ZM196.755 24.8417C195.657 24.9496 195.516 25.4023 196.677 25.0917C196.744 25.0738 196.819 24.8353 196.755 24.8417ZM217.237 32.373C217.241 32.3624 217.231 31.7812 217.227 31.7678C217.125 31.4725 217.145 32.6348 217.237 32.373ZM206.346 22.906C206.002 22.9133 205.026 23.164 205.454 23.1547C205.798 23.1472 206.775 22.8968 206.346 22.906ZM82.3531 72.1651C82.3482 72.1769 82.3289 72.5966 82.3542 72.586C82.4357 72.5507 82.4344 71.969 82.3531 72.1651ZM217.204 26.3061C217.12 23.8838 217.406 22.3595 217.476 25.001C217.489 25.4794 217.323 23.9908 217.317 24.6033C217.306 25.7241 217.554 26.4261 217.485 27.5794C217.472 27.7882 217.208 26.4444 217.203 26.3019C217.204 26.3033 217.204 26.3047 217.204 26.3061ZM100.499 45.2089C100.485 45.2084 99.9139 45.3397 99.9006 45.3468C99.6024 45.513 100.752 45.2484 100.499 45.2089ZM87.6548 90.0197C87.6446 90.0524 87.5614 91.4021 87.5667 91.4456C87.6813 92.1392 87.8499 89.4106 87.6548 90.0197ZM138.933 36.2974C139.116 36.2292 139.311 36.166 139.507 36.1112C139.971 35.982 140.444 35.8993 140.801 35.9069C140.373 35.9949 139.943 36.0859 139.513 36.1762C139.32 36.2168 139.126 36.2573 138.933 36.2974ZM163.417 36.0012C163.559 35.9399 163.599 35.8442 163.579 35.8131C163.573 35.802 163.532 35.7739 163.525 35.7664C163.512 35.7527 163.531 35.7678 163.509 35.7586C163.501 35.7556 163.437 35.7105 163.43 35.7087C163.393 35.7004 163.399 35.7282 163.371 35.741C163.358 35.7471 163.345 35.754 163.332 35.762C163.036 36.0821 162.827 36.138 162.64 36.2145C162.571 36.239 162.473 36.2062 162.425 36.2636C162.419 36.2705 162.446 36.3356 162.447 36.3418C162.454 36.4363 162.415 36.2975 162.395 36.2855C162.318 36.2383 162.26 36.2554 162.217 36.3018C162.2 36.3217 162.259 36.4498 162.216 36.3817C162.213 36.3771 162.198 36.3019 162.19 36.2964C162.172 36.284 162.151 36.3066 162.14 36.3046C162.117 36.3004 162.115 36.3023 162.096 36.3083C162.071 36.3158 162.033 36.2897 162.01 36.3159C162.006 36.3217 162.031 36.3949 162.025 36.4111C162.019 36.4273 161.994 36.4293 161.982 36.4142C161.969 36.3991 161.959 36.338 161.955 36.3248C161.917 36.2131 161.926 36.3828 161.923 36.3881C161.874 36.4778 161.8 36.4041 161.741 36.4234C161.697 36.4382 161.655 36.4839 161.613 36.4929C161.578 36.5002 161.543 36.4889 161.51 36.4883C161.495 36.488 161.48 36.49 161.466 36.4968C161.461 36.4991 161.485 36.5877 161.479 36.5906C161.416 36.6215 161.352 36.6314 161.279 36.5907C161.272 36.5866 161.263 36.5049 161.254 36.4961C161.204 36.4432 161.105 36.3104 161.169 36.658C161.143 36.6529 161.115 36.6488 161.078 36.5887C161.053 36.5502 161.039 36.462 161.035 36.5039C161.034 36.5132 161.061 36.5842 161.059 36.5924C161.051 36.6192 161.035 36.616 161.033 36.6316C161.03 36.6373 161.027 36.6447 161.027 36.655C161.026 36.6646 161.054 36.7259 161.058 36.7376C161.09 36.8322 161.009 36.6915 161 36.683C160.938 36.6177 160.934 36.6607 160.913 36.6721C160.908 36.6748 160.959 36.7489 160.957 36.754C160.955 36.7576 160.952 36.7609 160.95 36.7636L160.707 35.9415C160.741 35.9302 160.776 35.9359 160.81 35.9664C160.819 35.9746 160.814 36.0565 160.819 36.0645C160.838 36.099 160.837 35.9461 160.855 35.9762C160.859 35.9824 160.86 36.0517 160.861 36.0592C160.875 36.1764 160.878 36.0064 160.881 36.0023C160.913 35.946 160.941 36.1185 160.973 36.0883C160.977 36.0845 160.965 35.9986 160.976 35.9933C161.049 35.9575 161.128 35.969 161.204 36.0272C161.216 36.0361 161.21 36.103 161.211 36.1109C161.227 36.2354 161.229 36.065 161.232 36.058C161.26 36.0074 161.292 36.145 161.305 35.9403C161.431 35.9905 161.55 35.8576 161.68 36.0187C161.681 36.0205 161.682 36.1043 161.685 36.1076C161.724 36.1485 161.712 36.0201 161.731 35.8577C161.736 35.8169 161.762 36.0051 161.764 36.0189C161.772 36.0696 161.77 36.1946 161.773 36.2043C161.793 36.2802 161.775 35.8705 161.798 35.8667C161.799 35.8673 161.799 35.9432 161.801 35.9504C161.808 35.9731 161.812 35.9421 161.819 35.9672C161.835 36.0252 161.847 36.2237 161.863 36.1045C161.865 36.089 161.853 35.857 161.874 35.8647C161.882 35.868 161.918 35.8582 161.929 35.8717C161.939 35.8851 161.935 35.9612 161.936 35.9644C161.967 36.0591 161.958 36.1019 161.977 36.2465C161.996 36.3905 161.979 36.0424 161.983 36.0026C161.988 35.9629 162.011 36.0415 162.016 36.0691C162.022 36.0968 162.018 36.1454 162.023 36.1608C162.056 36.2614 162.029 35.9857 162.037 35.9288C162.055 35.7942 162.082 36.05 162.103 36.0721C162.109 36.078 162.102 36.0199 162.107 36.0136C162.126 35.9894 162.141 36.0682 162.16 35.9907C162.163 35.978 162.176 35.8197 162.192 35.9319C162.194 35.9481 162.192 36.0133 162.2 36.0264C162.214 36.0461 162.237 36.0566 162.249 36.0329C162.259 36.0154 162.244 35.911 162.257 35.942C162.263 35.9558 162.255 36.0196 162.266 36.0404C162.278 36.0613 162.304 36.0543 162.314 36.0506C162.324 36.0468 162.316 35.9671 162.316 35.9615C162.32 35.9297 162.338 35.8877 162.34 35.8876C162.426 35.864 162.51 35.9871 162.592 35.9288C162.599 35.9244 162.591 35.8401 162.592 35.8386C162.613 35.7994 162.604 36.0281 162.622 36.1011C162.614 35.9291 162.624 35.9589 162.639 35.9374C162.647 35.927 162.64 35.8609 162.641 35.8539C162.648 35.7507 162.661 35.8804 162.664 35.9069C162.675 36.0042 162.679 35.8865 162.686 35.9516C162.694 36.0161 162.686 36.1149 162.701 36.1112C162.703 36.0488 162.686 35.8894 162.696 35.8614C162.736 35.7556 162.822 35.8692 162.858 35.8767C162.893 35.8843 162.904 35.8711 162.925 35.8901C162.964 35.9246 162.946 35.8071 162.967 35.7487C162.988 35.6903 162.987 35.9864 162.993 36.0492C162.998 36.1119 163 36.0463 163.005 36.0804C163.01 36.1145 163.003 36.1589 163.013 36.1705C163.023 36.182 163.045 36.0654 163.046 35.9987C163.048 35.8574 163.031 35.7121 163.057 35.7598C163.059 35.7626 163.057 35.8408 163.063 35.8477C163.109 35.9004 163.154 35.8968 163.2 35.9426C163.206 35.949 163.204 36.0359 163.208 36.0406C163.246 36.0899 163.228 35.9468 163.242 35.7823C163.245 35.9977 163.261 36.1273 163.289 36.1241C163.305 36.1223 163.299 36.029 163.307 35.9612C163.31 35.9408 163.324 36.0033 163.324 35.9589C163.326 35.8137 163.309 35.6541 163.34 35.7138C163.341 35.7166 163.34 35.7962 163.345 35.8003C163.374 35.8271 163.372 35.6758 163.401 35.6528C163.424 35.6347 163.47 35.7199 163.497 35.7305C163.505 35.972 163.529 35.9126 163.533 35.7446C163.539 35.746 163.546 35.7454 163.552 35.7449L163.367 36.0176C163.364 36.0047 163.363 35.9919 163.374 35.9745C163.38 35.9654 163.449 35.9456 163.456 35.9422C163.569 35.891 163.41 35.9372 163.402 35.9346C163.332 35.9035 163.447 35.8411 163.328 35.7952C163.324 35.7943 163.157 35.8018 163.28 35.7727C163.289 35.772 163.363 35.7891 163.371 35.7586C163.381 35.7217 163.477 35.6884 163.428 35.6236C163.414 35.6104 163.322 35.5123 163.423 35.5438C163.436 35.5487 163.472 35.5767 163.495 35.5877C163.566 35.626 163.445 35.5223 163.558 35.5983C163.672 35.6749 163.74 35.7497 163.694 35.665C163.693 35.6628 163.619 35.5588 163.628 35.554C163.642 35.5475 163.672 35.558 163.683 35.5494C163.689 35.5452 163.645 35.4793 163.645 35.4774C163.666 35.4095 163.731 35.4543 163.785 35.4596C163.795 35.4609 163.777 35.3473 163.825 35.4192C163.834 35.4318 163.844 35.452 163.856 35.4766L163.908 35.4609L163.858 35.4278C163.918 35.2836 164.049 35.0235 163.981 35.0895C163.948 35.1208 163.696 35.6083 163.79 35.3416C163.708 35.385 163.721 35.2352 163.626 35.3058C163.622 35.3089 163.549 35.4441 163.545 35.4401C163.538 35.4339 163.564 35.3676 163.56 35.3611C163.544 35.3322 163.496 35.3788 163.476 35.3611C163.469 35.3545 163.503 35.2889 163.494 35.2811C163.485 35.2733 163.437 35.3584 163.442 35.3104C163.446 35.2738 163.52 35.0899 163.515 35.0634C163.431 35.2404 163.423 35.2329 163.383 35.2728C163.375 35.2806 163.35 35.3436 163.345 35.3505C163.323 35.3798 163.341 35.3263 163.319 35.3585C163.313 35.3662 163.285 35.4267 163.279 35.4364C163.226 35.5215 163.273 35.3787 163.281 35.3538C163.312 35.2594 163.27 35.336 163.277 35.2972C163.285 35.2584 163.319 35.2191 163.319 35.1937C163.319 35.141 163.287 35.1403 163.267 35.1292C163.258 35.1251 163.226 35.2082 163.224 35.2095C163.197 35.2231 163.219 35.1302 163.133 35.2873C163.317 34.8665 163.104 35.3235 163.117 35.2305C163.119 35.2229 163.209 35.0252 163.23 34.9993C163.251 34.9734 163.234 35.0394 163.266 34.9985C163.273 34.9889 163.375 34.8101 163.382 34.7997C163.439 34.7184 163.302 35.0133 163.296 35.0297C163.223 35.2076 163.334 35.0158 163.345 35.0038C163.396 34.9492 163.395 34.9975 163.434 34.9595C163.459 34.9349 163.551 34.7428 163.557 34.7522C163.579 34.7834 163.463 35.0562 163.601 34.8343C163.631 34.7869 163.724 34.5741 163.668 34.7481C163.664 34.7591 163.609 34.9168 163.664 34.8246C163.671 34.813 163.7 34.7517 163.704 34.7471C163.73 34.7178 163.714 34.7694 163.736 34.7504C163.759 34.7314 163.789 34.7018 163.792 34.7276C163.794 34.7431 163.751 34.8613 163.741 34.8907C163.714 34.9754 163.788 34.8476 163.748 34.9478C163.709 35.0484 163.626 35.1924 163.613 35.2625C163.689 35.1034 163.767 34.9404 163.844 34.7805C163.88 34.8008 163.893 34.8668 163.935 34.8746C163.94 34.8754 163.975 34.7878 163.982 34.7865C164.01 34.7811 164 34.8494 164.034 34.8337C164.06 34.8212 164.122 34.7378 164.151 34.7219C164.103 34.8399 164.108 34.8627 164.121 34.8696L165.279 35.6359L164.067 36C164.06 36.0025 164.055 36.01 164.047 36.007C164.04 36.0043 164.021 35.9589 164.011 35.9461C163.974 35.899 164.045 36.0448 164.052 36.07C164.083 36.1768 163.931 35.8423 163.916 35.8614C163.915 35.8627 163.993 36.043 163.999 36.0536C164.03 36.1269 163.966 35.9939 163.956 35.9835C163.938 35.9639 163.908 35.928 163.936 35.9779C163.943 35.9934 164.015 36.0902 163.964 36.0117C163.957 36.0016 163.919 35.9509 163.917 35.9478C163.88 35.8968 164.01 36.0497 164.071 36.0848C164.133 36.1183 164.059 35.9927 164.028 35.9663C163.955 35.8926 163.986 35.9501 163.977 35.9442C163.879 35.8741 163.904 35.8773 163.902 35.8614C163.739 35.7523 163.749 35.7595 163.901 35.8456C163.917 35.8558 163.896 35.8549 163.902 35.8614C164.068 35.9625 164.129 35.9079 163.966 35.8217C163.888 35.7853 163.789 35.768 163.829 35.7615C163.847 35.7577 163.986 35.7749 164.027 35.763C164.121 35.7258 163.985 35.7147 164.007 35.7175C164.014 35.7159 164.092 35.6978 164.1 35.6953C164.12 35.6877 164.063 35.7072 164.094 35.7041C164.096 35.7037 164.176 35.6769 164.178 35.6779C164.184 35.6821 164.173 35.6964 164.164 35.7142L164.141 36.6386L163.582 36.5697C163.564 36.5613 163.546 36.553 163.526 36.5554C163.506 36.5581 163.47 36.6091 163.449 36.6035C163.411 36.5941 163.361 36.4821 163.331 36.5161C163.311 36.5379 163.318 36.6192 163.311 36.6765C163.298 36.7875 163.261 36.5983 163.256 36.5689C163.256 36.5679 163.273 36.5458 163.262 36.5052C163.253 36.4184 163.256 36.5685 163.256 36.5689C163.253 36.5499 163.217 36.537 163.21 36.5538C163.207 36.5629 163.211 36.6403 163.21 36.6436C163.165 36.7207 163.118 36.748 163.069 36.7193C163.068 36.7179 163.066 36.6308 163.064 36.6285C163.034 36.5943 163.02 36.7035 163 36.7702C162.979 36.837 162.96 36.8188 162.941 36.6717C162.925 36.6933 162.897 36.6312 162.882 36.5935C162.866 36.5558 162.87 36.7253 162.869 36.7288C162.833 36.8421 162.807 36.7489 162.766 36.7403C162.746 36.7359 162.709 36.7666 162.689 36.7884C162.673 36.8059 162.661 36.7679 162.647 36.7957C162.645 36.7994 162.65 36.8744 162.649 36.8774C162.635 36.9702 162.637 36.7848 162.632 36.7524C162.615 36.6349 162.605 36.5724 162.585 36.6322C162.581 36.6458 162.576 36.9133 162.567 36.9303C162.556 36.9519 162.557 36.8561 162.545 36.8811C162.544 36.8832 162.547 36.9418 162.539 36.9404C162.503 36.9349 162.462 36.907 162.425 36.9188C162.42 36.9202 162.43 37.0121 162.423 37.0157C162.389 37.0322 162.351 37.0347 162.316 36.9965C162.307 36.9868 162.31 36.9209 162.308 36.9018C162.293 36.7866 162.283 36.9591 162.281 36.9627C162.222 37.0542 162.17 36.9078 162.11 36.991C162.106 36.9959 162.087 37.1823 162.069 37.0279C162.068 37.0176 162.051 36.8595 162.045 36.9705C162.044 36.9774 162.054 37.0586 162.042 37.0522C162.029 37.0459 162.01 37.1041 161.99 37.0164C161.983 36.9887 161.965 36.8313 161.953 36.9611C161.952 36.9701 161.937 37.2616 161.921 37.0647C161.919 37.0323 161.912 36.8221 161.897 36.9328C161.894 36.9543 161.902 37 161.894 37.0308C161.88 37.0783 161.858 37.0252 161.843 37.1217C161.841 37.1388 161.832 37.2834 161.817 37.177C161.815 37.1604 161.815 37.0898 161.809 37.0829C161.78 37.0496 161.753 37.1011 161.723 37.0571C161.713 37.0417 161.714 36.9276 161.702 36.8989C161.691 36.8702 161.669 36.8443 161.66 36.8978C161.651 36.9513 161.669 37.13 161.654 37.147C161.585 37.221 161.511 37.1262 161.44 37.122C161.43 37.1213 161.441 37.1846 161.425 37.1882C161.369 37.2021 161.273 37.2783 161.219 37.1489C161.175 37.0452 161.222 36.9536 161.19 36.9136C161.175 36.8946 161.166 37.107 161.163 37.1142C161.131 37.1868 161.104 37.0976 161.074 37.1311C161.068 37.138 161.077 37.2221 161.072 37.2271C161.054 37.2448 161.033 37.2099 161.016 37.2197C161.008 37.2243 161.012 37.289 161.004 37.2852C160.986 37.2767 160.97 37.2519 160.95 37.1937C160.949 37.1884 160.956 37.1059 160.943 37.1049C160.922 37.1036 160.894 37.0477 160.872 37.1136C160.865 37.1334 160.87 37.282 160.851 37.1818C160.847 37.1609 160.845 36.982 160.833 37.1389C160.831 37.165 160.808 37.3776 160.788 37.246C160.783 37.2114 160.768 37.067 160.76 37.0913C160.759 37.0952 160.767 37.1742 160.76 37.1831C160.757 37.1863 160.755 37.1891 160.752 37.1916L160.326 35.7525C160.353 35.7134 160.391 35.6936 160.415 35.6534C160.422 35.6412 160.37 35.5811 160.382 35.5649C160.417 35.5199 160.479 35.5076 160.528 35.5092C160.546 35.5099 160.562 35.5756 160.566 35.5816C160.598 35.6312 160.6 35.6177 160.594 35.5904C160.593 35.5619 160.584 35.5212 160.586 35.5147C160.621 35.4356 160.679 35.4909 160.71 35.4564C160.719 35.4471 160.689 35.3779 160.689 35.3706C160.691 35.2986 160.715 35.4351 160.732 35.4441C160.78 35.47 160.813 35.4508 160.841 35.43C160.851 35.4223 160.816 35.3416 160.826 35.3355C160.882 35.2985 160.941 35.2875 161 35.3186C161.012 35.3246 161.02 35.3933 161.025 35.4079C161.061 35.5101 161.049 35.3584 161.051 35.3431C161.058 35.2732 161.077 35.3298 161.092 35.3132C161.143 35.2568 161.208 35.2431 161.269 35.2407C161.296 35.2398 161.323 35.2409 161.347 35.2415C161.446 35.2433 161.528 35.2847 161.608 35.2404C161.613 35.2376 161.589 35.1508 161.593 35.1473C161.646 35.1066 161.708 35.1219 161.756 35.0769C161.76 35.0734 161.733 34.9926 161.738 34.9842C161.749 34.9663 161.767 34.9644 161.788 34.9856C161.798 34.9957 161.808 35.0702 161.818 35.0789C161.841 35.0993 161.86 35.0984 161.872 35.0789C161.877 35.0704 161.843 34.9904 161.852 34.986C161.908 34.9541 161.951 34.9189 162.036 35.0014C162.042 35.0071 162.108 35.1697 162.104 35.1345C162.086 35.0889 162.065 35.0355 162.046 34.987C162.097 34.9316 162.166 34.9519 162.153 34.975C162.152 34.9763 162.094 34.9051 162.092 34.9081C162.078 34.9223 162.028 34.9458 162.035 35.0357C162.048 35.0318 162.061 35.029 162.077 35.0268C162.088 35.025 162.226 35.1078 162.216 35.078C162.214 35.0728 162.213 35.0343 162.189 35.0084C162.185 35.0047 162.117 34.9719 162.121 34.9609C162.149 34.8977 162.213 34.8322 162.327 34.7689C162.345 34.7587 162.392 34.8262 162.406 34.82C162.493 34.7824 162.56 34.6306 162.733 34.6165C162.843 34.614 162.861 34.764 162.935 34.8824C162.945 34.8992 162.981 34.8897 162.997 34.9706C163.035 35.1739 163.078 35.396 163.121 35.6119C163.129 35.6589 163.086 35.6176 163.124 35.726C163.126 35.7336 163.165 35.7613 163.184 35.7946C163.198 35.8178 163.205 35.9033 163.23 35.9301C163.257 35.956 163.253 35.8829 163.291 35.908C163.33 35.9322 163.358 36.0243 163.417 36.0012ZM162.811 36.4249C162.795 36.3457 162.803 36.6436 162.815 36.5701C162.816 36.5662 162.812 36.4287 162.811 36.4249ZM163.792 35.0806C163.749 35.2116 163.846 35.0318 163.88 34.931C163.915 34.8303 163.805 35.0409 163.792 35.0806ZM163.589 35.1102C163.56 35.2158 163.752 34.8148 163.695 34.8886C163.691 34.8928 163.59 35.1041 163.589 35.1102ZM162.829 34.9872C162.831 34.9899 162.852 34.9799 162.85 34.9764C162.816 34.8906 162.768 34.9162 162.829 34.9872ZM163.383 35.1485C163.363 35.205 163.408 35.1485 163.433 35.0782C163.453 35.0216 163.407 35.0781 163.383 35.1485ZM162.109 36.2172C162.108 36.2128 162.101 36.2101 162.102 36.2351C162.105 36.3158 162.115 36.2913 162.109 36.2172ZM163.11 35.0491C163.143 35.0796 163.011 35.421 162.985 35.3668C162.98 35.357 163.052 35.2674 163.056 35.2336C163.063 35.172 162.953 35.3758 162.986 35.2569C162.993 35.2351 163.108 35.0466 163.11 35.0487C163.11 35.0488 163.11 35.0489 163.11 35.0491ZM162.79 36.0686C162.79 36.0647 162.779 36.0627 162.779 36.0667C162.777 36.162 162.798 36.1662 162.79 36.0686ZM161.654 36.1046C161.653 36.0963 161.629 36.0924 161.628 36.1002C161.621 36.2568 161.671 36.2651 161.654 36.1046ZM163.498 35.7369C163.506 35.64 163.519 35.6266 163.533 35.7445C163.521 35.74 163.51 35.7409 163.498 35.7369Z" fill="#00A0BA"/>
</g>
<g filter="url(#filter1_f_2103_5816)">
<path d="M103.593 81.9045L109.177 47.3291L130.266 44.7397L129.544 49.2301L113.53 51.1964L111.822 61.7319L126.735 59.9007L126.012 64.3746L111.099 66.2057L109.391 76.7909L125.602 74.8005L124.879 79.2909L103.593 81.9045ZM138.182 43.7677L144.062 56.3005L144.325 56.2682L154.541 41.7592L160.503 41.0271L147.265 59.5974L154.984 75.5945L149.121 76.3144L143.208 63.9677L142.945 64L132.696 78.3311L126.734 79.0631L140.284 60.4545L132.384 44.4796L138.182 43.7677ZM168.299 40.0698L162.715 74.6452L157.64 75.2684L163.224 40.6929L168.299 40.0698ZM170.996 44.1404L171.719 39.6499L197.752 36.4535L197.029 40.944L186.534 42.2326L181.672 72.3176L176.614 72.9387L181.475 42.8537L170.996 44.1404Z" fill="black"/>
</g>
<defs>
<filter id="filter0_f_2103_5816" x="66.2758" y="5.24795" width="172.777" height="108.396" filterUnits="userSpaceOnUse" color-interpolation-filters="sRGB">
<feFlood flood-opacity="0" result="BackgroundImageFix"/>
<feBlend mode="normal" in="SourceGraphic" in2="BackgroundImageFix" result="shape"/>
<feGaussianBlur stdDeviation="7.7" result="effect1_foregroundBlur_2103_5816"/>
</filter>
<filter id="filter1_f_2103_5816" x="94.8938" y="27.7536" width="111.556" height="62.8507" filterUnits="userSpaceOnUse" color-interpolation-filters="sRGB">
<feFlood flood-opacity="0" result="BackgroundImageFix"/>
<feBlend mode="normal" in="SourceGraphic" in2="BackgroundImageFix" result="shape"/>
<feGaussianBlur stdDeviation="4.35" result="effect1_foregroundBlur_2103_5816"/>
</filter>
<linearGradient id="paint0_linear_2103_5816" x1="82" y1="67.9048" x2="222.749" y2="67.9048" gradientUnits="userSpaceOnUse">
<stop stop-color="#00A0B9" stop-opacity="0"/>
<stop offset="0.423077" stop-color="#00A0B9"/>
</linearGradient>
</defs>
</svg>
