<svg width="304" height="119" viewBox="0 0 304 119" fill="none" xmlns="http://www.w3.org/2000/svg">
<path d="M103.593 81.905L109.177 47.3296L130.266 44.7402L129.544 49.2306L113.53 51.1968L111.822 61.7324L126.735 59.9012L126.012 64.3751L111.099 66.2062L109.391 76.7914L125.602 74.8009L124.879 79.2914L103.593 81.905ZM138.182 43.7682L144.062 56.301L144.325 56.2687L154.541 41.7596L160.503 41.0276L147.265 59.5979L154.984 75.5949L149.121 76.3149L143.208 63.9682L142.945 64.0004L132.696 78.3315L126.734 79.0636L140.284 60.455L132.384 44.4801L138.182 43.7682ZM168.299 40.0703L162.715 74.6457L157.64 75.2688L163.224 40.6934L168.299 40.0703ZM170.996 44.1408L171.719 39.6504L197.752 36.454L197.029 40.9444L186.534 42.2331L181.672 72.3181L176.614 72.9392L181.475 42.8542L170.996 44.1408Z" fill="white"/>
<path d="M103.593 81.905L109.177 47.3296L130.266 44.7402L129.544 49.2306L113.53 51.1968L111.822 61.7324L126.735 59.9012L126.012 64.3751L111.099 66.2062L109.391 76.7914L125.602 74.8009L124.879 79.2914L103.593 81.905ZM138.182 43.7682L144.062 56.301L144.325 56.2687L154.541 41.7596L160.503 41.0276L147.265 59.5979L154.984 75.5949L149.121 76.3149L143.208 63.9682L142.945 64.0004L132.696 78.3315L126.734 79.0636L140.284 60.455L132.384 44.4801L138.182 43.7682ZM168.299 40.0703L162.715 74.6457L157.64 75.2688L163.224 40.6934L168.299 40.0703ZM170.996 44.1408L171.719 39.6504L197.752 36.454L197.029 40.9444L186.534 42.2331L181.672 72.3181L176.614 72.9392L181.475 42.8542L170.996 44.1408Z" fill="url(#paint0_linear_2103_5835)"/>
<defs>
<linearGradient id="paint0_linear_2103_5835" x1="93.9673" y1="91.7119" x2="139.456" y2="87.1437" gradientUnits="userSpaceOnUse">
<stop/>
<stop offset="1" stop-color="white"/>
</linearGradient>
</defs>
</svg>
