<svg width="304" height="119" viewBox="0 0 304 119" fill="none" xmlns="http://www.w3.org/2000/svg">
<path d="M98.5932 82.8044L104.177 48.229L116.167 46.7568C118.773 46.4368 120.854 46.6613 122.409 47.4301C123.974 48.1976 125.047 49.3732 125.628 50.9567C126.219 52.5389 126.345 54.3933 126.005 56.52C125.655 58.648 124.911 60.6148 123.772 62.4205C122.644 64.2137 121.138 65.7114 119.255 66.9134C117.372 68.1044 115.133 68.8592 112.537 69.1779L104.276 70.1923L104.982 65.77L112.767 64.8141C114.421 64.6111 115.811 64.1536 116.939 63.4414C118.078 62.7169 118.97 61.8131 119.616 60.7298C120.262 59.6356 120.684 58.442 120.881 57.1492C121.089 55.8329 121.034 54.7034 120.717 53.7605C120.399 52.8066 119.77 52.1062 118.828 51.6592C117.897 51.2108 116.594 51.0895 114.919 51.2952L108.546 52.0777L103.668 82.1812L98.5932 82.8044ZM125.775 79.4669L131.359 44.8915L136.434 44.2684L131.573 74.3533L146.814 72.4819L146.092 76.9723L125.775 79.4669ZM154.126 75.9858L148.739 76.6472L166.428 40.5855L172.292 39.8656L178.812 72.9547L173.425 73.6162L168.514 46.4852L168.251 46.5174L154.126 75.9858ZM157.214 62.3353L174.69 60.1896L173.967 64.5808L156.492 66.7265L157.214 62.3353ZM180.914 38.8069L186.679 38.0991L192.953 52.7347L193.331 52.6883L204.614 35.8969L210.379 35.189L194.792 57.6882L192.592 71.2628L187.533 71.884L189.717 58.3114L180.914 38.8069Z" fill="url(#paint0_linear_2068_2608)"/>
<defs>
<linearGradient id="paint0_linear_2068_2608" x1="87.6286" y1="92.7757" x2="140.614" y2="86.5551" gradientUnits="userSpaceOnUse">
<stop/>
<stop offset="1" stop-color="white"/>
</linearGradient>
</defs>
</svg>
