<svg width="304" height="119" viewBox="0 0 304 119" fill="none" xmlns="http://www.w3.org/2000/svg">
<g clip-path="url(#clip0_2103_5657)">
<g filter="url(#filter0_f_2103_5657)">
<path d="M283.257 18.2257C280.648 22.4309 277.967 26.5469 275.272 30.6524C277.533 30.3889 279.794 30.1244 282.054 29.8568L287.111 29.0864L285.603 34.3156C284.438 37.9273 283.278 41.5407 282.124 45.1548C280.01 51.7776 277.917 58.4061 275.85 65.0385C275.046 67.6193 274.244 70.2016 273.445 72.7839L272.685 75.4261L269.877 75.6771C266.341 75.9168 262.804 76.1615 259.268 76.4115C255.695 76.7614 252.297 77.122 249.146 77.456C244.718 77.9253 240.776 78.3426 237.525 78.6075C230.029 79.2183 221.588 79.5944 215.104 79.8751C214.452 79.9787 213.801 80.0817 213.149 80.1815C195.335 82.9106 177.43 85.5563 159.579 88.1175C141.708 90.682 123.86 93.1672 105.974 95.6075C88.1272 98.0415 70.2388 100.431 52.374 102.788C46.4729 103.567 40.5678 104.343 34.6633 105.117L32.5629 105.517L32.5532 103.297C32.7404 99.8184 32.9289 96.3393 33.1173 92.8609C28.3439 93.0867 23.5706 93.3089 18.7981 93.5263L14.2589 93.9322L14.1445 89.1357C14.1706 87.8025 14.1969 86.4681 14.223 85.1349C14.3125 80.6196 14.8167 76.2353 15.6469 72.9483C16.4778 69.6619 17.5609 67.74 18.6837 67.6018C18.816 67.5856 18.9474 67.5954 19.0782 67.6286V67.5534L19.1528 67.5433C19.1025 67.4182 19.0761 67.2891 19.0753 67.1563C19.0689 66.0474 20.8043 64.7507 23.8975 63.5164C26.8263 62.3487 30.7463 61.3337 34.8736 60.6452C34.9563 59.1367 35.0391 57.6281 35.1218 56.1196C35.1527 55.5605 35.2439 55.0181 35.3796 54.6114C35.4305 54.4592 35.486 54.3303 35.5444 54.2279L35.5502 53.9801L36.3295 53.8542C36.3947 53.8366 36.4614 53.8185 36.5292 53.8042C38.1136 53.4731 39.6965 53.1424 41.2854 52.812C42.2674 52.6079 43.2544 52.4032 44.234 52.2C44.838 52.0747 45.4406 51.9492 46.0378 51.8252C47.1658 51.5913 48.316 51.3545 49.4555 51.1194C49.9038 51.0269 50.3526 50.9335 50.8009 50.841C51.8504 50.6242 52.9181 50.4059 53.9772 50.1883C53.9835 50.187 53.9903 50.1852 53.9966 50.1839C54.5177 50.0769 55.0386 49.9698 55.5533 49.8639C57.1423 49.538 58.7175 49.2149 60.327 48.8871C61.1585 48.7162 62.0257 48.54 62.8859 48.3649C63.3647 48.2675 63.8435 48.1703 64.3127 48.0745C64.5691 48.0225 64.8298 47.9692 65.091 47.9164C71.0929 46.6962 77.0536 45.4926 83.0693 44.29C89.0626 43.0911 95.0676 41.9004 101.054 40.7214C107.056 39.54 113.047 38.3696 119.043 37.207C157.099 29.8274 195.316 22.6509 233.563 15.8615C239.018 14.8925 244.618 13.9098 250.085 12.957C255.611 11.9945 261.025 11.0594 266.566 10.113C268.249 9.82497 269.976 9.53105 271.746 9.23085C273.614 8.91375 275.474 8.62141 277.327 8.34831L290.36 6.00001L283.257 18.2257ZM159.047 33.2864C158.871 33.3243 158.741 33.4369 158.559 33.6177C158.234 33.9413 157.145 34.2151 156.295 34.429C155.901 34.528 155.558 34.6141 155.365 34.6866C155.256 34.7279 155.162 34.769 155.081 34.8075L159.911 34.0328C159.809 33.7965 159.876 33.7027 160.411 33.5065C159.957 33.4331 159.501 33.3598 159.047 33.2864Z" fill="url(#paint0_linear_2103_5657)"/>
<path d="M280.465 24.3809C279.171 26.4212 277.598 28.825 276.068 31.1312L275.278 29.6644C276.946 29.4792 278.574 29.3022 280.022 29.1467C281.184 29.0218 280.595 29.1442 281.397 29.0601C281.619 29.0368 281.84 29.0127 282.058 28.9882L282.029 28.9921C283.352 28.7986 284.616 28.5899 285.947 28.4083C286.461 28.3384 285.824 28.5194 286.362 28.4442C286.606 28.4102 286.848 28.376 287.089 28.3415L288.117 28.182L287.822 29.2149C287.297 30.9762 286.803 32.6934 286.297 34.4411L286.29 34.4654C285.996 35.3735 285.699 36.2898 285.393 37.225C284.509 39.92 283.633 42.6075 282.763 45.2919C280.619 51.9116 278.512 58.512 276.422 65.1564C275.613 67.7288 274.806 70.3077 273.998 72.8965L274.002 72.884C273.747 73.7632 273.491 74.6435 273.236 75.525L273.11 75.9658L272.666 76.0068C271.732 76.088 270.796 76.1693 269.859 76.2507L269.846 76.2517C268.922 76.312 267.996 76.3727 267.068 76.4339C264.639 76.5941 261.951 76.759 259.241 76.9342L259.255 76.933C256.487 77.1872 253.696 77.467 251.132 77.7549C250.539 77.8215 250.891 77.858 250.778 77.876C249.557 78.0695 249.459 78.0289 249.137 78.0188C248.991 78.0144 248.802 78.0159 248.444 78.0477C244.923 78.3587 241.096 78.7535 237.506 79.0566C236.426 79.1471 235.366 79.2316 234.344 79.311C232.467 79.4543 234.34 79.4723 232.455 79.5174C232.324 79.5205 232.805 79.4103 232.291 79.4359C231.125 79.4952 228.912 79.6424 228.009 79.6863C226.269 79.7716 225.981 79.7873 224.335 79.8713C222.085 79.9845 219.414 80.0689 217.001 80.1924C216.485 80.2191 217.159 80.27 216.339 80.3196C216.043 80.3374 215.575 80.3601 215.065 80.3822L215.122 80.3764C214.452 80.483 213.704 80.5969 213.164 80.6729C212.961 80.7014 212.787 80.725 212.658 80.7415C211.923 80.8351 212.234 80.7244 212.103 80.7299C211.03 80.7723 208.514 81.3249 208.19 81.3783C202.278 82.349 197.203 83.016 191.652 83.8438C187.437 84.4724 182.931 85.17 178.921 85.754C174.142 86.4493 170.092 86.9952 165.45 87.6733C164.96 87.7447 165.536 87.7559 164.938 87.8433C163.152 88.1042 161.369 88.3621 159.589 88.6166C155.032 89.2679 150.489 89.8968 145.937 90.4948C145.302 90.5781 146.119 90.3798 145.484 90.4581C141.6 90.9398 135.453 91.6382 133.153 92.3196C130.523 92.6729 127.329 93.1025 124.975 93.3561C123.457 93.5196 124.929 93.2255 123.066 93.5219C122.646 93.5886 123.193 93.5919 122.563 93.6859C119.91 94.0819 117.009 94.4559 114.384 94.8573C113.85 94.9391 113.997 94.9897 113.846 95.0232C112.576 95.301 110.456 95.4206 109.995 95.4713C108.531 95.6331 107.233 95.7944 105.979 95.9595C104.221 96.191 102.55 96.4302 100.639 96.6886C99.8791 96.7912 100.778 96.7642 100.047 96.8663C96.2558 97.3948 92.3279 97.9176 88.6146 98.3755C87.7887 98.4771 88.5472 98.294 88.1524 98.3384C86.4119 98.5351 86.0279 98.7398 84.3586 98.931C84.0067 98.9715 84.2042 98.8756 84.1398 98.8766C83.1341 98.8921 82.2633 99.1783 82.005 99.2167C78.7375 99.7059 76.6466 99.8087 73.4898 100.255C73.1121 100.309 73.9647 100.283 72.9031 100.428C66.1757 101.348 59.0791 102.268 52.3768 103.09C52.0325 103.132 51.6893 103.174 51.3472 103.216C50.2585 103.349 51.035 103.18 50.9664 103.181C49.8489 103.202 49.128 103.467 48.7731 103.52C45.9733 103.935 43.3564 104.137 41.4555 104.589C39.1904 104.873 36.9272 105.163 34.6661 105.456L34.6858 105.453C33.9854 105.585 33.2852 105.718 32.5852 105.851L32.2308 105.919L32.2282 105.559C32.2255 104.819 32.2225 104.079 32.2194 103.34L32.2199 103.32C32.408 99.8367 32.5941 96.3581 32.7889 92.883L33.0927 93.1943C28.4252 93.4062 23.7666 93.5974 19.1188 93.7371C18.9699 93.7418 19.2434 93.6453 18.9463 93.655C18.8926 93.6568 18.8398 93.6585 18.788 93.6602C15.6989 93.8993 15.9312 93.9811 14.2479 94.2683L13.9351 94.2972L13.9267 93.9811C13.9088 93.8112 13.89 93.6214 13.8704 93.406C13.8164 92.8105 13.9636 90.9532 13.9737 90.7893C14.0112 90.192 14.1495 90.7855 14.1547 90.5865C14.1724 89.8478 14.101 89.5065 14.0122 89.1552C13.9225 88.7114 13.8073 88.2572 13.8313 87.0359C13.8333 86.9665 13.9029 87.2499 13.914 87.0632C13.9489 86.4829 13.9303 85.9129 13.9673 85.3448C13.9714 85.2813 13.9759 85.2197 13.9806 85.1598C14.0786 83.9883 14.2588 83.4673 14.2719 81.5845C14.2794 81.3335 13.9987 81.7317 14.1916 79.7317C14.2461 78.9347 14.7293 75.4012 14.9847 74.4125C15.2081 73.4267 15.1376 74.1121 15.1554 74.0417C15.2781 73.5569 15.382 73.1956 15.4661 72.9227C15.8586 71.7061 15.7717 72.1771 16.2249 71.1428C16.8209 69.9002 16.3855 70.1636 16.5785 69.6254C16.7175 69.1512 17.8243 67.4094 18.6837 67.4742C18.7363 67.4703 18.7814 67.4706 18.818 67.4725C19.3044 67.5475 18.712 67.5189 19.0882 67.6003L19.0495 67.6321C19.0497 67.6261 19.05 67.6199 19.0502 67.6135C19.0509 67.5943 19.0516 67.5753 19.0523 67.5566L19.0523 67.531L19.0778 67.5274C19.1031 67.5249 19.128 67.5224 19.1525 67.52L19.1312 67.5543C19.0818 67.4176 19.0619 67.2822 19.0643 67.1577C19.0961 66.6323 19.3427 66.3663 19.4314 66.2045C19.5363 66.0441 19.5628 65.9833 19.5554 65.9473C19.5463 65.8781 19.3989 65.9089 19.7329 65.5573C21.0769 64.292 22.4822 63.8646 23.8565 63.3708C24.3092 63.2167 24.7687 63.067 25.2444 62.9074C25.7673 62.7344 25.3299 62.8229 25.7939 62.6612C27.6413 62.0395 28.7746 61.8126 30.8972 61.2469C31.2434 61.1519 32.9605 60.6295 34.0899 60.5499C34.2493 60.5387 33.8022 60.6807 34.6044 60.5562C34.6878 60.5435 34.7758 60.5302 34.868 60.5162L34.745 60.6538C34.8321 59.4077 34.9513 57.4325 34.9977 56.2218C34.999 56.1879 35.0001 56.1566 35.0009 56.1277C35.0541 55.3193 34.8248 56.3335 35.0382 55.1255C35.1804 54.5741 34.9856 55.59 35.2765 54.5877C35.2784 54.5824 35.2803 54.5771 35.2822 54.5718C35.3234 54.4596 35.3744 54.3279 35.4573 54.1844L35.4421 54.238C35.4449 54.1594 35.4478 54.0765 35.4507 53.9899L35.4527 53.8959L35.5464 53.8804C35.7831 53.8446 36.0477 53.8037 36.3259 53.7601C36.3816 53.745 36.4499 53.7267 36.5212 53.712C37.5876 53.4936 38.7987 53.2391 39.3993 53.1125C40.3597 52.9101 39.8271 52.9399 39.9043 52.9183C40.1397 52.8534 40.7239 52.7139 41.2664 52.5874C41.8004 52.4628 42.2941 52.3508 42.3749 52.334C42.991 52.2054 43.6037 52.0784 44.2132 51.9527C44.8173 51.8282 45.4186 51.7044 46.0173 51.582C47.1658 51.3476 48.3046 51.119 49.4367 50.8923C49.8861 50.8022 50.3347 50.7118 50.7827 50.6223C51.8462 50.4097 52.9049 50.2008 53.961 49.9913C53.9604 49.9915 53.9668 49.9899 53.9803 49.9871C54.5 49.8839 55.0191 49.7808 55.5379 49.6775C57.1294 49.3617 58.7184 49.0449 60.314 48.725C61.1647 48.5528 62.0175 48.3811 62.8732 48.2068C63.3478 48.1101 63.8233 48.0131 64.2998 47.9147C64.5588 47.8615 64.8182 47.8077 65.0782 47.7542C65.4458 47.6782 65.8144 47.6016 66.1837 47.5244C66.8116 47.3935 66.3864 47.3942 66.4822 47.3733C68.6298 46.9015 66.9522 47.4697 68.4603 47.24C68.2296 47.113 69.1189 46.964 70.6322 46.6386C71.3615 46.4817 70.9587 46.4959 71.0247 46.4756C72.0993 46.156 72.8635 46.1337 73.0597 46.1211C73.7843 46.0741 74.5555 45.8012 75.0486 45.7682C75.5413 45.7348 74.4266 46.0571 75.8794 45.7631C76.282 45.6198 75.1908 45.677 76.292 45.4289C78.0852 45.0248 80.554 44.5283 83.0504 44.0435C86.3372 43.4045 89.6718 42.7858 91.5748 42.4157C94.9164 41.766 95.9946 41.5418 97.943 41.1795C100.321 40.7376 100.5 40.6566 101.038 40.5007C101.296 40.4259 101.638 40.3339 102.344 40.177C104.531 39.6922 103.487 40.1939 103.807 40.1949C104.12 40.1971 104.453 40.0662 104.84 40.0253C105.226 39.9846 104.399 40.1901 105.301 40.0263C106.204 39.8623 108.661 39.2679 108.976 39.1398C109.641 38.8684 108.52 38.9391 110.909 38.5245C111.047 38.5008 110.607 38.6646 111.133 38.5698C113.732 38.0999 116.392 37.598 119.036 37.1045C120.642 36.8048 122.243 36.5079 123.819 36.223C124.393 36.1195 123.886 36.3042 124.22 36.245C127.699 35.6282 126.446 35.724 128.34 35.1961C127.927 35.4921 128.989 35.4191 131.626 34.9126C133.212 34.6083 132.932 34.5677 133.953 34.3048C134.259 34.2259 135.386 34.0743 135.586 33.9915C136.246 33.7195 135.179 33.7617 137.902 33.304C138.022 33.2841 137.647 33.4354 138.06 33.3611C140.726 32.8815 141.035 32.6705 143.914 32.1018C146.171 31.6561 150.193 30.9823 152.765 30.5091C152.727 30.7594 155.151 30.2435 156.125 29.8914C157.794 29.582 159.596 29.2318 161.21 28.9501C161.766 28.8531 161.406 28.9915 161.476 28.9858C162.557 28.901 163.272 28.6032 163.632 28.529C167.532 27.7319 170.72 27.2569 174.438 26.4408C174.57 26.4118 174.774 26.2048 175.778 26.1406C175.843 26.1369 174.617 26.4427 176.37 26.1212C178.123 25.7996 181.433 25.2734 183.862 24.7445C184.45 24.6165 185.932 24.2047 187.134 24.0892C187.294 24.0741 187.123 24.1542 187.354 24.1383C188.103 24.0856 188.498 23.8418 189.381 23.8237C190.263 23.8055 192.087 23.5771 194.536 23.0265C194.614 23.0093 195.187 22.7686 195.959 22.6288C197.191 22.4058 198.942 22.1127 200.229 21.8762C200.845 21.7629 200.446 21.7521 200.553 21.731C204.692 20.9264 207.645 20.463 212.086 19.6906C212.899 19.5491 215.231 19.0127 216.811 18.8182C218.547 18.6045 216.793 19.3321 220.762 18.5197C222.364 18.1927 224.365 17.3105 227.262 17.0639C229.408 16.6547 231.494 16.2879 233.567 15.9299C236.888 15.356 240.176 14.8061 243.624 14.1423C243.876 14.0938 244.666 13.8095 245.258 13.7077C246.138 13.5569 246.625 13.54 247.253 13.4347C248.221 13.2731 249.159 13.1063 250.084 12.9387C251.674 12.6506 253.226 12.3596 254.832 12.0872C255.796 11.9235 255.462 12.0517 256.612 11.8567C257.761 11.662 258.522 11.4376 260.081 11.2139C261.258 11.0453 262.443 11.0313 264.005 10.7858C264.051 10.6065 264.954 10.4404 266.567 10.1262C266.715 10.0973 266.87 10.0671 267.03 10.0355C267.396 9.96341 267 9.96592 267.173 9.92848C267.876 9.77469 268.531 9.71697 269.199 9.56673C269.362 9.53028 269.366 9.46558 269.499 9.43223C270.145 9.26837 271.035 9.1413 271.738 9.05727C272.263 8.99441 272.683 8.95734 272.821 8.94535C274.053 8.83786 274.624 8.66547 275.567 8.55699C276.509 8.45026 275.104 8.71159 276.204 8.56674C276.564 8.51956 276.941 8.46923 277.329 8.41691C279.394 8.07067 281.773 7.63513 283.718 7.28711C284.64 7.12176 284.006 7.15061 284.138 7.12498C286.043 6.76005 287.976 6.50254 289.024 6.14379C289.657 6.23647 289.949 6.18672 290.364 6.06597L290.304 5.9714C290.097 6.42584 289.855 7.05422 289.045 8.36052C288.924 8.55481 288.604 8.71657 289.019 7.94586C289.313 7.39898 289.762 6.67573 290.202 5.91892L290.371 6.18694C290.034 6.24757 289.693 6.31329 289.362 6.38678C289.092 6.44663 287.552 6.91892 287.341 6.96873C285.688 7.3587 285.436 7.09353 285.347 7.09245C284.342 7.08939 282.459 7.63864 281.96 7.74292C280.278 8.09508 278.779 8.35418 277.343 8.62295C276.824 8.70313 276.321 8.78471 275.821 8.87359C274.573 9.09638 274.458 9.31871 273.478 9.47041C272.837 9.57051 272.277 9.6496 271.769 9.71751C269.861 9.97213 268.671 10.0476 266.587 10.5365C266.4 10.5802 266.206 10.6272 266.005 10.6779C265.348 10.8427 266.013 10.9508 263.644 11.182C263.495 11.1965 261.734 11.3387 260.726 11.6135C260.599 11.648 260.606 11.7116 260.439 11.7459C259.316 11.9744 258.564 12.0525 257.34 12.2886C256.117 12.5248 254.646 12.8163 253.246 13.0373C252.403 13.1706 251.316 13.2389 250.911 13.2798C250.644 13.3064 250.374 13.3458 250.107 13.391C249.229 13.5396 248.387 13.7501 247.842 13.7662C247.125 13.7879 248.508 13.3888 246.639 13.6486C246.578 13.8275 246.429 14.0265 246.326 14.2137C242.237 14.9231 238.21 15.577 234.109 16.3124C233.606 16.4028 234.113 16.4011 233.598 16.498C233.592 16.4991 233.586 16.5002 233.58 16.5013C231.28 16.924 229.268 17.2179 226.884 17.6695C225.039 18.0195 223.019 18.4772 221.09 18.848C219.9 18.8691 217.039 19.4496 214.957 19.8085C214.228 19.9342 214.273 19.8745 213.754 19.9517C211.795 20.2442 212.721 20.2469 212.186 20.3705C209.892 20.9008 209.673 20.5549 206.962 21.0578C206.818 21.0843 205.074 21.6076 204.833 21.6644C203.301 22.0274 204.574 21.6401 203.611 21.8006C201.854 22.0939 200.63 22.2686 198.574 22.7059C197.974 22.8337 196.54 23.2249 195.368 23.3415C195.214 23.3569 195.294 23.2741 195.171 23.2929C192.931 23.6387 192.884 23.8608 191.611 24.1679C190.338 24.475 188.355 24.6943 187.951 24.7266C186.893 24.8125 188.753 24.5312 188.809 24.5101C189.47 24.2597 188.032 24.5476 186.931 24.7406C186.759 24.5631 185.222 24.8606 185.79 24.9415C185.855 24.9499 186.71 24.772 186.931 24.7406C185.978 25.1224 184.29 25.4616 182.411 25.6189C181.531 25.6926 182.351 25.435 179.698 25.9671C178.495 26.2087 178.969 26.2644 177.908 26.5015C175.485 27.043 172.32 27.5006 169.817 27.9915C168.909 28.1697 169.799 28.0814 169.179 28.2059C167.532 28.5366 166.074 28.7514 164.421 29.0932C164.271 29.1243 164.643 29.1368 164.128 29.2349C160.227 29.9798 156.825 30.5703 152.751 31.3425C150.783 31.7155 147.267 32.4306 145.227 32.811C141.692 33.4702 137.337 34.1847 134.32 34.7939C132.352 35.1908 132.79 35.1894 131.95 35.4073C130.33 35.8282 127.435 36.1911 127.045 36.2362C127.033 36.2375 128.725 35.8914 127.819 36.024C127.287 36.0382 127.064 36.2322 127.045 36.2362C126.789 36.2659 123.403 36.9015 122.732 37.0472C122.368 37.1264 122.577 37.1641 122.387 37.204C121.289 37.4335 120.191 37.6603 119.091 37.8846C115.662 38.5837 112.221 39.2586 108.744 39.9107C108.664 39.925 108.779 39.8148 108.589 39.8494C105.929 40.3307 104.236 40.7703 102.05 41.2638C101.727 41.3368 101.413 41.406 101.11 41.4714C99.3596 41.848 97.9324 42.0953 96.8182 42.1873C95.1669 42.5325 92.7911 42.9366 91.4238 43.1678C90.0565 43.3989 89.8788 43.6049 89.759 43.6321C87.157 44.2246 85.314 44.5678 83.1223 44.9792C82.167 45.1584 81.1459 45.3506 79.9667 45.5825C78.1198 45.9452 74.4593 46.7069 72.4619 47.1295C70.8832 47.4636 69.9284 47.6169 68.4748 47.9372C68.2781 47.9805 68.483 48.0149 68.4231 48.03C66.8058 48.4489 67.5719 48.1079 67.2339 48.1433C66.4935 48.2207 65.9244 48.284 65.132 48.4277C64.8957 48.4702 64.6399 48.5203 64.353 48.5799C64.0104 48.6515 63.6238 48.7367 63.1761 48.84C63.1099 48.8552 63.0265 48.8789 62.9296 48.9088C62.3259 49.0952 61.1999 49.5244 60.4488 49.6923C60.4302 49.6965 60.412 49.7005 60.3943 49.7044C59.3254 49.9381 59.7141 49.7664 58.545 50.0282C58.4433 50.0509 58.4692 50.1047 57.7343 50.2526C57.041 50.3923 56.3348 50.5338 55.6199 50.6768C55.1052 50.78 54.5855 50.884 54.0628 50.9885C54.0856 50.9835 54.0787 50.9853 54.0423 50.993C52.9916 51.2031 51.9284 51.4146 50.8666 51.6296C50.4184 51.7203 49.9695 51.8121 49.5208 51.9036C48.6941 52.072 47.8712 52.2407 47.058 52.4101C46.5741 52.5108 47.2022 52.4746 46.5033 52.6217C46.3733 52.649 46.2428 52.6765 46.1119 52.704C45.5191 52.8289 44.9166 52.9557 44.3084 53.0825C43.333 53.2858 42.3445 53.4901 41.36 53.6918C39.7385 54.024 38.127 54.3496 36.6016 54.6483C36.573 54.6534 36.531 54.6633 36.475 54.6776C36.4671 54.6796 36.4591 54.6817 36.451 54.6837L36.3621 54.7028C35.607 54.8128 36.0873 54.6708 35.917 54.6791C35.808 54.6846 35.6944 54.6939 35.5781 54.7062L36.2746 53.9085C36.2682 53.9903 36.263 54.0735 36.2589 54.1572L36.2536 54.3553L36.1523 54.5318C36.1229 54.5758 36.0823 54.668 36.0511 54.7666C35.9093 55.2126 35.8976 55.7593 35.9078 56.0675C35.911 56.2216 35.9133 56.3343 35.911 56.3883C35.8505 57.8588 35.7801 59.2448 35.7048 60.5897L35.6606 61.3557L34.91 61.4787C31.2631 62.1059 27.8787 62.7781 24.1082 64.266C23.7681 64.4048 23.4265 64.5524 23.0856 64.7112C22.7941 64.8178 20.5215 66.1547 20.0604 66.7218C20.04 66.7373 19.8449 66.9302 19.8293 67.0593C19.823 67.093 19.8242 67.135 19.8442 67.1893L20.2261 68.1473L19.1624 68.2888C19.1377 68.2918 19.1128 68.2951 19.0878 68.2984L19.8189 67.4625C19.8188 67.4874 19.8188 67.5125 19.819 67.5376L19.8159 68.6161L18.8187 68.3595C18.7627 68.3462 18.7186 68.3488 18.6836 68.3613C18.6553 68.3708 18.628 68.3861 18.5992 68.4087C18.5913 68.4149 18.6445 68.4189 18.6488 68.4395C18.6419 68.4769 18.6756 68.4176 18.4062 68.628C17.7659 69.1351 17.0323 71.0865 16.5434 72.6472C16.5083 72.7553 16.4611 72.8889 16.405 73.056C16.1979 73.6685 15.8908 74.685 15.7828 75.9198C15.7607 76.0251 15.6951 78.4305 15.4249 79.2942C15.3827 79.4342 15.168 79.2926 15.1244 81.1608C15.1194 81.5173 15.2107 80.8671 15.1752 81.8059C15.1425 82.7441 15.0758 83.8831 15.066 85.0484C15.0605 85.6764 15.0623 86.3127 15.0825 86.9303C15.0911 87.1848 15.1708 88.1149 15.1279 89.0345L15.1278 88.9913C15.1271 89.1905 15.1205 89.3895 15.1057 89.5813C15.0928 89.7495 15.0154 89.445 15.0209 90.0048C15.033 91.2545 15.0644 92.5289 15.0959 93.8093L14.2866 93.0858C15.7272 92.9559 17.1754 92.8252 18.599 92.7238C18.6854 92.7176 18.7599 92.7133 18.8248 92.7105L18.8597 92.7082C19.5045 92.7091 19.1782 92.8209 20.0748 92.8077C21.0615 92.7933 23.0515 92.7312 24.0902 92.6309C25.1291 92.5306 24.0121 92.4004 25.5637 92.3139C28.1124 92.1716 30.6503 92.053 33.1849 91.9436L34.0718 91.9043L34.0206 92.8C33.8181 96.2796 33.5975 99.7553 33.3935 103.24L33.3947 103.19C33.3944 103.93 33.3949 104.67 33.3963 105.411L32.5072 104.686C32.5258 104.682 32.5444 104.679 32.563 104.675C33.5621 104.488 32.7296 104.581 34.2017 104.3C34.3333 104.274 34.4673 104.249 34.6034 104.223L34.6559 104.214C39.62 103.558 47.4973 102.476 52.3662 101.925C52.8816 101.866 53.3633 101.814 53.8043 101.768C57.587 101.379 52.8287 102.092 55.719 101.755C57.1136 101.592 58.6203 101.182 58.9569 101.131C62.2448 100.628 64.5311 100.418 67.4907 99.9958C68.1018 99.9086 67.5015 99.9029 68.0216 99.8296C69.7983 99.5785 71.6661 99.3679 73.3639 99.1344C74.1255 99.0294 73.9845 98.9829 74.6854 98.8944C76.3626 98.6818 77.8458 98.5109 79.4814 98.3531C79.6305 98.3388 78.6266 98.5544 79.8674 98.3913C81.8756 98.127 84.3689 97.8529 86.6786 97.4798C87.3639 97.3688 87.389 97.2162 88.8637 97.1207C89.1731 97.1005 88.7808 97.3327 90.4955 96.9466C90.7839 96.8821 93.6647 96.2844 95.0814 96.2272C95.4551 96.2121 96.4097 96.2296 97.2338 96.0949C97.3455 96.0761 96.8967 96.0567 97.5796 95.9563C99.9867 95.6039 102.51 95.2696 104.983 94.9075C105.643 94.8107 104.658 94.8619 105.642 94.7202C105.748 94.705 105.854 94.6897 105.962 94.6743C108.611 94.2959 111.832 93.8755 114.376 93.5509C115.352 93.4266 114.678 93.5879 114.749 93.5856C115.893 93.5501 116.566 93.2933 116.945 93.2316C119.301 92.8499 121.097 92.6791 123.269 92.3581C123.868 92.2697 123.442 92.2504 123.561 92.2269C124.798 91.9874 123.878 92.2554 124.662 92.1624C126.857 91.9021 129.304 91.5557 131.523 91.2362C132.338 91.1187 131.421 91.1559 132.152 91.0515C136.482 90.4318 140.984 89.8084 145.211 89.261C146.007 89.1581 145.507 89.2986 145.674 89.2911C146.819 89.241 148.491 88.8515 148.876 88.7823C150.628 88.4675 151.309 88.4324 152.857 88.2004C154.981 87.8818 157.244 87.5499 159.56 87.2144C165.488 86.3561 171.757 85.473 176.889 84.7398C186.189 83.4101 193.406 82.4034 202.273 81.0482C202.836 80.962 202.266 80.9552 202.751 80.8798C206.226 80.3422 209.672 79.8236 213.122 79.2978C213.771 79.199 214.421 79.0967 215.073 78.9934L215.173 78.9832C217.292 78.8922 219.42 78.7968 221.558 78.686C222.073 78.6594 221.339 78.6062 222.163 78.5604C223.857 78.4658 226 78.3607 227.709 78.2926C228.543 78.2591 227.418 78.3986 228.258 78.3631C230.212 78.2801 232.31 78.1556 234.32 77.9987C235.175 77.9313 233.89 77.9333 235.001 77.8521C235.857 77.7887 236.711 77.722 237.563 77.6516C241.424 77.3278 245.281 76.9044 249.162 76.5148C251.991 76.2287 254.834 75.9531 257.707 75.7092C258.142 75.6723 258.53 75.7598 259.285 75.7097L259.303 75.7081C259.462 75.702 259.636 75.6901 259.83 75.6703C259.917 75.6133 259.916 75.5535 259.955 75.4962C263.287 75.2525 266.608 75.0227 269.924 74.8019L269.906 74.8034C270.842 74.7208 271.778 74.6386 272.714 74.5567L271.862 75.278C272.117 74.3975 272.372 73.5171 272.627 72.6368L272.633 72.6184C273.437 70.0382 274.245 67.4582 275.057 64.8749C276.087 61.5983 277.124 58.3168 278.166 55.0229C278.314 54.5574 277.968 55.3428 278.253 54.4415C279.259 51.2589 280.242 48.1316 281.265 44.9707C281.919 42.9505 282.59 40.9167 283.293 38.8461C283.471 38.3192 283.545 38.6253 284.022 37.0618C284.094 36.824 284.65 35.0432 284.905 34.1633L284.897 34.188C284.934 34.0467 284.963 33.9285 284.982 33.8436C285.001 33.7597 284.801 34.1768 285.018 33.4155C285.439 31.9417 285.87 30.4448 286.307 28.941L287.136 29.9297C285.452 30.1831 283.759 30.4338 282.078 30.6783L282.051 30.682C280.727 30.8297 279.412 30.9726 278.116 31.1101C277.403 31.1855 278.163 31.0117 277.655 31.0647C276.872 31.1465 276.073 31.2351 275.268 31.3269L273.971 31.4749L274.729 30.3255C276.424 27.7561 278.134 25.0899 279.723 22.7123C281.081 20.6766 280.713 21.5083 281.526 20.4781C281.641 20.3326 282.449 19.0517 282.559 19.0238C282.839 18.9508 282.639 19.6806 282.984 19.5295C283.058 19.4986 284.088 17.7479 283.549 18.8242C283.512 18.8996 282.763 20.1677 282.601 20.4933C282.489 20.7201 282.802 20.3742 282.555 20.8274C282.309 21.2804 281.947 21.7262 281.522 22.4673C281.096 23.208 281.379 22.9379 280.465 24.3809ZM85.2674 44.2129C83.998 44.3845 83.8343 44.7172 85.1951 44.3737C85.2609 44.3567 85.3329 44.2039 85.2674 44.2129ZM238.222 15.3511C236.561 15.5122 235.439 15.9052 236.611 15.7998C237.783 15.6944 238.728 15.3019 238.222 15.3511ZM255.369 12.2571C253.43 12.4889 253.147 12.9627 255.213 12.5186C255.333 12.493 255.482 12.2435 255.369 12.2571ZM278.308 25.575C278.322 25.5615 278.917 24.6485 278.927 24.6247C279.165 24.0923 277.976 25.9175 278.308 25.575ZM272.387 9.23579C272.23 9.24714 271.996 9.27971 271.75 9.32118C271.048 9.43937 270.241 9.62651 270.799 9.58465C271.024 9.56776 271.405 9.50745 271.756 9.44122C272.351 9.32889 272.862 9.20188 272.387 9.23579ZM25.3283 63.0278C25.3063 63.0289 24.5926 63.2814 24.6125 63.3019C24.68 63.3564 25.6675 62.9856 25.3283 63.0278ZM284.422 16.0181C286.718 12.0969 288.396 9.8659 285.877 14.1265C285.421 14.8981 286.754 12.409 286.154 13.3813C285.058 15.1607 284.546 16.4532 283.378 18.2436C283.166 18.5676 284.291 16.2414 284.426 16.0109C284.425 16.0133 284.424 16.0157 284.422 16.0181ZM84.5128 44.0033C84.4873 44.0044 83.4732 44.2034 83.4491 44.2121C82.9073 44.4157 84.9503 44.0149 84.5128 44.0033ZM21.8379 93.5306C21.8932 93.5366 24.2456 93.436 24.3229 93.4246C25.562 93.2117 20.8063 93.4147 21.8379 93.5306ZM152.805 30.5079C153.906 30.2031 155.23 29.9407 156.12 29.8922C155.02 30.0944 153.912 30.3036 152.805 30.5079ZM159.226 34.2323C159.291 34.2324 159.319 34.1769 159.286 34.1568C159.276 34.1498 159.248 34.1088 159.239 34.1034C159.22 34.0936 159.227 34.1203 159.2 34.1133C159.191 34.111 159.145 34.0467 159.136 34.0459C159.089 34.043 159.072 34.0848 159.029 34.1071C159.027 34.109 159.024 34.1107 159.022 34.1123C158.517 34.4397 158.294 34.4277 158 34.5133C157.907 34.5342 157.786 34.4974 157.703 34.5579C157.694 34.565 157.714 34.6336 157.713 34.64C157.699 34.7392 157.682 34.5933 157.658 34.5807C157.563 34.5312 157.474 34.5512 157.402 34.6008C157.372 34.6222 157.428 34.7542 157.382 34.6843C157.379 34.6796 157.374 34.6016 157.364 34.5961C157.341 34.5837 157.305 34.6082 157.289 34.6066C157.257 34.6031 157.252 34.6052 157.224 34.6123C157.185 34.6213 157.133 34.5961 157.094 34.6246C157.086 34.6309 157.109 34.7057 157.097 34.7227C157.085 34.7398 157.047 34.7433 157.032 34.7283C157.016 34.7133 157.013 34.6505 157.008 34.637C156.973 34.5233 156.954 34.699 156.949 34.7046C156.858 34.8006 156.758 34.7291 156.665 34.7534C156.593 34.772 156.522 34.8222 156.453 34.835C156.417 34.8416 156.382 34.8403 156.348 34.839C156.306 34.8376 156.264 34.8365 156.222 34.8513C156.214 34.854 156.236 34.9437 156.226 34.9472C156.121 34.9847 156.016 35.0011 155.904 34.9662C155.893 34.9626 155.895 34.8785 155.883 34.8701C155.811 34.8203 155.683 34.6899 155.704 35.0494C155.661 35.0475 155.61 35.0477 155.562 34.9889C155.53 34.9512 155.535 34.8577 155.514 34.9037C155.51 34.9139 155.533 34.9868 155.525 34.9964C155.504 35.023 155.477 35.0274 155.457 35.0417C155.444 35.0498 155.432 35.0608 155.423 35.0787C155.417 35.0897 155.438 35.155 155.439 35.1677C155.448 35.2708 155.374 35.1239 155.363 35.1154C155.287 35.0507 155.26 35.1011 155.213 35.1207C155.202 35.1253 155.246 35.2054 155.237 35.2127C155.235 35.2143 155.233 35.2158 155.231 35.2173L155.064 34.356C155.126 34.3349 155.189 34.3339 155.251 34.3645C155.265 34.3718 155.255 34.4544 155.262 34.462C155.293 34.4947 155.294 34.3414 155.323 34.3698C155.33 34.3756 155.329 34.4451 155.33 34.4525C155.352 34.5687 155.36 34.3978 155.364 34.3934C155.418 34.3337 155.459 34.504 155.512 34.4705C155.518 34.4664 155.5 34.3814 155.518 34.375C155.637 34.3317 155.764 34.3354 155.885 34.3863C155.904 34.3941 155.893 34.4617 155.894 34.4696C155.918 34.5929 155.924 34.4217 155.93 34.4144C155.975 34.3609 156.025 34.4958 156.049 34.289C156.252 34.3269 156.447 34.1817 156.653 34.3304C156.655 34.3321 156.654 34.4162 156.659 34.4192C156.721 34.4563 156.705 34.3286 156.739 34.1637C156.748 34.1223 156.786 34.3087 156.789 34.3222C156.801 34.3723 156.795 34.498 156.799 34.5074C156.829 34.5816 156.81 34.1723 156.847 34.1662C156.848 34.1667 156.846 34.2429 156.849 34.2499C156.86 34.2719 156.868 34.2404 156.879 34.2649C156.902 34.3215 156.918 34.5195 156.946 34.3983C156.95 34.3826 156.935 34.151 156.968 34.1567C156.982 34.1591 157.04 34.1458 157.057 34.1582C157.074 34.1706 157.065 34.2474 157.067 34.2505C157.114 34.3425 157.099 34.3863 157.127 34.5295C157.154 34.6721 157.135 34.3244 157.143 34.2841C157.15 34.2438 157.186 34.3204 157.195 34.3476C157.204 34.3747 157.196 34.424 157.203 34.4389C157.254 34.5366 157.217 34.2626 157.231 34.2048C157.262 34.0679 157.3 34.3219 157.334 34.3419C157.343 34.3473 157.334 34.2896 157.342 34.2828C157.373 34.2567 157.395 34.3343 157.428 34.2546C157.434 34.2415 157.457 34.0814 157.48 34.1925C157.483 34.2085 157.478 34.2741 157.492 34.2864C157.513 34.3048 157.55 34.3131 157.571 34.288C157.587 34.2695 157.564 34.1663 157.586 34.1961C157.595 34.2093 157.581 34.2741 157.599 34.2939C157.616 34.3137 157.659 34.3041 157.675 34.2993C157.691 34.2945 157.679 34.2154 157.681 34.2098C157.687 34.1774 157.717 34.1336 157.72 34.1332C157.859 34.1011 157.992 34.2162 158.126 34.1495C158.137 34.1444 158.127 34.0606 158.128 34.059C158.163 34.0175 158.143 34.248 158.171 34.3195C158.161 34.1477 158.177 34.1765 158.202 34.1535C158.214 34.1423 158.205 34.0766 158.206 34.0696C158.22 33.9653 158.238 34.0942 158.242 34.1204C158.258 34.217 158.267 34.0985 158.278 34.163C158.288 34.227 158.273 34.327 158.298 34.3218C158.302 34.259 158.278 34.1007 158.296 34.0715C158.363 33.9614 158.499 34.0668 158.556 34.0708C158.613 34.0749 158.631 34.0606 158.665 34.0776C158.726 34.1084 158.699 33.9922 158.734 33.9316C158.769 33.8709 158.762 34.1681 158.77 34.2305C158.778 34.2929 158.781 34.2269 158.789 34.2606C158.797 34.2943 158.784 34.3396 158.8 34.3502C158.816 34.3608 158.853 34.2416 158.856 34.1745C158.862 34.0326 158.838 33.8885 158.88 33.9337C158.883 33.9364 158.878 34.015 158.887 34.0214C158.96 34.0696 159.034 34.0615 159.106 34.1029C159.116 34.1087 159.111 34.1962 159.117 34.2006C159.177 34.2462 159.151 34.1044 159.177 33.938C159.178 34.1537 159.201 34.2822 159.245 34.2763C159.272 34.2728 159.264 34.1798 159.279 34.111C159.284 34.0902 159.305 34.1515 159.307 34.1069C159.313 33.961 159.289 33.8026 159.337 33.8594C159.339 33.8621 159.336 33.942 159.343 33.9457C159.389 33.9697 159.389 33.8182 159.437 33.7921C159.475 33.7716 159.546 33.8526 159.59 33.8606C159.598 34.102 159.637 34.0402 159.648 33.8711C159.676 33.8734 159.707 33.8591 159.735 33.8778C159.744 33.8841 159.741 33.9549 159.742 33.9623C159.765 34.0778 159.771 33.914 159.777 33.9066C159.822 33.8558 159.864 33.8972 159.906 33.8809L159.771 34.1084C159.76 34.0922 159.739 34.0812 159.698 34.0743C159.693 34.074 159.532 34.1407 159.641 34.0655C159.649 34.0614 159.729 34.0563 159.724 34.0166C159.719 33.9697 159.788 33.8876 159.739 33.8004C159.722 33.7859 159.636 33.6606 159.752 33.6731C159.767 33.6761 159.801 33.7063 159.826 33.7153C159.9 33.7502 159.789 33.6348 159.901 33.7145C160.012 33.796 160.071 33.8788 160.052 33.7776C160.051 33.7749 159.999 33.6566 160.013 33.6507C160.035 33.6415 160.072 33.6517 160.093 33.6406C160.102 33.6354 160.067 33.5634 160.068 33.5612C160.123 33.4843 160.197 33.5312 160.277 33.533C160.292 33.5335 160.302 33.4113 160.351 33.4862C160.399 33.5619 160.461 33.9034 160.501 33.8698L161.913 33.4402L160.515 33.1231C160.511 33.124 160.505 33.1278 160.497 33.135C160.46 33.1698 160.287 33.6842 160.313 33.4073C160.204 33.4594 160.157 33.308 160.039 33.3885C160.034 33.3921 159.982 33.535 159.973 33.5315C159.959 33.526 159.97 33.4569 159.961 33.4508C159.924 33.4235 159.869 33.4751 159.83 33.4595C159.815 33.4537 159.839 33.3844 159.822 33.3775C159.804 33.3706 159.767 33.4609 159.753 33.4123C159.743 33.3752 159.775 33.1834 159.756 33.1574C159.704 33.3433 159.688 33.3367 159.644 33.3808C159.635 33.3893 159.624 33.4551 159.619 33.4625C159.599 33.4941 159.602 33.4387 159.582 33.4733C159.577 33.4816 159.559 33.5451 159.554 33.5555C159.511 33.6461 159.519 33.4982 159.52 33.4725C159.526 33.3748 159.494 33.4559 159.489 33.4162C159.484 33.3765 159.519 33.3337 159.507 33.3082C159.483 33.2555 159.433 33.2581 159.396 33.2491C159.381 33.2459 159.368 33.3324 159.366 33.3339C159.329 33.3504 159.322 33.2551 159.259 33.4213C159.356 32.9809 159.229 33.4607 159.208 33.366C159.206 33.3584 159.258 33.1511 159.279 33.1229C159.301 33.0948 159.304 33.1626 159.335 33.1184C159.343 33.108 159.42 32.9184 159.427 32.9073C159.479 32.82 159.399 33.1293 159.396 33.1465C159.363 33.3321 159.45 33.1285 159.462 33.1154C159.517 33.0554 159.537 33.1039 159.581 33.0618C159.609 33.0346 159.666 32.8327 159.68 32.8415C159.728 32.8705 159.67 33.1556 159.786 32.919C159.811 32.8686 159.86 32.6458 159.852 32.8258C159.851 32.8372 159.837 33.0008 159.881 32.9029C159.886 32.8905 159.903 32.8261 159.908 32.8211C159.935 32.7891 159.934 32.8424 159.96 32.821C159.987 32.7996 160.021 32.7669 160.038 32.7924C160.048 32.8077 160.033 32.9305 160.032 32.961C160.027 33.0486 160.085 32.913 160.069 33.0174C160.052 33.1223 159.987 33.2751 160 33.3466C160.046 33.1794 160.095 33.008 160.142 32.84C160.207 32.8566 160.258 32.9213 160.327 32.9247C160.336 32.925 160.352 32.8336 160.361 32.8316C160.403 32.8233 160.418 32.8927 160.464 32.8735C160.5 32.8582 160.558 32.7683 160.596 32.7493C160.588 32.7984 160.586 32.8315 160.588 32.8538L162.967 33.3937L160.564 34.1249C160.528 34.0736 160.507 34.1156 160.482 34.1118C160.47 34.11 160.458 34.0615 160.446 34.0488C160.402 34.0018 160.459 34.1555 160.458 34.1834C160.458 34.3018 160.353 33.9447 160.318 33.9696C160.316 33.9708 160.353 34.1692 160.356 34.1816C160.365 34.265 160.331 34.1175 160.316 34.1086C160.289 34.0918 160.257 34.0553 160.263 34.1168C160.263 34.1357 160.309 34.2493 160.267 34.1657C160.261 34.1549 160.231 34.0977 160.229 34.0946C160.191 34.044 160.295 34.2177 160.352 34.2597C160.411 34.3008 160.372 34.1451 160.346 34.1112C160.286 34.0214 160.296 34.1029 160.288 34.0955C160.193 34.0213 160.223 34.0209 160.232 33.9907C160.07 33.8805 160.082 33.8811 160.24 33.9592C160.256 33.9694 160.227 33.9825 160.232 33.9907C160.406 34.0877 160.505 33.9361 160.321 33.8647C160.235 33.8419 160.131 33.8564 160.169 33.8359C160.185 33.8286 160.327 33.7923 160.363 33.7706C160.43 33.7275 160.358 33.7644 160.35 33.7956L160.518 34.5146L159.929 34.5091C159.92 34.5061 159.912 34.506 159.904 34.5112C159.889 34.5213 159.907 34.5972 159.897 34.6068C159.87 34.6325 159.843 34.5777 159.816 34.6123C159.813 34.6156 159.823 34.6965 159.814 34.699C159.748 34.7191 159.689 34.6758 159.62 34.6854C159.587 34.6901 159.529 34.7449 159.494 34.7413C159.433 34.7356 159.355 34.6282 159.305 34.6654C159.273 34.6893 159.283 34.7701 159.271 34.8282C159.247 34.941 159.191 34.7548 159.184 34.7258C159.183 34.7249 159.211 34.7009 159.194 34.6613C159.182 34.575 159.184 34.7254 159.184 34.7258C159.179 34.7071 159.121 34.6977 159.11 34.7152C159.104 34.7247 159.11 34.8019 159.107 34.8054C159.033 34.8872 158.957 34.9193 158.878 34.8954C158.877 34.894 158.875 34.8068 158.872 34.8047C158.826 34.7733 158.801 34.8842 158.766 34.9533C158.731 35.0223 158.701 35.0059 158.674 34.8603C158.646 34.8835 158.604 34.824 158.579 34.7877C158.555 34.7514 158.558 34.9211 158.556 34.9247C158.496 35.0419 158.456 34.951 158.39 34.9465C158.358 34.9441 158.297 34.9785 158.264 35.0025C158.238 35.0217 158.22 34.9846 158.196 35.0139C158.193 35.0178 158.199 35.0926 158.198 35.0957C158.174 35.1902 158.181 35.004 158.174 34.972C158.149 34.8557 158.133 34.7941 158.1 34.856C158.093 34.8702 158.079 35.1391 158.065 35.1569C158.046 35.1797 158.05 35.0835 158.031 35.1098C158.029 35.1119 158.031 35.1705 158.019 35.1699C157.961 35.1679 157.896 35.1439 157.836 35.1595C157.828 35.1613 157.842 35.2526 157.831 35.2569C157.775 35.2769 157.714 35.2832 157.658 35.2484C157.645 35.2395 157.651 35.173 157.647 35.1542C157.625 35.0401 157.606 35.2141 157.602 35.218C157.506 35.3155 157.424 35.1739 157.326 35.2634C157.32 35.2686 157.285 35.4575 157.26 35.3043C157.258 35.2941 157.234 35.1373 157.221 35.2492C157.22 35.2562 157.235 35.3367 157.214 35.3315C157.194 35.3264 157.163 35.3866 157.132 35.3007C157.122 35.2736 157.095 35.1175 157.073 35.2489C157.072 35.258 157.042 35.552 157.02 35.356C157.016 35.3237 157.011 35.1135 156.984 35.2261C156.978 35.248 156.991 35.293 156.976 35.3248C156.954 35.3737 156.919 35.3227 156.893 35.421C156.888 35.4384 156.871 35.5844 156.85 35.4791C156.846 35.4626 156.849 35.3917 156.839 35.3854C156.793 35.3549 156.748 35.4093 156.701 35.3681C156.684 35.3536 156.688 35.2391 156.67 35.2114C156.652 35.1837 156.618 35.16 156.602 35.2145C156.586 35.2691 156.612 35.4466 156.587 35.4652C156.475 35.5463 156.358 35.4585 156.243 35.4613C156.226 35.4617 156.243 35.5241 156.218 35.5293C156.126 35.5488 155.97 35.6348 155.885 35.5104C155.817 35.4107 155.894 35.3141 155.844 35.2772C155.819 35.2596 155.802 35.4736 155.796 35.4811C155.743 35.5571 155.701 35.4703 155.652 35.5069C155.642 35.5144 155.655 35.5979 155.647 35.6034C155.617 35.623 155.584 35.59 155.556 35.6016C155.543 35.607 155.548 35.6716 155.536 35.6684C155.507 35.6617 155.481 35.6384 155.451 35.582C155.448 35.5768 155.462 35.4933 155.441 35.4937C155.407 35.4945 155.363 35.4411 155.326 35.5094C155.315 35.5299 155.32 35.6785 155.292 35.58C155.286 35.5594 155.286 35.38 155.262 35.5387C155.259 35.5651 155.218 35.7807 155.189 35.6506C155.181 35.6164 155.16 35.473 155.146 35.4982C155.145 35.5022 155.155 35.5807 155.144 35.5903C155.133 35.5991 155.122 35.6055 155.111 35.6106L154.816 34.0784C154.848 34.0532 154.885 34.0359 154.916 34.0029C154.927 33.9906 154.882 33.9236 154.9 33.9076C154.95 33.8634 155.028 33.8534 155.089 33.8564C155.112 33.8576 155.115 33.9274 155.119 33.9338C155.172 34.0387 155.145 33.8798 155.15 33.8677C155.151 33.8661 155.152 33.8645 155.153 33.8629C155.201 33.7933 155.257 33.8495 155.298 33.8158C155.309 33.8065 155.285 33.7344 155.287 33.7269C155.3 33.653 155.307 33.7941 155.327 33.8037C155.38 33.8315 155.426 33.8113 155.467 33.7895C155.482 33.7813 155.45 33.6986 155.463 33.6922C155.544 33.6533 155.627 33.6396 155.709 33.6686C155.724 33.6742 155.725 33.7446 155.73 33.7594C155.765 33.8628 155.774 33.7068 155.779 33.6909C155.8 33.6184 155.821 33.6755 155.846 33.6574C155.947 33.5841 156.074 33.571 156.184 33.5658C156.208 33.5646 156.232 33.5639 156.254 33.5629C156.414 33.5556 156.541 33.5904 156.683 33.5359C156.692 33.5325 156.671 33.4443 156.678 33.4402C156.777 33.3918 156.881 33.4007 156.977 33.3471C156.985 33.3428 156.96 33.2606 156.972 33.2509C156.997 33.2305 157.031 33.2257 157.062 33.2454C157.077 33.2549 157.072 33.3331 157.087 33.3411C157.122 33.3597 157.156 33.3564 157.185 33.3335C157.197 33.3236 157.162 33.2424 157.179 33.2364C157.295 33.1933 157.402 33.1445 157.538 33.2184C157.547 33.2235 157.592 33.3957 157.601 33.3566C157.591 33.3078 157.579 33.2509 157.568 33.199C157.718 33.1177 157.885 33.1179 157.99 33.0737C157.994 33.072 157.952 32.9894 157.959 32.986C158.002 32.9662 158.007 32.927 158.027 33.0277C158.029 33.0382 158.135 33.1584 158.111 33.1474C158.111 33.1471 158.109 33.1468 158.107 33.1465C158.111 33.1303 158.122 33.0918 158.11 33.0632C158.108 33.0581 158.05 33.0102 158.061 32.997C158.122 32.922 158.221 32.8502 158.364 32.7985C158.387 32.7905 158.412 32.872 158.429 32.8673C158.539 32.8367 158.646 32.6998 158.796 32.7217C158.891 32.7398 158.892 32.8908 158.952 33.0187C158.96 33.0368 158.997 33.0301 159.008 33.1122C159.036 33.3184 159.057 33.5463 159.089 33.7655C159.095 33.8128 159.09 33.7613 159.102 33.8766C159.102 33.8844 159.11 33.9217 159.119 33.9596C159.124 33.9857 159.135 34.0694 159.145 34.1022C159.156 34.1346 159.147 34.0645 159.163 34.1011C159.181 34.1377 159.2 34.231 159.226 34.2323ZM158.468 34.6255C158.444 34.5477 158.452 34.8458 158.472 34.7709C158.473 34.7669 158.47 34.6293 158.468 34.6255ZM160.197 33.1458C160.189 33.2815 160.259 33.0914 160.268 32.9869C160.276 32.8825 160.2 33.1047 160.197 33.1458ZM159.892 33.1967C159.895 33.3053 160.015 32.8839 159.958 32.9638C159.954 32.9683 159.892 33.1904 159.892 33.1967ZM158.824 33.1121C158.826 33.1154 158.85 33.1077 158.85 33.1039C158.834 33.0108 158.778 33.0291 158.824 33.1121ZM159.586 33.2564C159.581 33.3151 159.627 33.2537 159.634 33.1807C159.64 33.122 159.593 33.1834 159.586 33.2564ZM157.341 34.487C157.34 34.4826 157.327 34.4806 157.329 34.5057C157.332 34.5862 157.349 34.5607 157.341 34.487ZM159.114 33.1852C159.179 33.2124 159.127 33.568 159.062 33.5164C159.05 33.507 159.122 33.4099 159.113 33.3757C159.096 33.3132 159.016 33.5288 159.015 33.4062C159.015 33.3837 159.11 33.1829 159.114 33.1848C159.114 33.1849 159.114 33.1851 159.114 33.1852ZM158.443 34.2701C158.442 34.2663 158.425 34.2653 158.425 34.2693C158.419 34.3652 158.454 34.3672 158.443 34.2701ZM156.61 34.4192C156.609 34.4109 156.568 34.4095 156.567 34.4174C156.552 34.5752 156.634 34.5786 156.61 34.4192ZM159.591 33.8669C159.606 33.7689 159.628 33.7541 159.648 33.871C159.629 33.8677 159.61 33.8698 159.591 33.8669Z" fill="#00A0BA"/>
</g>
<path d="M246.31 36.5586C246.318 39.7367 246.14 43.9149 245.949 47.0851C245.889 48.0789 245.832 47.5827 245.787 48.2687C245.698 49.6103 245.68 50.8542 245.583 52.1788C245.551 52.6178 245.451 52.082 245.419 52.5421C245.249 55.063 245.171 57.4388 245.045 59.9836C244.896 62.9968 244.779 65.992 244.721 68.9744L244.721 68.936C244.756 70.8087 244.793 72.6796 244.831 74.5506L244.861 75.5107L243.894 75.6528C242.03 75.9048 240.164 76.1579 238.297 76.4121L239.201 75.3808C239.194 75.9205 239.186 76.4573 239.183 76.9906C239.181 77.2626 239.18 77.5347 239.18 77.8069L239.179 77.7835C239.221 79.6281 239.264 81.4757 239.308 83.3281L239.337 84.2076L238.451 84.3462C236.511 84.6301 234.566 84.9152 232.613 85.2014L232.591 85.2044C231.503 85.3358 230.412 85.4734 229.318 85.616C225.187 86.1518 220.157 86.8034 215.886 87.5258C215.388 87.6101 215.689 87.6734 215.594 87.6974C214.111 88.0704 214.598 87.7705 213.625 87.8944C209.763 88.3877 205.47 89.0601 201.752 89.6597C200.171 89.9143 201.763 89.8972 200.166 90.0104C200.055 90.0184 200.454 89.8423 200.02 89.8937C199.035 90.0113 197.168 90.2996 196.405 90.3958C194.934 90.5811 194.691 90.6152 193.299 90.7977C191.397 91.0451 189.134 91.2647 187.092 91.5155C186.67 91.5676 187.196 91.6232 186.6 91.7139C186.58 91.7169 186.559 91.72 186.536 91.723C185.842 91.8187 184.006 92.0063 183.387 92.0442C182.768 92.0822 183.033 91.9592 182.924 91.9492C182.025 91.8627 179.897 92.343 179.624 92.3782C174.639 93.0148 170.368 93.3161 165.691 93.7976C162.14 94.1633 158.342 94.5962 154.964 94.9283C150.939 95.3233 147.529 95.5953 143.619 95.9888C143.207 96.0302 143.687 96.1248 143.183 96.1756C142.168 96.2777 141.155 96.3783 140.143 96.4769C135.813 96.8991 131.502 97.2865 127.183 97.6167C126.648 97.6574 127.341 97.4678 126.807 97.501C123.54 97.7077 118.374 97.9431 116.415 98.6647C114.201 98.8483 111.513 99.0732 109.535 99.1445C108.259 99.1906 109.504 98.9418 107.933 99.1426C107.579 99.1877 108.035 99.2648 107.504 99.3234C105.268 99.5702 102.828 99.7521 100.615 100.012C100.165 100.065 100.284 100.161 100.156 100.192C99.0804 100.443 97.3063 100.346 96.9183 100.362C95.7444 100.411 94.6956 100.48 93.6848 100.56C92.1516 100.681 90.7061 100.828 89.0449 100.973C88.4052 101.028 89.1565 101.105 88.5408 101.163C85.3478 101.465 82.0414 101.742 78.918 101.95C78.2232 101.996 78.8669 101.818 78.5351 101.834C77.0722 101.904 76.7393 102.163 75.3361 102.235C75.0403 102.25 75.2109 102.131 75.1572 102.124C74.3181 102.018 73.5743 102.336 73.3566 102.36C70.6026 102.674 68.8538 102.559 66.1948 102.824C65.8767 102.856 66.5888 102.927 65.6948 103.008C59.7393 103.553 53.4436 104.049 47.5544 104.436C47.4171 104.445 47.3152 104.45 47.241 104.45C46.82 104.454 47.2881 104.342 47.2395 104.335C46.3071 104.223 45.6892 104.53 45.3901 104.564C43.0304 104.831 40.8371 104.799 39.2238 105.237C37.6337 105.352 36.0445 105.474 34.4563 105.6L34.4907 105.596C33.8019 105.698 33.1134 105.8 32.425 105.903L31.925 105.981L31.9081 105.474C31.889 104.743 31.8693 104.011 31.8492 103.28L31.8494 103.246C31.9478 100.765 32.0446 98.2863 32.1472 95.8101L32.622 96.2727C28.1306 96.6114 23.6486 96.9244 19.1783 97.1438C19.0526 97.1503 19.2838 97.0068 19.0331 97.0202C16.2744 97.167 16.5132 97.3063 15.0415 97.6288L15.0738 97.6253C14.9358 97.6646 14.7825 97.7066 14.61 97.7516C14.2874 97.8356 13.5391 97.8366 13.0075 97.8259L12.5048 97.8996L12.5959 97.3857C12.6975 97.0882 12.7808 96.8591 12.7972 96.8102C12.9646 96.3143 13.0522 96.8461 13.0975 96.6793C13.3019 95.9141 13.195 95.6302 13.1173 95.2102L13.1213 95.1914C13.0812 94.8476 13.0654 94.4166 13.2699 93.5874C13.2853 93.5293 13.3344 93.7885 13.3838 93.6339C13.5377 93.1533 13.6129 92.6663 13.7678 92.1967C14.1232 91.1219 14.5076 90.7741 14.7493 89.0916C14.7794 88.8786 14.3629 89.1536 14.7891 87.4946C14.8511 87.2536 14.9858 86.7113 15.1429 86.0795C15.4169 84.9772 15.7591 83.6028 15.9019 83.0824C16.1263 82.2647 16.0959 82.8429 16.1151 82.785C16.8047 80.5935 16.6572 81.44 17.1435 80.3611C17.629 79.2823 17.0477 79.5208 17.1028 79.0616C17.1582 78.6017 17.6772 76.9967 17.8168 76.6039C17.9564 76.2114 17.9028 76.7173 18.0136 76.3665C18.746 74.0397 18.0172 75.302 18.1281 74.5176C18.2908 73.3634 18.6347 72.3961 18.9795 71.4274C19.1873 70.844 19.3953 70.26 19.5643 69.6344C19.6859 69.184 19.5094 69.541 19.6009 69.1377C19.9644 67.5405 20.3183 66.5983 20.6593 64.7714C20.7151 64.4725 20.8521 62.9767 21.252 62.0508C21.3091 61.9198 21.3081 62.3141 21.4969 61.638C21.5861 61.3187 21.6944 60.9181 21.8082 60.4848C21.9293 60.031 22.0927 59.5481 22.3455 59.1013C22.4162 58.9795 22.4928 58.8599 22.592 58.7463L22.5479 58.8332C22.5636 58.7569 22.579 58.6816 22.594 58.6075L22.6213 58.4743L22.7549 58.4571C23.0026 58.4247 23.2367 58.3923 23.4469 58.3611L23.4253 58.3651C23.4627 58.3549 23.4996 58.3454 23.5359 58.3366C23.5747 58.3272 23.6099 58.3191 23.6417 58.3118C24.2589 58.1691 23.4623 58.1653 24.424 58.0439C24.8719 57.9875 24.0487 58.2258 24.8899 58.1121C25.5487 58.0231 27.0123 57.7699 28.0014 57.5958C28.2685 57.5487 28.5011 57.5073 28.6738 57.4764C29.4845 57.3311 29.0344 57.2883 29.0995 57.2687C29.3656 57.1905 30.1599 57.0143 30.6906 56.9013C30.9462 56.8468 31.1405 56.807 31.1852 56.7993C31.5728 56.7312 31.9584 56.6644 32.3423 56.5979C33.3964 56.4157 34.439 56.241 35.4735 56.0707C35.8851 56.0029 36.2959 55.935 36.7059 55.8682C37.682 55.7091 38.6518 55.5547 39.6177 55.4007C39.6209 55.4002 39.6271 55.3991 39.6366 55.3976C40.1121 55.3217 40.5872 55.2459 41.0617 55.1701C42.522 54.9377 43.9772 54.7052 45.437 54.468C46.2166 54.3397 46.9978 54.2117 47.7813 54.0801C48.216 54.007 48.6514 53.9334 49.0877 53.858C49.3249 53.8174 49.5624 53.7761 49.8006 53.7349C50.2933 53.6491 50.7878 53.5618 51.2842 53.4727C51.8142 53.3779 51.4552 53.3105 51.536 53.2947C53.3487 52.9343 51.9331 53.5146 53.2063 53.4134C53.0112 53.1863 53.7619 53.1064 55.0392 52.8625C55.6548 52.7448 55.3146 52.7014 55.3704 52.6817C56.2773 52.3759 56.9225 52.465 57.0882 52.4776C57.6999 52.5234 58.3507 52.2385 58.767 52.2681C59.1829 52.297 58.2422 52.6009 59.4684 52.3935C59.8082 52.2434 58.887 52.1544 59.8163 51.9593C61.507 51.6041 63.9089 51.2102 66.2602 50.8491C68.7854 50.4607 71.252 50.1099 72.7154 49.8793C75.5356 49.435 76.4456 49.2692 78.0898 49.0337C81.0599 48.6093 79.9652 48.6076 81.8047 48.2252C82.2573 48.1312 82.5459 48.0957 82.7276 48.0964C83.2866 48.0984 82.8347 48.4425 83.038 48.4816C83.3025 48.534 83.5834 48.3901 83.9099 48.3896C84.2352 48.3892 83.5378 48.5674 84.299 48.4635C85.0606 48.3595 87.1343 47.854 87.4002 47.7112C87.9623 47.4089 87.0163 47.3396 89.0328 47.0921C89.1487 47.078 88.7774 47.2547 89.2212 47.1949C92.5081 46.7485 95.9113 46.2133 99.2102 45.7531C99.4493 45.7198 99.6879 45.6868 99.9259 45.6543C100.41 45.5883 99.9821 45.7863 100.264 45.7494C103.199 45.3654 102.143 45.3145 103.741 44.8172C103.392 45.1966 104.288 45.2521 106.513 44.9015C107.85 44.6909 107.615 44.5868 108.477 44.3508C108.736 44.2798 109.685 44.2268 109.855 44.1336C110.413 43.8281 109.513 43.7267 111.81 43.4611C111.911 43.4498 111.595 43.6187 111.943 43.571C114.193 43.2636 114.454 42.995 116.884 42.586C118.788 42.2653 122.181 41.873 124.351 41.5576C124.317 41.9268 126.363 41.5247 127.186 41.1459C128.594 40.9372 130.114 40.6873 131.476 40.5111C131.945 40.4504 131.641 40.6029 131.7 40.6051C132.611 40.6427 133.215 40.3052 133.519 40.2488C136.81 39.6475 139.499 39.4192 142.637 38.758C142.748 38.7345 142.921 38.4551 143.767 38.5104C143.822 38.5148 142.787 38.788 144.266 38.5709C145.745 38.3537 148.537 38.0639 150.587 37.636C151.083 37.5325 152.334 37.1376 153.347 37.1448C153.482 37.1462 153.337 37.2406 153.532 37.2515C154.163 37.2847 154.498 36.9785 155.241 37.0835C155.984 37.1885 157.521 37.1191 159.588 36.6591C159.654 36.6448 160.138 36.3695 160.79 36.2751C161.829 36.1244 163.306 35.9457 164.391 35.7824C164.911 35.7041 164.575 35.6285 164.665 35.6127C168.158 35.0213 170.648 34.7639 174.393 34.2602C175.079 34.1681 177.047 33.7069 178.379 33.6472C179.841 33.5814 178.357 34.4157 181.706 33.779C183.057 33.523 184.752 32.4926 187.191 32.5447C191.903 31.7614 196.267 31.3425 200.991 30.5274C201.204 30.4908 201.872 30.1774 202.371 30.1094C203.103 30.0105 203.511 30.052 204.03 29.9879C204.037 29.987 204.045 29.986 204.053 29.985C206.273 29.7015 208.303 29.3286 210.444 29.0428C211.257 28.9341 210.974 29.0792 211.944 28.9498C212.912 28.8205 213.556 28.5917 214.87 28.4765C215.862 28.3899 216.857 28.5362 218.174 28.3875C218.201 28.2157 218.537 28.1041 219.146 27.9787C219.555 27.8949 220.085 27.8049 220.729 27.6867C221.037 27.6299 220.705 27.5781 220.851 27.5462C221.444 27.4142 221.996 27.4194 222.559 27.2874C222.697 27.2554 222.702 27.1589 222.814 27.1274C223.766 26.8557 225.342 26.8559 225.613 26.8565C226.65 26.8574 227.132 26.6673 227.926 26.6154C228.72 26.5637 227.536 26.7946 228.462 26.7029C230.198 26.5307 232.381 26.2294 234.225 25.9836C234.42 25.9575 234.611 25.9321 234.797 25.9075C235.575 25.8045 235.043 25.7479 235.154 25.7302C236.169 25.5739 237.191 25.4845 238.031 25.346C238.522 25.2568 238.95 25.152 239.277 25.0091C240.409 25.4982 240.244 24.8003 242.546 24.5877C242.728 24.5712 242.966 24.8469 242.272 24.9965C241.578 25.146 240.522 25.2068 239.56 25.4221C239.373 25.4637 238.466 25.7977 238.047 25.9415C237.944 25.9731 237.875 25.9944 237.843 26.0019C236.446 26.3259 236.243 25.8879 236.169 25.8723C235.656 25.7726 234.862 25.9298 234.226 26.0858C233.818 26.1857 233.475 26.285 233.31 26.3156C231.385 26.6739 229.748 26.83 228.138 27.1197C227.085 27.3087 226.986 27.627 226.159 27.7304C223.408 28.0748 222.442 27.7823 219.856 28.5068C219.49 28.6089 219.608 28.755 219.159 28.8466C218.928 28.8939 218.544 28.9267 217.864 28.9314C217.738 28.9322 216.256 28.8976 215.404 29.1674C215.297 29.2013 215.302 29.2977 215.161 29.3255C214.214 29.5097 213.58 29.5204 212.548 29.7013C211.516 29.8821 210.275 30.1107 209.096 30.2432C208.385 30.3231 207.47 30.2708 207.129 30.2746C206.166 30.2824 205.14 30.6365 204.542 30.5666C204.021 30.5061 204.824 30.1981 204.034 30.195C203.91 30.1945 203.746 30.2015 203.533 30.2181C203.479 30.4779 203.35 30.7551 203.261 31.0214C199.813 31.5009 196.419 31.9038 192.959 32.4124C192.53 32.4757 192.972 32.5478 192.512 32.6192C190.573 32.9198 188.876 33.0681 186.866 33.3982C185.309 33.6542 183.605 34.0457 181.978 34.3194C180.976 34.1768 178.563 34.628 176.807 34.8598C176.192 34.9411 176.231 34.8582 175.793 34.8975C174.141 35.0477 174.921 35.1881 174.469 35.2947C172.533 35.7516 172.353 35.2008 170.066 35.5539C169.945 35.5723 168.471 36.0988 168.268 36.1482C166.975 36.4654 168.05 36.0734 167.239 36.1714C165.756 36.3504 164.725 36.4306 162.989 36.7802C162.483 36.8826 161.273 37.2556 160.285 37.2555C160.155 37.2555 160.224 37.1435 160.119 37.1532C158.231 37.3374 158.19 37.6634 157.115 37.9334C156.04 38.2034 154.369 38.235 154.028 38.2229C153.137 38.1931 154.706 38.0503 154.753 38.027C155.312 37.7505 154.098 37.9667 153.17 38.0909C153.027 37.7991 151.73 38.0143 152.208 38.221C152.262 38.2432 152.983 38.1048 153.17 38.0909C152.364 38.5203 150.939 38.7754 149.356 38.7286C148.615 38.7065 149.308 38.444 147.07 38.8421C146.054 39.0227 146.453 39.1778 145.558 39.3731C143.513 39.8193 140.844 40.0265 138.732 40.3827C137.966 40.512 138.717 40.5148 138.193 40.6073C136.803 40.853 135.574 40.9537 134.179 41.2145C134.053 41.2382 134.366 41.3136 133.932 41.3822C130.64 41.9049 127.771 42.2708 124.334 42.8043C122.673 43.0621 119.706 43.5941 117.985 43.8504C115.003 44.2949 111.329 44.6939 108.783 45.1402C107.123 45.4308 107.492 45.4962 106.783 45.6927C105.415 46.0726 102.973 46.1676 102.645 46.1747C102.635 46.1747 104.063 45.9187 103.298 45.9767C102.85 45.9155 102.661 46.1715 102.645 46.1747C102.45 46.1791 100.124 46.5239 99.2436 46.6766C99.1442 46.6938 99.0633 46.7086 99.0059 46.7201C98.6983 46.7821 98.8748 46.8711 98.7144 46.9012C94.9002 47.6144 91.077 48.2581 87.203 48.8298C87.1347 48.8384 87.2324 48.6915 87.0719 48.7135C85.3477 48.9476 84.1046 49.2337 82.7842 49.533C82.3864 49.6233 81.9814 49.7147 81.5542 49.8064C79.7095 50.2021 78.2426 50.4101 77.1394 50.3656C75.7459 50.622 73.7411 50.8518 72.5872 50.9814C71.4334 51.1111 71.2833 51.3913 71.1823 51.413C69.2845 51.8233 67.8652 52.0441 66.3209 52.2688C65.2994 52.4173 64.2236 52.5676 62.9185 52.7762C61.3598 53.0246 58.2706 53.5791 56.5848 53.8909C55.2525 54.1376 54.4465 54.2137 53.2197 54.4592C53.0538 54.4924 53.2268 54.5768 53.1763 54.5898C51.8114 54.9565 52.4577 54.5693 52.1724 54.568C51.3887 54.5638 50.8322 54.5697 49.8468 54.7389C49.6322 54.7755 49.3977 54.8202 49.1348 54.8742C49.0125 54.8995 48.8832 54.927 48.7474 54.9567C48.5636 54.9968 48.2234 55.1419 47.8383 55.3022C47.375 55.495 46.8465 55.7095 46.4449 55.7906C45.8198 55.9165 45.7548 55.8734 45.5057 55.8857C45.3708 55.8925 45.1864 55.9145 44.8386 55.9858C44.7528 56.0033 44.7749 56.0879 44.1548 56.1899C43.1734 56.3517 42.1614 56.5155 41.135 56.6816C40.6631 56.7582 40.1873 56.8355 39.71 56.9132C39.7149 56.9122 39.7087 56.9133 39.6897 56.9166C38.722 57.0741 37.7477 57.2335 36.7821 57.3975C36.3708 57.4673 35.9597 57.5385 35.5501 57.6099C35.4141 57.6335 35.2786 57.6572 35.1434 57.681C34.7349 57.7525 35.2656 57.8011 34.6755 57.9068C33.9416 58.0382 33.189 58.1715 32.4292 58.3044C31.8794 58.4007 31.327 58.4952 30.7765 58.5889C29.8705 58.7431 28.9639 58.895 28.0756 59.0376C27.427 59.1416 26.7889 59.2414 26.1684 59.335C25.5034 59.4349 25.9147 59.2645 25.769 59.2608C25.0791 59.2455 24.1822 59.5246 23.7134 59.672C23.6695 59.6911 23.6279 59.7103 23.5954 59.7246L23.4469 59.7521C23.4104 59.7608 23.3819 59.767 23.3625 59.7698C23.1581 59.8 22.9556 59.8293 22.7549 59.8579L23.9525 58.7388C23.938 58.8143 23.9235 58.8897 23.909 58.9647L23.8287 59.3366L23.5761 59.619C23.5986 59.5946 23.563 59.6418 23.5316 59.7017C23.4064 59.931 23.2699 60.3187 23.1851 60.6729C22.2827 64.3805 21.3543 67.6025 20.4357 71.6255C20.4111 71.7335 20.3864 71.8421 20.3618 71.9514C20.2997 72.2285 20.0382 74.3913 19.5773 75.3094C19.5461 75.3723 19.0824 76.2796 19.0358 77.1312C19.033 77.1842 19.2968 76.6154 19.0325 77.6346C18.7681 78.6539 18.442 80.3077 17.9644 81.6932C17.8134 82.1319 17.3229 83.1506 17.18 84.5009C17.1744 84.5591 17.1339 85.4982 16.9718 86.3276C16.8888 86.7526 16.7738 87.1487 16.6153 87.3829C16.5388 87.4948 16.2651 87.3296 16.0305 88.9326C15.9861 89.2389 16.1894 88.6995 16.0352 89.5014C15.7993 90.7301 15.3187 92.3353 15.0842 93.8532C15.0542 94.0497 15.0089 94.7294 14.8333 95.4231L14.8542 95.3259C14.8084 95.5683 14.747 95.8134 14.6638 96.0421C14.6132 96.1812 14.5589 95.9069 14.4608 96.3808C14.3844 96.7495 14.3108 97.1212 14.239 97.4952L12.9769 96.1455C13.6599 96.0558 14.3497 95.9575 15.0416 95.8589L15.1224 95.8501C16.3426 95.7552 17.5694 95.6594 18.7741 95.6061C19.5734 95.5706 19.1564 95.7735 19.9887 95.7555C20.8212 95.7375 22.5005 95.6526 23.3772 95.507C24.2542 95.3614 23.3124 95.1613 24.6218 95.0388C27.3266 94.7856 30.0169 94.5904 32.705 94.4106L34.046 94.3142L33.9857 95.6586C33.8624 98.1382 33.7252 100.617 33.6085 103.101L33.609 103.015C33.6195 103.543 33.6309 104.072 33.6435 104.601C33.6556 105.111 33.6883 105.055 33.7205 105.201L32.374 104.083C32.4725 104.05 32.6589 104.006 33.1536 103.93C33.5576 103.869 33.9876 103.802 34.4385 103.733L34.5299 103.722C38.3 103.396 43.5336 102.919 47.3086 102.688C48.198 102.633 49.0065 102.593 49.6958 102.571C52.8724 102.47 48.862 102.933 51.2918 102.796C52.4643 102.73 53.7462 102.306 54.0299 102.272C56.8016 101.937 58.7199 101.915 61.2129 101.66C61.7277 101.607 61.2279 101.521 61.6659 101.478C63.1623 101.329 64.732 101.252 66.1615 101.12C66.8029 101.06 66.6883 100.972 67.278 100.929C68.689 100.825 69.9357 100.759 71.3085 100.733C71.4337 100.731 70.5835 100.926 71.6277 100.84C73.3178 100.702 75.4128 100.612 77.361 100.349C77.939 100.271 77.9696 100.044 79.2045 100.092C79.4635 100.102 79.1221 100.4 80.5751 100.042C80.8196 99.9817 83.2576 99.4556 84.4418 99.5539C84.7541 99.5798 85.5486 99.7303 86.2438 99.6347C86.3381 99.6209 85.9652 99.5333 86.5406 99.471C88.5685 99.2537 90.692 99.0792 92.7753 98.8569C93.3316 98.7972 92.5077 98.7458 93.3367 98.6609C93.4724 98.647 93.6101 98.6331 93.7495 98.6193C95.9527 98.4009 98.5928 98.1952 100.687 98.0436C101.508 97.9844 100.937 98.1389 100.996 98.1448C101.952 98.2414 102.528 97.943 102.848 97.8999C104.835 97.6346 106.342 97.6137 108.172 97.4166C108.677 97.3625 108.323 97.2772 108.424 97.2576C109.469 97.06 108.686 97.3423 109.345 97.3055C111.191 97.203 113.251 97.0047 115.12 96.8174C115.807 96.7484 115.039 96.6829 115.656 96.6225C119.302 96.2626 123.092 95.9223 126.648 95.6621C127.318 95.6133 126.893 95.7582 127.032 95.7691C127.99 95.8464 129.407 95.4835 129.732 95.4309C131.211 95.1911 131.781 95.2295 133.085 95.0877C135.32 94.8439 137.739 94.5992 140.197 94.3595C144.742 93.9165 149.422 93.4897 153.323 93.1247C161.153 92.3905 167.229 91.8678 174.699 91.0584C175.174 91.007 174.697 90.9175 175.107 90.8714C178.969 90.4407 182.787 90.0562 186.629 89.6387C188.036 89.4856 189.448 89.317 190.867 89.1306C191.299 89.0738 190.676 89.0193 191.37 88.9233C192.794 88.7253 194.599 88.493 196.041 88.3347C196.744 88.2573 195.803 88.5018 196.511 88.4213C198.16 88.2335 199.929 87.9852 201.623 87.7098C202.344 87.5922 201.252 87.6211 202.189 87.4784C208.574 86.502 214.854 85.4404 221.337 84.6334C221.782 84.5782 222.179 84.793 223.122 84.6C223.191 84.5134 223.185 84.4245 223.214 84.3386C226.342 83.8596 229.464 83.4224 232.586 83.0396L232.553 83.0442C234.499 82.7554 236.444 82.4696 238.391 82.1845L237.155 83.6534C237.111 81.8068 237.069 79.9591 237.025 78.109L237.025 78.0769C237.025 77.8031 237.026 77.5291 237.027 77.2549C237.03 76.7087 237.037 76.1659 237.044 75.6273L237.06 74.4066L238.257 74.2435C239.842 74.0251 241.43 73.805 243.022 73.5821C243.416 73.5269 242.732 73.4781 243.495 73.3704C243.614 73.3537 243.732 73.3369 243.851 73.3201L242.511 74.8979C242.46 73.0161 242.404 71.1567 242.359 69.2896L242.359 69.2368C242.392 66.8054 242.48 64.3618 242.648 61.8458C242.679 61.3901 242.923 61.6016 242.936 60.2664C242.937 60.0311 242.986 58.0182 242.954 57.5018C242.949 57.4316 242.814 57.8087 242.839 57.1595C242.985 53.3872 243.208 49.4369 243.426 45.6799C243.461 45.0735 243.562 45.7077 243.588 45.2756C243.773 42.21 243.767 38.8995 243.902 35.9792C243.989 34.0241 244.203 34.7189 244.417 33.6564C244.443 33.5295 244.445 32.655 244.518 32.3338C244.532 32.2735 244.548 32.2328 244.568 32.2203C244.716 32.1246 244.873 32.1949 245.032 32.2655C245.209 32.3441 245.389 32.4234 245.564 32.273C245.573 32.2658 245.579 32.2365 245.584 32.192C245.618 31.8641 245.563 30.717 245.726 31.5391C245.732 31.5702 245.751 31.8503 245.776 32.1667C245.803 32.5159 245.837 32.9081 245.868 33.0563C245.91 33.2533 246.036 32.8724 246.09 33.2786C246.144 33.686 246.039 34.1525 246.098 34.831C246.157 35.509 246.306 35.1902 246.31 36.5586ZM67.3919 51.5699C66.3206 51.625 66.1824 52.097 67.3308 51.7991C67.3864 51.7841 67.4471 51.5668 67.3919 51.5699ZM196.431 31.5648C195.033 31.567 194.084 31.9942 195.071 32.0055C196.058 32.0168 196.857 31.5638 196.431 31.5648ZM210.892 29.374C209.259 29.4464 209.013 30.1171 210.757 29.7445C210.859 29.7231 210.988 29.3698 210.892 29.374ZM244.441 38.4586C244.448 38.4429 244.468 37.5727 244.462 37.5526C244.328 37.105 244.288 38.8443 244.441 38.4586ZM225.244 27.2343C224.733 27.2178 223.269 27.5175 223.903 27.5378C224.414 27.554 225.879 27.2546 225.244 27.2343ZM19.786 69.6179C19.7754 69.634 19.6156 70.2558 19.655 70.2483C19.7825 70.2219 19.9637 69.3509 19.786 69.6179ZM244.617 29.3885C244.545 25.766 245.008 23.4937 245.054 27.4435C245.062 28.1588 244.846 25.9303 244.823 26.8457C244.782 28.5206 245.139 29.5753 245.008 31.2977C244.984 31.6096 244.62 29.5953 244.616 29.3822C244.616 29.3843 244.617 29.3864 244.617 29.3885ZM66.7551 51.1362C66.7438 51.1349 66.5043 51.1717 66.2755 51.2083C66.0667 51.2418 65.867 51.2751 65.8573 51.2795C65.627 51.3895 65.95 51.3745 66.2803 51.3213C66.6058 51.2688 66.9383 51.1794 66.7551 51.1362ZM21.4732 96.8449C21.5199 96.854 23.5049 96.7133 23.5702 96.6966C24.6165 96.383 20.6034 96.6668 21.4732 96.8449ZM124.385 41.5619C125.315 41.2736 126.431 41.083 127.182 41.1463C126.253 41.2811 125.319 41.4252 124.385 41.5619Z" fill="url(#paint1_linear_2103_5657)"/>
<g filter="url(#filter1_f_2103_5657)">
<path d="M68.0906 64.5551C68.1015 62.888 67.565 61.6797 66.481 60.9302C65.4079 60.1795 63.9078 59.9224 61.9807 60.159C60.6011 60.3284 59.3692 60.7003 58.2852 61.2746C57.2122 61.8366 56.3362 62.5399 55.6573 63.3845C54.9894 64.2166 54.5788 65.122 54.4255 66.1006C54.2831 66.9234 54.3543 67.6097 54.639 68.1594C54.9346 68.7078 55.3562 69.147 55.9037 69.4769C56.4621 69.7944 57.0753 70.0446 57.7432 70.2273C58.4111 70.3991 59.0572 70.5293 59.6813 70.6182L62.8348 71.0915C63.8531 71.2312 64.8878 71.4627 65.939 71.7859C66.9901 72.1092 67.9373 72.5886 68.7804 73.2242C69.6235 73.8598 70.2531 74.6981 70.6692 75.7392C71.0853 76.7803 71.1674 78.0774 70.9156 79.6308C70.5871 81.5906 69.8151 83.3898 68.5997 85.0284C67.3843 86.6669 65.7802 88.0387 63.7874 89.1439C61.7946 90.2491 59.4842 90.963 56.8563 91.2857C54.3379 91.5949 52.2191 91.4524 50.5001 90.8581C48.7919 90.2625 47.5382 89.2747 46.7389 87.8946C45.9396 86.5034 45.6549 84.7733 45.8848 82.7041L50.9928 82.077C50.8723 83.3163 51.0913 84.3098 51.6498 85.0576C52.2191 85.793 53.0185 86.2961 54.0477 86.5669C55.077 86.8266 56.2431 86.8765 57.5461 86.7165C58.9915 86.5391 60.3109 86.1509 61.5044 85.552C62.6979 84.9422 63.6834 84.1813 64.4608 83.2695C65.2382 82.3467 65.7145 81.3229 65.8897 80.1982C66.0649 79.1728 65.9226 78.3684 65.4627 77.785C65.0137 77.2003 64.3349 76.7541 63.426 76.4465C62.5282 76.1376 61.5044 75.8937 60.3547 75.7149L56.5607 75.0886C53.9875 74.6654 52.0385 73.8181 50.7136 72.5467C49.3887 71.2752 48.9124 69.4362 49.2847 67.0297C49.6131 65.0367 50.4234 63.2328 51.7155 61.618C53.0075 60.0031 54.6171 58.6747 56.5442 57.6328C58.4714 56.5798 60.5627 55.9149 62.8183 55.6379C65.0959 55.3583 67.0339 55.5285 68.6326 56.1485C70.2312 56.7686 71.4138 57.7486 72.1802 59.0887C72.9467 60.4287 73.215 62.0505 72.985 63.9542L68.0906 64.5551ZM73.1238 88.7256L78.7081 54.1502L99.797 51.5608L99.0743 56.0513L83.0606 58.0175L81.3524 68.553L96.2658 66.7219L95.5431 71.1958L80.6298 73.0269L78.9216 83.6121L95.1325 81.6216L94.4098 86.112L73.1238 88.7256ZM101.882 55.7065L102.605 51.2161L128.637 48.0197L127.915 52.5101L117.42 53.7987L112.558 83.8837L107.499 84.5049L112.361 54.4199L101.882 55.7065ZM129.696 52.2914L130.419 47.801L156.451 44.6046L155.729 49.095L145.233 50.3836L140.372 80.4686L135.313 81.0897L140.175 51.0048L129.696 52.2914ZM164.967 43.559L159.382 78.1344L154.307 78.7576L159.891 44.1822L164.967 43.559ZM197.194 39.6019L191.61 74.1773L186.946 74.7501L173.954 51.4906L173.658 51.5269L169.536 76.8877L164.461 77.5109L170.045 42.9355L174.742 42.3587L187.75 65.6493L188.062 65.611L192.169 40.219L197.194 39.6019ZM223.259 47.108C223.117 46.1215 222.865 45.2534 222.504 44.5035C222.153 43.7412 221.677 43.1157 221.075 42.627C220.472 42.1383 219.75 41.7968 218.907 41.6025C218.064 41.3971 217.084 41.363 215.967 41.5001C214.061 41.734 212.238 42.4488 210.497 43.6444C208.767 44.8387 207.278 46.4612 206.03 48.5119C204.782 50.5516 203.933 52.967 203.484 55.758C203.024 58.5614 203.057 60.8795 203.583 62.7125C204.108 64.5454 205.039 65.8708 206.375 66.6886C207.711 67.5064 209.364 67.7943 211.335 67.5523C213.164 67.3278 214.844 66.7463 216.377 65.8079C217.91 64.8696 219.186 63.6539 220.204 62.1609C221.233 60.6555 221.896 58.9525 222.192 57.0519L223.456 57.1448L213.832 58.3265L214.554 54.0181L227.792 52.3927L227.119 56.331C226.67 59.2434 225.673 61.8424 224.13 64.128C222.586 66.4026 220.664 68.2492 218.365 69.6678C216.076 71.074 213.569 71.9445 210.842 72.2793C207.798 72.653 205.247 72.2602 203.189 71.1009C201.13 69.9416 199.674 68.1181 198.82 65.6305C197.977 63.1305 197.851 60.0571 198.442 56.4102C198.869 53.655 199.63 51.1345 200.725 48.8489C201.831 46.5619 203.183 44.5701 204.782 42.8735C206.38 41.1658 208.16 39.7945 210.12 38.7596C212.091 37.7122 214.16 37.0555 216.328 36.7893C218.146 36.5661 219.794 36.634 221.272 36.9931C222.761 37.3508 224.042 37.9602 225.115 38.8213C226.188 39.6824 227.015 40.7613 227.595 42.058C228.175 43.3437 228.466 44.8139 228.466 46.4687L223.259 47.108ZM251.451 42.0413C251.462 40.3742 250.925 39.1659 249.841 38.4164C248.768 37.6657 247.268 37.4086 245.341 37.6452C243.961 37.8146 242.729 38.1865 241.645 38.7609C240.572 39.3228 239.696 40.0261 239.017 40.8707C238.35 41.7028 237.939 42.6082 237.786 43.5868C237.643 44.4096 237.714 45.0959 237.999 45.6456C238.295 46.194 238.716 46.6332 239.264 46.9631C239.822 47.2806 240.435 47.5308 241.103 47.7135C241.771 47.8853 242.417 48.0155 243.041 48.1044L246.195 48.5777C247.213 48.7174 248.248 48.9489 249.299 49.2721C250.35 49.5954 251.297 50.0748 252.141 50.7104C252.984 51.346 253.613 52.1843 254.029 53.2254C254.445 54.2665 254.528 55.5636 254.276 57.117C253.947 59.0768 253.175 60.876 251.96 62.5146C250.744 64.1531 249.14 65.5249 247.148 66.6301C245.155 67.7353 242.844 68.4492 240.216 68.7719C237.698 69.0811 235.579 68.9386 233.86 68.3443C232.152 67.7487 230.898 66.7609 230.099 65.3808C229.3 63.9896 229.015 62.2595 229.245 60.1903L234.353 59.5632C234.233 60.8025 234.451 61.796 235.01 62.5438C235.579 63.2792 236.379 63.7823 237.408 64.0531C238.437 64.3128 239.603 64.3627 240.906 64.2027C242.352 64.0253 243.671 63.6371 244.865 63.0382C246.058 62.4284 247.044 61.6675 247.821 60.7557C248.598 59.8329 249.075 58.8091 249.25 57.6844C249.425 56.659 249.283 55.8546 248.823 55.2712C248.374 54.6865 247.695 54.2403 246.786 53.9327C245.888 53.6238 244.865 53.3799 243.715 53.2011L239.921 52.5748C237.348 52.1516 235.399 51.3043 234.074 50.0329C232.749 48.7614 232.273 46.9224 232.645 44.5159C232.973 42.5229 233.784 40.719 235.076 39.1042C236.368 37.4893 237.977 36.1609 239.904 35.119C241.832 34.066 243.923 33.4011 246.179 33.1241C248.456 32.8445 250.394 33.0147 251.993 33.6347C253.591 34.2548 254.774 35.2348 255.54 36.5749C256.307 37.9149 256.575 39.5367 256.345 41.4404L251.451 42.0413Z" fill="black"/>
</g>
</g>
<defs>
<filter id="filter0_f_2103_5657" x="-1.57187" y="-9.48105" width="307.343" height="130.8" filterUnits="userSpaceOnUse" color-interpolation-filters="sRGB">
<feFlood flood-opacity="0" result="BackgroundImageFix"/>
<feBlend mode="normal" in="SourceGraphic" in2="BackgroundImageFix" result="shape"/>
<feGaussianBlur stdDeviation="7.7" result="effect1_foregroundBlur_2103_5657"/>
</filter>
<filter id="filter1_f_2103_5657" x="38.3391" y="24.6335" width="225.552" height="75.2418" filterUnits="userSpaceOnUse" color-interpolation-filters="sRGB">
<feFlood flood-opacity="0" result="BackgroundImageFix"/>
<feBlend mode="normal" in="SourceGraphic" in2="BackgroundImageFix" result="shape"/>
<feGaussianBlur stdDeviation="3.6" result="effect1_foregroundBlur_2103_5657"/>
</filter>
<linearGradient id="paint0_linear_2103_5657" x1="25.1189" y1="72.4245" x2="257.89" y2="72.4245" gradientUnits="userSpaceOnUse">
<stop stop-color="#00A0B9" stop-opacity="0"/>
<stop offset="0.423077" stop-color="#00A0B9"/>
</linearGradient>
<linearGradient id="paint1_linear_2103_5657" x1="9.57813" y1="54.5898" x2="35.5781" y2="80.0898" gradientUnits="userSpaceOnUse">
<stop stop-color="#2EE3FF"/>
<stop offset="1" stop-color="white" stop-opacity="0"/>
</linearGradient>
<clipPath id="clip0_2103_5657">
<rect width="304" height="119" fill="white" transform="matrix(-1 0 0 1 304 0)"/>
</clipPath>
</defs>
</svg>
