<svg width="304" height="119" viewBox="0 0 304 119" fill="none" xmlns="http://www.w3.org/2000/svg">
<path d="M68.0906 64.5551C68.1015 62.888 67.565 61.6797 66.481 60.9302C65.4079 60.1795 63.9078 59.9224 61.9807 60.159C60.6011 60.3284 59.3692 60.7003 58.2852 61.2746C57.2122 61.8366 56.3362 62.5399 55.6573 63.3845C54.9894 64.2166 54.5788 65.122 54.4255 66.1006C54.2831 66.9234 54.3543 67.6097 54.639 68.1594C54.9346 68.7078 55.3562 69.147 55.9037 69.4769C56.4621 69.7944 57.0753 70.0446 57.7432 70.2273C58.4111 70.3991 59.0572 70.5293 59.6813 70.6182L62.8348 71.0915C63.8531 71.2312 64.8878 71.4627 65.939 71.7859C66.9901 72.1092 67.9373 72.5886 68.7804 73.2242C69.6235 73.8598 70.2531 74.6981 70.6692 75.7392C71.0853 76.7803 71.1674 78.0774 70.9156 79.6308C70.5871 81.5906 69.8151 83.3898 68.5997 85.0284C67.3843 86.6669 65.7802 88.0387 63.7874 89.1439C61.7946 90.2491 59.4842 90.963 56.8563 91.2857C54.3379 91.5949 52.2191 91.4524 50.5001 90.8581C48.7919 90.2625 47.5382 89.2747 46.7389 87.8946C45.9396 86.5034 45.6549 84.7733 45.8848 82.7041L50.9928 82.077C50.8723 83.3163 51.0913 84.3098 51.6498 85.0576C52.2191 85.793 53.0185 86.2961 54.0477 86.5669C55.077 86.8266 56.2431 86.8765 57.5461 86.7165C58.9915 86.5391 60.3109 86.1509 61.5044 85.552C62.6979 84.9422 63.6834 84.1813 64.4608 83.2695C65.2382 82.3467 65.7145 81.3229 65.8897 80.1982C66.0649 79.1728 65.9226 78.3684 65.4627 77.785C65.0137 77.2003 64.3349 76.7541 63.426 76.4465C62.5282 76.1376 61.5044 75.8937 60.3547 75.7149L56.5607 75.0886C53.9875 74.6654 52.0385 73.8181 50.7136 72.5467C49.3887 71.2752 48.9124 69.4362 49.2847 67.0297C49.6131 65.0367 50.4234 63.2328 51.7155 61.618C53.0075 60.0031 54.6171 58.6747 56.5442 57.6328C58.4714 56.5798 60.5627 55.9149 62.8183 55.6379C65.0959 55.3583 67.0339 55.5285 68.6326 56.1485C70.2312 56.7686 71.4138 57.7486 72.1802 59.0887C72.9467 60.4287 73.215 62.0505 72.985 63.9542L68.0906 64.5551ZM73.1238 88.7256L78.7081 54.1502L99.797 51.5608L99.0743 56.0513L83.0606 58.0175L81.3524 68.553L96.2658 66.7219L95.5431 71.1958L80.6298 73.0269L78.9216 83.6121L95.1325 81.6216L94.4098 86.112L73.1238 88.7256ZM101.882 55.7065L102.605 51.2161L128.637 48.0197L127.915 52.5101L117.42 53.7987L112.558 83.8837L107.499 84.5049L112.361 54.4199L101.882 55.7065ZM129.696 52.2914L130.419 47.801L156.451 44.6046L155.729 49.095L145.233 50.3836L140.372 80.4686L135.313 81.0897L140.175 51.0048L129.696 52.2914ZM164.967 43.559L159.382 78.1344L154.307 78.7576L159.891 44.1822L164.967 43.559ZM197.194 39.6019L191.61 74.1773L186.946 74.7501L173.954 51.4906L173.658 51.5269L169.536 76.8877L164.461 77.5109L170.045 42.9355L174.742 42.3587L187.75 65.6493L188.062 65.611L192.169 40.219L197.194 39.6019ZM223.259 47.108C223.117 46.1215 222.865 45.2534 222.504 44.5035C222.153 43.7412 221.677 43.1157 221.075 42.627C220.472 42.1383 219.75 41.7968 218.907 41.6025C218.064 41.3971 217.084 41.363 215.967 41.5001C214.061 41.734 212.238 42.4488 210.497 43.6444C208.767 44.8387 207.278 46.4612 206.03 48.5119C204.782 50.5516 203.933 52.967 203.484 55.758C203.024 58.5614 203.057 60.8795 203.583 62.7125C204.108 64.5454 205.039 65.8708 206.375 66.6886C207.711 67.5064 209.364 67.7943 211.335 67.5523C213.164 67.3278 214.844 66.7463 216.377 65.8079C217.91 64.8696 219.186 63.6539 220.204 62.1609C221.233 60.6555 221.896 58.9525 222.192 57.0519L223.456 57.1448L213.832 58.3265L214.554 54.0181L227.792 52.3927L227.119 56.331C226.67 59.2434 225.673 61.8424 224.13 64.128C222.586 66.4026 220.664 68.2492 218.365 69.6678C216.076 71.074 213.569 71.9445 210.842 72.2793C207.798 72.653 205.247 72.2602 203.189 71.1009C201.13 69.9416 199.674 68.1181 198.82 65.6305C197.977 63.1305 197.851 60.0571 198.442 56.4102C198.869 53.655 199.63 51.1345 200.725 48.8489C201.831 46.5619 203.183 44.5701 204.782 42.8735C206.38 41.1658 208.16 39.7945 210.12 38.7596C212.091 37.7122 214.16 37.0555 216.328 36.7893C218.146 36.5661 219.794 36.634 221.272 36.9931C222.761 37.3508 224.042 37.9602 225.115 38.8213C226.188 39.6824 227.015 40.7613 227.595 42.058C228.175 43.3437 228.466 44.8139 228.466 46.4687L223.259 47.108ZM251.451 42.0413C251.462 40.3742 250.925 39.1659 249.841 38.4164C248.768 37.6657 247.268 37.4086 245.341 37.6452C243.961 37.8146 242.729 38.1865 241.645 38.7609C240.572 39.3228 239.696 40.0261 239.017 40.8707C238.35 41.7028 237.939 42.6082 237.786 43.5868C237.643 44.4096 237.714 45.0959 237.999 45.6456C238.295 46.194 238.716 46.6332 239.264 46.9631C239.822 47.2806 240.435 47.5308 241.103 47.7135C241.771 47.8853 242.417 48.0155 243.041 48.1044L246.195 48.5777C247.213 48.7174 248.248 48.9489 249.299 49.2721C250.35 49.5954 251.297 50.0748 252.141 50.7104C252.984 51.346 253.613 52.1843 254.029 53.2254C254.445 54.2665 254.528 55.5636 254.276 57.117C253.947 59.0768 253.175 60.876 251.96 62.5146C250.744 64.1531 249.14 65.5249 247.148 66.6301C245.155 67.7353 242.844 68.4492 240.216 68.7719C237.698 69.0811 235.579 68.9386 233.86 68.3443C232.152 67.7487 230.898 66.7609 230.099 65.3808C229.3 63.9896 229.015 62.2595 229.245 60.1903L234.353 59.5632C234.233 60.8025 234.451 61.796 235.01 62.5438C235.579 63.2792 236.379 63.7823 237.408 64.0531C238.437 64.3128 239.603 64.3627 240.906 64.2027C242.352 64.0253 243.671 63.6371 244.865 63.0382C246.058 62.4284 247.044 61.6675 247.821 60.7557C248.598 59.8329 249.075 58.8091 249.25 57.6844C249.425 56.659 249.283 55.8546 248.823 55.2712C248.374 54.6865 247.695 54.2403 246.786 53.9327C245.888 53.6238 244.865 53.3799 243.715 53.2011L239.921 52.5748C237.348 52.1516 235.399 51.3043 234.074 50.0329C232.749 48.7614 232.273 46.9224 232.645 44.5159C232.973 42.5229 233.784 40.719 235.076 39.1042C236.368 37.4893 237.977 36.1609 239.904 35.119C241.832 34.066 243.923 33.4011 246.179 33.1241C248.456 32.8445 250.394 33.0147 251.993 33.6347C253.591 34.2548 254.774 35.2348 255.54 36.5749C256.307 37.9149 256.575 39.5367 256.345 41.4404L251.451 42.0413Z" fill="white"/>
<path d="M68.0906 64.5551C68.1015 62.888 67.565 61.6797 66.481 60.9302C65.4079 60.1795 63.9078 59.9224 61.9807 60.159C60.6011 60.3284 59.3692 60.7003 58.2852 61.2746C57.2122 61.8366 56.3362 62.5399 55.6573 63.3845C54.9894 64.2166 54.5788 65.122 54.4255 66.1006C54.2831 66.9234 54.3543 67.6097 54.639 68.1594C54.9346 68.7078 55.3562 69.147 55.9037 69.4769C56.4621 69.7944 57.0753 70.0446 57.7432 70.2273C58.4111 70.3991 59.0572 70.5293 59.6813 70.6182L62.8348 71.0915C63.8531 71.2312 64.8878 71.4627 65.939 71.7859C66.9901 72.1092 67.9373 72.5886 68.7804 73.2242C69.6235 73.8598 70.2531 74.6981 70.6692 75.7392C71.0853 76.7803 71.1674 78.0774 70.9156 79.6308C70.5871 81.5906 69.8151 83.3898 68.5997 85.0284C67.3843 86.6669 65.7802 88.0387 63.7874 89.1439C61.7946 90.2491 59.4842 90.963 56.8563 91.2857C54.3379 91.5949 52.2191 91.4524 50.5001 90.8581C48.7919 90.2625 47.5382 89.2747 46.7389 87.8946C45.9396 86.5034 45.6549 84.7733 45.8848 82.7041L50.9928 82.077C50.8723 83.3163 51.0913 84.3098 51.6498 85.0576C52.2191 85.793 53.0185 86.2961 54.0477 86.5669C55.077 86.8266 56.2431 86.8765 57.5461 86.7165C58.9915 86.5391 60.3109 86.1509 61.5044 85.552C62.6979 84.9422 63.6834 84.1813 64.4608 83.2695C65.2382 82.3467 65.7145 81.3229 65.8897 80.1982C66.0649 79.1728 65.9226 78.3684 65.4627 77.785C65.0137 77.2003 64.3349 76.7541 63.426 76.4465C62.5282 76.1376 61.5044 75.8937 60.3547 75.7149L56.5607 75.0886C53.9875 74.6654 52.0385 73.8181 50.7136 72.5467C49.3887 71.2752 48.9124 69.4362 49.2847 67.0297C49.6131 65.0367 50.4234 63.2328 51.7155 61.618C53.0075 60.0031 54.6171 58.6747 56.5442 57.6328C58.4714 56.5798 60.5627 55.9149 62.8183 55.6379C65.0959 55.3583 67.0339 55.5285 68.6326 56.1485C70.2312 56.7686 71.4138 57.7486 72.1802 59.0887C72.9467 60.4287 73.215 62.0505 72.985 63.9542L68.0906 64.5551ZM73.1238 88.7256L78.7081 54.1502L99.797 51.5608L99.0743 56.0513L83.0606 58.0175L81.3524 68.553L96.2658 66.7219L95.5431 71.1958L80.6298 73.0269L78.9216 83.6121L95.1325 81.6216L94.4098 86.112L73.1238 88.7256ZM101.882 55.7065L102.605 51.2161L128.637 48.0197L127.915 52.5101L117.42 53.7987L112.558 83.8837L107.499 84.5049L112.361 54.4199L101.882 55.7065ZM129.696 52.2914L130.419 47.801L156.451 44.6046L155.729 49.095L145.233 50.3836L140.372 80.4686L135.313 81.0897L140.175 51.0048L129.696 52.2914ZM164.967 43.559L159.382 78.1344L154.307 78.7576L159.891 44.1822L164.967 43.559ZM197.194 39.6019L191.61 74.1773L186.946 74.7501L173.954 51.4906L173.658 51.5269L169.536 76.8877L164.461 77.5109L170.045 42.9355L174.742 42.3587L187.75 65.6493L188.062 65.611L192.169 40.219L197.194 39.6019ZM223.259 47.108C223.117 46.1215 222.865 45.2534 222.504 44.5035C222.153 43.7412 221.677 43.1157 221.075 42.627C220.472 42.1383 219.75 41.7968 218.907 41.6025C218.064 41.3971 217.084 41.363 215.967 41.5001C214.061 41.734 212.238 42.4488 210.497 43.6444C208.767 44.8387 207.278 46.4612 206.03 48.5119C204.782 50.5516 203.933 52.967 203.484 55.758C203.024 58.5614 203.057 60.8795 203.583 62.7125C204.108 64.5454 205.039 65.8708 206.375 66.6886C207.711 67.5064 209.364 67.7943 211.335 67.5523C213.164 67.3278 214.844 66.7463 216.377 65.8079C217.91 64.8696 219.186 63.6539 220.204 62.1609C221.233 60.6555 221.896 58.9525 222.192 57.0519L223.456 57.1448L213.832 58.3265L214.554 54.0181L227.792 52.3927L227.119 56.331C226.67 59.2434 225.673 61.8424 224.13 64.128C222.586 66.4026 220.664 68.2492 218.365 69.6678C216.076 71.074 213.569 71.9445 210.842 72.2793C207.798 72.653 205.247 72.2602 203.189 71.1009C201.13 69.9416 199.674 68.1181 198.82 65.6305C197.977 63.1305 197.851 60.0571 198.442 56.4102C198.869 53.655 199.63 51.1345 200.725 48.8489C201.831 46.5619 203.183 44.5701 204.782 42.8735C206.38 41.1658 208.16 39.7945 210.12 38.7596C212.091 37.7122 214.16 37.0555 216.328 36.7893C218.146 36.5661 219.794 36.634 221.272 36.9931C222.761 37.3508 224.042 37.9602 225.115 38.8213C226.188 39.6824 227.015 40.7613 227.595 42.058C228.175 43.3437 228.466 44.8139 228.466 46.4687L223.259 47.108ZM251.451 42.0413C251.462 40.3742 250.925 39.1659 249.841 38.4164C248.768 37.6657 247.268 37.4086 245.341 37.6452C243.961 37.8146 242.729 38.1865 241.645 38.7609C240.572 39.3228 239.696 40.0261 239.017 40.8707C238.35 41.7028 237.939 42.6082 237.786 43.5868C237.643 44.4096 237.714 45.0959 237.999 45.6456C238.295 46.194 238.716 46.6332 239.264 46.9631C239.822 47.2806 240.435 47.5308 241.103 47.7135C241.771 47.8853 242.417 48.0155 243.041 48.1044L246.195 48.5777C247.213 48.7174 248.248 48.9489 249.299 49.2721C250.35 49.5954 251.297 50.0748 252.141 50.7104C252.984 51.346 253.613 52.1843 254.029 53.2254C254.445 54.2665 254.528 55.5636 254.276 57.117C253.947 59.0768 253.175 60.876 251.96 62.5146C250.744 64.1531 249.14 65.5249 247.148 66.6301C245.155 67.7353 242.844 68.4492 240.216 68.7719C237.698 69.0811 235.579 68.9386 233.86 68.3443C232.152 67.7487 230.898 66.7609 230.099 65.3808C229.3 63.9896 229.015 62.2595 229.245 60.1903L234.353 59.5632C234.233 60.8025 234.451 61.796 235.01 62.5438C235.579 63.2792 236.379 63.7823 237.408 64.0531C238.437 64.3128 239.603 64.3627 240.906 64.2027C242.352 64.0253 243.671 63.6371 244.865 63.0382C246.058 62.4284 247.044 61.6675 247.821 60.7557C248.598 59.8329 249.075 58.8091 249.25 57.6844C249.425 56.659 249.283 55.8546 248.823 55.2712C248.374 54.6865 247.695 54.2403 246.786 53.9327C245.888 53.6238 244.865 53.3799 243.715 53.2011L239.921 52.5748C237.348 52.1516 235.399 51.3043 234.074 50.0329C232.749 48.7614 232.273 46.9224 232.645 44.5159C232.973 42.5229 233.784 40.719 235.076 39.1042C236.368 37.4893 237.977 36.1609 239.904 35.119C241.832 34.066 243.923 33.4011 246.179 33.1241C248.456 32.8445 250.394 33.0147 251.993 33.6347C253.591 34.2548 254.774 35.2348 255.54 36.5749C256.307 37.9149 256.575 39.5367 256.345 41.4404L251.451 42.0413Z" fill="url(#paint0_linear_2103_5684)"/>
<defs>
<linearGradient id="paint0_linear_2103_5684" x1="26.0883" y1="103.126" x2="125.408" y2="80.4415" gradientUnits="userSpaceOnUse">
<stop/>
<stop offset="1" stop-color="white"/>
</linearGradient>
</defs>
</svg>
