<svg width="304" height="119" viewBox="0 0 304 119" fill="none" xmlns="http://www.w3.org/2000/svg">
<g clip-path="url(#clip0_2103_5804)">
<g filter="url(#filter0_f_2103_5804)">
<path d="M287.005 20.3437C285.529 23.1172 284.018 25.855 282.493 28.5774C285.988 28.1809 289.482 27.7827 292.977 27.3799L296.489 26.8471L296.898 30.4903C297.614 39.9968 298.356 49.4982 299.137 58.9907C299.452 62.8208 299.774 66.6501 300.103 70.4775L300.555 74.507L296.323 74.8265C293.093 74.9871 289.862 75.1535 286.631 75.3251C280.117 75.671 273.599 76.0331 267.082 76.411C263.28 76.7289 259.664 77.0596 256.31 77.3654C251.598 77.7951 247.402 78.1766 243.942 78.4123C235.606 78.9802 226.172 79.284 219.167 79.509C218.023 79.5458 216.941 79.5797 215.942 79.6131C213.722 79.7599 211.501 79.9096 209.281 80.0579C194.324 82.2815 179.318 84.4459 164.35 86.5483C146.707 89.0269 129.087 91.4261 111.43 93.7805C93.8098 96.1288 76.1494 98.4331 58.5125 100.705C52.8937 101.428 47.2718 102.15 41.6499 102.869L39.531 103.267L39.5213 101.029C39.7205 97.3777 39.9214 93.7265 40.1223 90.076C38.1697 90.2288 36.3353 90.3783 34.7273 90.5236C27.7258 90.7885 20.7244 91.035 13.7248 91.2762L4 91.9663L10.2654 83.4568C11.7451 81.576 13.2249 79.6954 14.7048 77.815C17.8464 73.8246 21.1803 70.2282 23.9876 67.8334C26.7945 65.4399 28.8427 64.4384 29.7005 65.0626C29.8012 65.136 29.8843 65.232 29.9506 65.3483L30.002 65.2825L30.0815 65.2717C30.0282 65.1471 29.9999 65.0182 29.9991 64.8854C29.9928 63.7765 31.8406 62.4652 35.1344 61.205C37.0362 60.478 39.3307 59.8056 41.8282 59.2269C41.9283 57.4252 42.0286 55.6235 42.1287 53.8218C42.1596 53.2697 42.2508 52.7338 42.3865 52.3321C42.4374 52.182 42.492 52.0546 42.5503 51.9536L42.5562 51.7097L43.3112 51.6014C43.3807 51.5839 43.4521 51.5667 43.5245 51.5528C45.0907 51.2527 46.6549 50.9535 48.2255 50.6543C49.1961 50.4693 50.1718 50.2832 51.1401 50.0991C51.7372 49.9856 52.3332 49.8723 52.9236 49.76C54.0386 49.5482 55.1751 49.3334 56.3016 49.1207C56.7447 49.0369 57.1883 48.9533 57.6314 48.8695C58.6691 48.6733 59.7247 48.4747 60.7719 48.2778C60.7782 48.2767 60.785 48.2756 60.7913 48.2745C61.3063 48.1776 61.8208 48.0808 62.3295 47.985C63.9002 47.6902 65.4571 47.3982 67.048 47.1019C67.87 46.9473 68.7275 46.7884 69.5778 46.6302C70.051 46.5421 70.5234 46.4539 70.9872 46.3673C71.2408 46.3202 71.4983 46.2727 71.7568 46.2249C77.6895 45.1223 83.5807 44.035 89.5267 42.9503C95.4505 41.8688 101.385 40.7962 107.302 39.7345C113.234 38.6708 119.155 37.6172 125.081 36.5721C162.691 29.9389 200.456 23.5131 238.245 17.4752C243.635 16.6134 249.166 15.7413 254.567 14.8959C260.027 14.0421 265.375 13.2127 270.85 12.3751C272.512 12.1203 274.216 11.86 275.965 11.5946C277.628 11.342 279.284 11.1102 280.935 10.8936L292.634 8.97278L287.005 20.3437ZM164.55 33.4446C164.376 33.4789 164.246 33.5883 164.064 33.7661C163.738 34.0838 162.661 34.3365 161.82 34.5338C161.43 34.6251 161.091 34.7049 160.9 34.7737C160.79 34.8135 160.695 34.8524 160.614 34.8899L165.389 34.2089C165.292 33.9703 165.36 33.8781 165.89 33.6923C165.443 33.6097 164.997 33.5272 164.55 33.4446Z" fill="url(#paint0_linear_2103_5804)"/>
<path d="M284.462 26.9638C284.108 27.6099 283.732 28.2899 283.34 28.9912L282.502 27.5775C285.911 27.1843 289.818 26.7613 292.984 26.4261L292.95 26.4307C293.059 26.4152 293.167 26.3998 293.274 26.3847C294.5 26.2105 293.881 26.3575 294.728 26.2396C295.318 26.1574 295.894 26.0715 296.464 25.9848L297.253 25.863L297.343 26.6463C297.457 27.664 297.575 28.6644 297.676 29.708C297.728 30.2455 297.57 29.5983 297.627 30.1615C297.632 30.2128 297.637 30.2641 297.642 30.3153L297.644 30.3421C297.84 33.3932 298.08 36.2773 298.301 39.369C298.768 45.9002 299.255 52.3798 299.767 58.8614C300.069 62.6875 300.379 66.5143 300.699 70.3529L300.698 70.3379C300.845 71.6801 300.992 73.0239 301.139 74.3698L301.217 75.0478L300.528 75.1018C299.12 75.2045 297.709 75.3075 296.296 75.4108L296.282 75.4117C293.928 75.5231 291.566 75.6379 289.194 75.756C288.353 75.7979 287.484 75.8399 286.593 75.8825C282.002 76.102 276.862 76.3353 272.381 76.6174C271.757 76.6568 272.124 76.7098 272.005 76.7227C270.136 76.9221 270.765 76.7373 269.55 76.787C268.731 76.8207 267.896 76.8576 267.051 76.8973L267.063 76.8964C263.489 77.1554 259.744 77.4905 256.296 77.8196C255.758 77.871 255.227 77.9221 254.705 77.9727C252.724 78.1647 254.706 78.1319 252.714 78.2294C252.575 78.2363 253.081 78.1126 252.538 78.153C251.306 78.2456 248.969 78.4636 248.014 78.5354C246.173 78.6736 245.87 78.6992 244.127 78.8221C244.058 78.8268 243.989 78.8315 243.92 78.8361C241.586 78.992 238.849 79.1113 236.374 79.2503C235.83 79.281 236.545 79.3266 235.676 79.3825C234.806 79.4392 232.511 79.5347 231.739 79.5471C230.966 79.5603 231.301 79.483 231.165 79.4742C230.048 79.3989 227.38 79.6691 227.039 79.685C224.262 79.8179 221.666 79.9002 219.127 79.9702C218.045 80.0001 216.974 80.027 215.903 80.056L215.917 80.0553C213.85 80.1793 211.782 80.3057 209.646 80.4486C209.517 80.4573 209.388 80.466 209.258 80.4747L209.291 80.4711C204.955 81.1179 200.352 81.8259 196.241 82.4223C191.198 83.1536 186.922 83.7291 182.022 84.44C181.505 84.5149 182.113 84.5221 181.482 84.6137C175.754 85.4447 170.06 86.2466 164.358 87.0058C163.381 87.136 162.403 87.2649 161.425 87.3926C160.755 87.4799 161.617 87.2764 160.947 87.3587C156.847 87.8652 150.359 88.6011 147.93 89.2961C145.154 89.6652 141.783 90.1134 139.298 90.3803C137.695 90.5525 139.25 90.25 137.283 90.557C136.839 90.6261 137.417 90.6263 136.752 90.7239C133.951 91.1349 130.89 91.5249 128.119 91.9405C127.555 92.0253 127.71 92.0751 127.55 92.1095C126.209 92.3941 123.972 92.525 123.485 92.5782C119.774 92.9854 117.065 93.385 113.609 93.8445C112.807 93.951 113.756 93.9194 112.985 94.0253C112.47 94.0957 111.953 94.1661 111.434 94.2363C107.92 94.7115 104.332 95.1767 100.916 95.5915C100.045 95.6971 100.845 95.5102 100.429 95.5565C98.5917 95.7617 98.1859 95.9683 96.4239 96.1675C96.0525 96.2096 96.2611 96.1128 96.1932 96.1141C95.132 96.1344 94.2122 96.4248 93.9396 96.4644C90.4903 96.9691 88.2838 97.0816 84.9514 97.5424C84.5528 97.5977 85.4525 97.5679 84.3318 97.7179C76.8657 98.7181 68.969 99.7185 61.5782 100.602C60.4291 100.739 61.2489 100.567 61.1766 100.569C59.9974 100.594 59.2358 100.862 58.8612 100.917C58.7452 100.933 58.6294 100.95 58.514 100.966C55.69 101.36 53.065 101.574 51.1366 102.016C47.9713 102.405 44.8097 102.804 41.6516 103.206L41.6714 103.203C40.9649 103.335 40.2586 103.467 39.5525 103.6L39.1998 103.667L39.1972 103.309C39.1942 102.563 39.1909 101.817 39.1877 101.071L39.1882 101.051C39.3875 97.3957 39.5877 93.7448 39.7986 90.0975L40.108 90.404C38.3096 90.5398 36.5126 90.6764 34.7176 90.826L34.7021 90.827C32.2605 90.9028 29.8217 90.9685 27.3859 91.0208C27.2288 91.0244 27.5177 90.9298 27.2043 90.9373C23.4304 91.0261 24.1448 91.1308 21.6314 91.3797C20.9983 91.4423 19.0994 91.3159 18.9311 91.3076C18.3181 91.2768 18.9693 91.129 18.7634 91.1261C17.0593 91.1062 17.3025 91.5116 14.9945 91.5916C14.9223 91.5934 15.2321 91.5065 15.039 91.5056C14.5914 91.5034 14.1439 91.5311 13.7019 91.5429C13.5607 91.5519 13.4106 91.5595 13.2613 91.5635C11.9132 91.5987 11.4421 91.4315 9.37238 91.6951C9.1104 91.7289 9.49738 91.9356 7.43217 92.0711C6.92643 92.1041 5.35564 92.216 3.98253 92.3107L3.31286 92.3597L3.73641 91.7821C4.28339 91.0419 4.78206 90.3694 5.03593 90.0338C5.69334 89.1649 5.30791 89.8076 5.35647 89.7468C7.17308 87.4372 6.54508 88.3555 7.5303 87.2508C8.51498 86.146 8.00365 86.2858 8.32891 85.7822C8.61457 85.3401 9.6783 83.9886 10.1627 83.385C10.2368 83.298 10.2959 83.2296 10.3389 83.1802C10.6872 82.7808 10.3151 83.3264 10.6179 82.9661C12.6247 80.5757 11.3343 81.7917 11.9281 80.9527C12.8148 79.6993 13.6858 78.7042 14.5588 77.7038C15.0651 77.1237 15.5779 76.5482 16.1031 75.9269C16.4924 75.4682 16.1351 75.8105 16.4747 75.3961C17.83 73.763 18.7263 72.8537 20.3465 71.0622C20.6081 70.7687 21.8852 69.2698 22.9006 68.5039C23.0439 68.3961 22.7041 68.7807 23.3864 68.1889C23.545 68.0528 23.723 67.9014 23.9149 67.7413C24.9727 66.85 26.5175 65.6883 27.6299 65.163C28.1118 64.9373 28.0775 64.9384 28.0653 64.9133C28.0592 64.9027 28.0663 64.8242 28.748 64.6992C29.055 64.6667 28.9229 64.7055 28.8594 64.7309C28.795 64.7748 28.8069 64.7229 29.3559 64.7955C29.4826 64.8226 29.6302 64.8742 29.7663 64.976C29.8714 65.0542 29.9653 65.1622 30.0369 65.2911L29.8767 65.2927C29.8938 65.2711 29.9111 65.2492 29.9285 65.2272L29.9569 65.1906L30.0008 65.1846C30.0271 65.1812 30.0536 65.1778 30.0803 65.1744L29.992 65.3196C29.9397 65.1953 29.9049 65.0518 29.9048 64.8975C30.087 63.4565 31.7761 62.7415 32.3413 62.3708C33.2903 61.8669 32.7444 62.0714 32.8177 62.0249C33.187 61.7978 34.4958 61.1941 35.0731 60.9733C35.2051 60.9204 35.2983 60.8842 35.3297 60.8725C37.4985 60.0663 39.6616 59.4842 41.8031 58.996L41.595 59.2422C41.7051 57.4257 41.8171 55.6269 41.9282 53.835C41.9628 53.3224 42.0331 52.8085 42.2064 52.2898C42.2543 52.1521 42.3087 52.0138 42.3904 51.8723L42.3617 51.9722C42.3641 51.8909 42.3666 51.8095 42.369 51.7282L42.3728 51.5479L42.5523 51.5216C42.8041 51.4871 43.0558 51.4525 43.3075 51.4179L43.2879 51.4218C43.3603 51.4039 43.435 51.3864 43.512 51.372C45.0776 51.0812 46.6427 50.7894 48.2147 50.4935C49.183 50.3112 50.154 50.1266 51.1295 49.94C51.7221 49.8265 52.3164 49.712 52.9126 49.5962C53.1913 49.5422 53.4704 49.4879 53.7499 49.4334C54.4134 49.3043 53.9657 49.3036 54.0669 49.283C56.3368 48.8177 54.5601 49.3812 56.1523 49.1565C56.0706 49.113 56.1248 49.0674 56.2945 49.0137C56.531 48.9388 56.9918 48.8481 57.6219 48.7247C57.8723 48.6757 58.1494 48.6215 58.4499 48.5613C59.2206 48.4067 58.7962 48.4195 58.8662 48.3994C59.7238 48.1608 60.3925 48.0912 60.7582 48.0662C60.7707 48.0647 60.7771 48.0646 60.7781 48.0651C60.887 48.058 60.9672 48.0548 61.0153 48.0521C61.4549 48.0265 61.9121 47.9259 62.32 47.839C62.6211 47.7751 62.8952 47.7187 63.1158 47.7055C63.6352 47.6739 62.4557 47.9927 63.9907 47.7036C64.4173 47.5615 63.2673 47.6146 64.4312 47.3702C65.1968 47.2094 66.0788 47.034 67.0322 46.8511C67.8339 46.6957 68.6863 46.5369 69.5618 46.3756C70.0263 46.29 70.4975 46.2035 70.9713 46.1172C71.2278 46.0707 71.4847 46.0246 71.7417 45.9786C75.1588 45.3625 78.5999 44.7694 80.5779 44.4122C84.1082 43.775 85.2475 43.5551 87.3058 43.2008C88.4233 43.0085 89.0812 42.8862 89.5175 42.7958C90.5325 42.5856 90.3473 42.5487 91.9587 42.2166C94.2693 41.741 93.1617 42.2391 93.498 42.2416C93.8281 42.2452 94.1809 42.1156 94.589 42.0765C94.9958 42.0377 94.122 42.2396 95.0748 42.0798C96.0281 41.9197 98.6262 41.3362 98.9601 41.2093C99.6659 40.9407 98.4837 41.0059 101.008 40.6023C101.153 40.5793 100.687 40.7413 101.242 40.6489C103.236 40.3164 105.265 39.9671 107.296 39.6165C109.76 39.1915 112.228 38.7646 114.643 38.3633C115.249 38.2627 114.713 38.445 115.065 38.3875C118.739 37.7892 117.419 37.8781 119.423 37.3601C118.982 37.6543 120.102 37.5873 122.888 37.096C124.407 36.8284 124.308 36.7686 125.081 36.5682C125.16 36.5476 125.249 36.5255 125.35 36.5015C125.674 36.4243 126.862 36.2796 127.075 36.1978C127.775 35.9295 126.651 35.9649 129.527 35.5235C129.653 35.5044 129.256 35.6536 129.692 35.5818C132.509 35.1181 132.837 34.9086 135.88 34.3572C138.264 33.9249 142.512 33.2757 145.229 32.8182C145.184 33.0688 147.747 32.5675 148.779 32.221C150.542 31.9218 152.446 31.5826 154.151 31.311C154.738 31.2175 154.356 31.3538 154.43 31.3485C155.57 31.2707 156.328 30.9769 156.709 30.9049C160.83 30.1319 164.196 29.6771 168.127 28.8841C168.266 28.856 168.484 28.6499 169.543 28.5923C169.611 28.5891 168.315 28.8872 170.167 28.5769C172.019 28.2664 175.514 27.7615 178.082 27.2481C178.703 27.1238 180.271 26.7213 181.539 26.6138C181.708 26.5998 181.526 26.6789 181.77 26.6645C182.559 26.6169 182.98 26.3753 183.91 26.3632C184.839 26.3512 186.764 26.1349 189.353 25.6002C189.435 25.5835 190.043 25.3463 190.859 25.2116C192.161 24.9967 194.01 24.7153 195.369 24.4874C196.02 24.3782 195.6 24.3645 195.713 24.3441C200.087 23.5671 203.205 23.1239 207.895 22.382C208.755 22.2461 211.22 21.7255 212.888 21.5423C214.719 21.3409 212.858 22.0572 217.054 21.2723C218.746 20.9565 220.87 20.0872 223.925 19.8619C228.83 19.0098 233.435 18.3545 238.248 17.5611C239.225 17.4 240.211 17.2332 241.209 17.0582C241.475 17.0116 242.312 16.7328 242.938 16.6354C243.868 16.4912 244.381 16.4781 245.044 16.3776C247.826 15.9581 250.368 15.4997 253.05 15.0884C253.951 14.9502 253.778 15.0328 254.567 14.9246C254.67 14.9106 254.789 14.8933 254.929 14.8719C256.142 14.6862 256.948 14.4675 258.594 14.256C259.837 14.0967 261.085 14.0923 262.734 13.859C262.79 13.6633 263.923 13.4914 265.933 13.132C266.32 13.0629 265.903 13.062 266.086 13.026C266.83 12.8778 267.52 12.8255 268.226 12.6805C268.398 12.6453 268.404 12.5805 268.544 12.5482C269.208 12.394 270.113 12.2765 270.844 12.1981C271.428 12.1353 271.9 12.0975 272.051 12.0856C273.35 11.9818 273.954 11.8068 274.95 11.6927C275.944 11.5789 274.46 11.8512 275.621 11.6975C275.735 11.6824 275.85 11.667 275.967 11.6513C277.491 11.445 279.251 11.2019 280.936 10.9825C281.851 10.8329 282.742 10.6862 283.559 10.553C284.533 10.3938 283.865 10.4182 284.004 10.3935C286.018 10.0413 288.058 9.79707 289.168 9.44498C290.469 9.63559 290.402 9.27043 292.632 8.91063L292.74 8.89265L292.689 8.99537C292.598 9.17759 292.497 9.37488 292.383 9.5892C292.271 9.80165 291.953 10.0002 292.335 9.16368C292.374 9.07974 292.415 8.99186 292.459 8.90049L292.642 9.17162C291.784 9.32468 290.604 9.47007 289.519 9.69097C289.234 9.74901 287.603 10.2114 287.38 10.2598C285.633 10.6388 285.372 10.3712 285.278 10.3695C284.22 10.3593 282.227 10.8963 281.7 10.9973C281.444 11.0463 281.193 11.0934 280.945 11.1389C279.138 11.411 277.534 11.6205 275.974 11.8788C275.72 11.9207 275.468 11.9634 275.217 12.0076C273.897 12.2388 273.774 12.4609 272.738 12.613C272.032 12.7167 271.419 12.7952 270.864 12.8608C268.71 13.115 267.417 13.1744 264.841 13.7673C264.147 13.9271 264.846 14.0409 262.346 14.2532C262.189 14.2665 260.332 14.3947 259.265 14.6618C259.131 14.6954 259.138 14.7592 258.961 14.7922C257.774 15.012 256.98 15.0842 255.687 15.3108C255.337 15.3722 254.968 15.4374 254.587 15.5042C253.559 15.6841 252.44 15.8747 251.362 16.0279C250.472 16.1546 249.326 16.2143 248.898 16.252C247.692 16.3568 246.407 16.6992 245.658 16.7146C244.903 16.7305 246.367 16.3416 244.393 16.587C244.326 16.7659 244.164 16.9642 244.053 17.151C242.115 17.4555 240.19 17.7492 238.266 18.0447C235.901 18.4075 233.537 18.772 231.149 19.1609C230.611 19.2485 231.164 19.2499 230.588 19.3462C228.159 19.7521 226.034 20.0314 223.515 20.4661C221.566 20.8029 219.431 21.2465 217.392 21.6039C216.139 21.6161 213.115 22.1768 210.916 22.5212C210.146 22.6419 210.195 22.5823 209.647 22.6559C207.578 22.9348 208.553 22.9443 207.988 23.0643C205.563 23.579 205.339 23.2308 202.474 23.7153C202.322 23.7408 200.476 24.2528 200.221 24.308C198.601 24.6609 199.949 24.2817 198.932 24.4358C197.076 24.7172 195.785 24.8835 193.61 25.3073C192.977 25.4312 191.46 25.8131 190.223 25.9218C190.06 25.9361 190.147 25.8537 190.016 25.8717C187.651 26.2026 187.598 26.4249 186.252 26.7238C184.905 27.0228 182.813 27.2288 182.387 27.2584C181.272 27.3371 183.235 27.0681 183.295 27.0473C183.995 26.8009 182.476 27.0795 181.313 27.2653C181.135 27.0862 179.511 27.3738 180.108 27.4589C180.176 27.4677 181.079 27.2953 181.313 27.2653C180.302 27.6414 178.518 27.9698 176.537 28.1146C175.609 28.1824 176.477 27.9298 173.674 28.4451C172.402 28.679 172.901 28.7381 171.779 28.9685C169.217 29.4948 165.876 29.9321 163.232 30.4074C162.272 30.5799 163.211 30.4975 162.555 30.6181C160.815 30.9385 159.276 31.1442 157.529 31.4758C157.37 31.5059 157.762 31.521 157.218 31.6158C153.095 32.3366 149.503 32.9061 145.199 33.6535C143.119 34.0146 139.403 34.7085 137.248 35.0766C133.514 35.7145 128.914 36.4027 125.726 36.9941C125.49 37.0379 125.286 37.0768 125.11 37.1116C123.735 37.3825 124.007 37.405 123.22 37.5939C121.505 38.0056 118.451 38.3521 118.039 38.3951C118.027 38.3963 119.815 38.0594 118.858 38.1869C118.298 38.198 118.059 38.3911 118.039 38.3951C117.769 38.4233 114.192 39.0409 113.483 39.1834C113.098 39.2607 113.318 39.2997 113.117 39.3386C111.195 39.7097 109.271 40.074 107.341 40.4315C104.477 40.9626 101.601 41.4788 98.7024 41.981C98.617 41.9948 98.7405 41.885 98.5397 41.9187C95.7307 42.3879 93.9397 42.8202 91.6288 43.3046C90.8956 43.4583 90.2101 43.595 89.5719 43.7131C88.1987 43.9672 87.0443 44.136 86.1031 44.2059C84.3581 44.5444 81.8492 44.9394 80.4053 45.1655C78.9614 45.3915 78.7706 45.5973 78.644 45.624C75.9606 46.1931 74.0421 46.5274 71.8002 46.9179C71.5473 46.9617 71.2912 47.006 71.0298 47.0516C70.5799 47.1305 70.1123 47.2131 69.62 47.3007C69.1987 47.3758 68.7595 47.4545 68.2976 47.5388C67.9493 47.6023 67.54 47.6784 67.0909 47.7633C65.6962 48.0244 63.9169 48.3673 62.3735 48.6676C61.8216 48.7754 61.2995 48.8775 60.8363 48.9685C60.8104 48.9732 60.8041 48.9742 60.8159 48.9722C60.6599 49.0028 60.5098 49.0323 60.3676 49.0603C59.3051 49.2697 58.5105 49.4066 57.6769 49.5603C57.2565 49.6378 56.8264 49.7192 56.3473 49.8162C56.284 49.829 56.2199 49.8421 56.1549 49.8555C55.9471 49.8981 56.1622 49.9334 56.0989 49.9483C54.3884 50.3622 55.2012 50.0232 54.8447 50.0574C54.1708 50.1221 53.6313 50.1768 52.9584 50.2816C52.4689 50.3579 51.9086 50.4606 51.1744 50.6128C50.9822 50.6526 50.778 50.6959 50.56 50.743C50.1552 50.8304 49.1407 51.1968 48.2782 51.438C48.0626 51.4983 47.8565 51.5508 47.6718 51.5891C46.4718 51.8379 46.9188 51.6568 45.6624 51.9201C45.555 51.9426 45.5813 51.9965 44.8048 52.1425C44.4006 52.2186 43.9922 52.2953 43.5805 52.3724C43.5353 52.3808 43.4806 52.3933 43.4159 52.4093L43.3281 52.4267C43.0775 52.4615 42.8257 52.4965 42.5729 52.5316L43.3738 51.6292C43.3715 51.7104 43.3692 51.7918 43.3668 51.8732L43.3607 52.1019L43.2425 52.3055C43.2247 52.3335 43.186 52.4195 43.1541 52.5133C43.034 52.8651 42.962 53.3282 42.9346 53.769C42.8261 55.5601 42.7161 57.3799 42.6142 59.175L42.5746 59.8536L41.9129 60.005C41.3646 60.1314 40.82 60.2645 40.281 60.4045C39.7801 60.5359 40.4341 60.4578 39.7121 60.6518C38.2798 61.0421 36.7978 61.4961 35.3557 62.0437C34.3732 62.419 33.4065 62.8348 32.534 63.3249C31.6939 63.7607 30.8052 64.5683 30.8472 64.76C30.846 64.7664 30.8451 64.7717 30.8444 64.7767C30.8522 64.8962 30.7786 64.8408 30.7737 64.89C30.774 64.8934 30.7745 64.8969 30.775 64.9004L31.1907 65.88L30.0906 66.0256C30.0643 66.0265 30.0378 66.0275 30.011 66.0288L30.5621 65.704C30.5434 65.7245 30.5247 65.7452 30.5059 65.7662L29.8034 66.6627L29.3026 65.7785C29.2851 65.727 29.2634 65.6929 29.2386 65.6698C29.1674 65.5684 28.7712 65.5986 28.4341 65.7469C28.0961 65.8846 27.821 66.0614 27.7341 66.106C26.5728 66.7306 25.4867 67.5982 24.4762 68.4529C21.1316 71.3637 18.3512 74.3813 15.3091 78.2755C15.2098 78.4041 15.1098 78.5337 15.0093 78.6641C14.7855 78.9549 13.1752 81.2789 12.2787 82.1802C12.2212 82.2384 11.4308 83.0268 10.838 83.8926L10.8558 83.8693C10.8197 83.9259 10.7844 83.9827 10.7502 84.0397C10.7149 84.0985 11.2389 83.5177 10.429 84.6043C9.61906 85.691 8.36852 87.4769 7.1942 88.928C6.82253 89.3874 5.87284 90.4236 4.92819 91.9088C4.91164 91.9351 4.7978 92.1261 4.62612 92.4039L4.0415 91.1483C4.86828 91.0135 6.40627 90.7899 7.06107 90.889C7.20661 90.9115 7.04176 91.1345 9.01429 90.8862C9.39114 90.8385 8.71132 90.8396 9.70289 90.7398C10.8658 90.6226 12.3145 90.5447 13.7686 90.413L13.7993 90.4114C14.244 90.3873 14.6895 90.3581 15.1277 90.3208C15.4535 90.2929 16.8466 90.1009 17.9449 90.1718C18.1168 90.1829 17.7812 90.2653 18.3655 90.2528C21.1438 90.1939 24.0604 90.0435 26.8806 89.9906C27.8795 89.9716 27.3584 90.1048 28.3986 90.0976C29.4391 90.0904 31.5379 90.0426 32.6336 89.9494C33.7296 89.8561 32.5524 89.7182 34.1889 89.6421C34.3935 89.6326 34.5981 89.6232 34.8026 89.6139L34.7561 89.6169C36.565 89.4403 38.3654 89.2925 40.1625 89.1546L41.0852 89.085L41.0314 90.0155C40.8244 93.6698 40.5934 97.3171 40.3728 100.972L40.3741 100.92C40.3729 101.666 40.3722 102.413 40.3721 103.16L39.4769 102.428C40.1829 102.298 40.8893 102.168 41.5962 102.037L41.6456 102.029C41.6974 102.023 41.7491 102.016 41.8009 102.01C42.8577 101.877 41.9813 101.924 43.5386 101.724C47.5313 101.209 53.5409 100.408 58.5071 99.7962C60.6825 99.5283 62.6578 99.297 64.1756 99.143C68.1682 98.7376 63.1452 99.4709 66.1959 99.1215C67.668 98.9526 69.2591 98.5356 69.6144 98.4829C73.0852 97.9657 75.4983 97.7457 78.6224 97.3102C79.2675 97.2202 78.6341 97.2172 79.1832 97.1416C81.0586 96.8824 83.03 96.6633 84.8222 96.422C85.6262 96.3135 85.4775 96.2676 86.2174 96.1759C87.9877 95.9555 89.5533 95.7777 91.2795 95.6123C91.4369 95.5972 90.377 95.8176 91.6867 95.6487C93.8065 95.3749 96.4382 95.0889 98.8764 94.7047C99.5998 94.5904 99.6268 94.4376 101.183 94.335C101.51 94.3133 101.095 94.5475 102.905 94.153C103.21 94.087 106.251 93.475 107.746 93.4108C108.141 93.3939 109.148 93.4066 110.018 93.2678C110.136 93.2484 109.662 93.2313 110.383 93.1274C110.727 93.0781 111.073 93.0291 111.421 92.9803C113.644 92.6683 115.941 92.3647 118.198 92.0404C118.895 91.94 117.856 91.9964 118.895 91.8495C121.751 91.4453 125.319 90.9859 128.113 90.6338C129.143 90.5042 128.432 90.6691 128.507 90.6664C129.714 90.6248 130.425 90.3642 130.825 90.3004C133.312 89.9057 135.207 89.7249 137.5 89.3916C138.133 89.2998 137.683 89.2829 137.809 89.2588C139.115 89.0122 138.143 89.2855 138.971 89.188C141.288 88.9152 143.87 88.5546 146.213 88.222C147.074 88.0997 146.105 88.1423 146.877 88.0336C151.448 87.3882 156.2 86.7372 160.662 86.163C161.502 86.055 160.974 86.1987 161.15 86.1902C162.217 86.1395 163.719 85.8213 164.336 85.6983C164.417 85.6821 164.483 85.6692 164.53 85.6609C166.379 85.3347 167.099 85.2951 168.732 85.053C176.712 83.8699 186.567 82.4968 194.1 81.423C199.614 80.6374 204.435 79.956 209.26 79.2576L209.325 79.2507C211.521 79.1126 213.719 78.9709 215.985 78.8234L216.01 78.8221C217.07 78.7879 218.143 78.7545 219.237 78.7185C219.801 78.6999 220.38 78.6805 220.957 78.6608C221.552 78.6405 220.963 78.5662 221.472 78.5476C228.071 78.3096 234.558 78.1115 241.171 77.6914C241.713 77.6566 240.937 77.6155 241.807 77.5561C242.485 77.5093 243.233 77.4588 243.996 77.4073C245.241 77.3233 246.536 77.2305 247.656 77.1562C248.537 77.0971 247.351 77.2708 248.238 77.2094C250.304 77.0655 252.523 76.8721 254.651 76.6647C255.556 76.5761 254.193 76.6099 255.37 76.5018C255.693 76.472 256.016 76.4422 256.34 76.4123C259.945 76.079 263.528 75.7487 267.119 75.4568L267.142 75.4551C271.193 75.2294 275.253 75.0253 279.369 74.8588C279.923 74.8364 280.397 74.994 281.578 74.8945C281.671 74.8385 281.67 74.7786 281.712 74.7218C283.374 74.6273 285.034 74.5358 286.691 74.447C289.927 74.2735 293.157 74.1112 296.385 73.957L296.363 73.9584C297.774 73.8547 299.184 73.7515 300.595 73.6485L299.712 74.7052C299.565 73.3618 299.418 72.0179 299.271 70.6733L299.268 70.6522C298.95 66.8314 298.637 63.0028 298.324 59.1578C298.314 59.0374 298.305 58.917 298.295 58.7966C298.255 58.3056 298.228 59.1738 298.151 58.2233C297.701 52.7219 297.249 47.3828 296.907 41.7321C296.873 41.1714 297.064 41.4242 296.911 39.7827C296.884 39.4932 296.67 37.0174 296.585 36.3834C296.573 36.2974 296.528 36.7657 296.465 35.9669C296.327 34.2212 296.192 32.443 296.061 30.6564L296.064 30.6864C295.931 29.4723 295.799 28.2542 295.669 27.0399L296.513 27.675C295.336 27.847 294.163 28.0166 293 28.1827L292.971 28.1866C292.409 28.2464 291.849 28.3055 291.292 28.3636C290.541 28.4419 291.342 28.265 290.806 28.32C288.102 28.5983 285.227 28.9491 282.486 29.2483L281.316 29.3782L281.924 28.2997C282.502 27.2774 283.071 26.2765 283.624 25.3173C284.909 23.086 284.575 23.9792 285.353 22.8372C285.463 22.6758 286.223 21.2757 286.333 21.2359C286.615 21.1329 286.448 21.905 286.791 21.715C286.866 21.6759 287.827 19.7684 287.333 20.9317C287.298 21.0132 286.598 22.395 286.45 22.7465C286.346 22.9914 286.648 22.604 286.42 23.0954C286.191 23.5868 285.844 24.082 285.446 24.8878C285.048 25.6931 285.324 25.3871 284.462 26.9638ZM73.904 46.188C72.5643 46.3549 72.3858 46.6877 73.8249 46.3489C73.8946 46.3321 73.9731 46.1792 73.904 46.188ZM235.498 18.2289C233.746 18.3777 232.558 18.763 233.794 18.6663C235.03 18.5696 236.032 18.1834 235.498 18.2289ZM253.612 15.2631C251.566 15.4797 251.259 15.9523 253.443 15.524C253.57 15.4993 253.732 15.2504 253.612 15.2631ZM282.32 28.4059C282.333 28.3906 282.896 27.3916 282.906 27.366C283.123 26.7941 281.998 28.7914 282.32 28.4059ZM271.59 12.3745C271.41 12.3859 271.136 12.4215 270.852 12.4657C270.127 12.5787 269.34 12.7481 269.911 12.7118C270.134 12.6977 270.504 12.6461 270.856 12.5871C271.512 12.4771 272.108 12.3417 271.59 12.3745ZM16.2476 75.967C16.2294 75.981 15.702 76.6178 15.7315 76.6202C15.8252 76.6229 16.5401 75.7231 16.2476 75.967ZM288.076 17.9499C290.209 13.6757 291.801 11.2073 289.459 15.8539C289.034 16.6953 290.261 13.9944 289.702 15.0573C288.678 17.0022 288.225 18.387 287.128 20.3503C286.929 20.7057 287.954 18.1934 288.079 17.9421C288.078 17.9447 288.077 17.9473 288.076 17.9499ZM73.1132 45.9749C73.0862 45.9759 72.0149 46.1711 71.9894 46.1798C71.4152 46.3816 73.5736 45.9883 73.1132 45.9749ZM30.2543 90.834C30.3126 90.8405 32.7938 90.7563 32.8754 90.7453C34.1831 90.541 29.167 90.7107 30.2543 90.834ZM145.272 32.8172C146.437 32.5188 147.835 32.2646 148.774 32.2218C147.611 32.4173 146.441 32.6196 145.272 32.8172ZM164.715 34.3951C164.78 34.3959 164.811 34.3394 164.779 34.3178C164.771 34.3104 164.743 34.269 164.734 34.2632C164.716 34.2528 164.723 34.2792 164.697 34.2715C164.688 34.2689 164.642 34.2041 164.633 34.2031C164.587 34.1988 164.571 34.2404 164.527 34.2613C164.526 34.2625 164.524 34.2635 164.523 34.2646C164.015 34.5876 163.794 34.5705 163.502 34.6512C163.41 34.6705 163.29 34.6313 163.208 34.6903C163.198 34.6973 163.217 34.7663 163.216 34.7728C163.201 34.8718 163.186 34.7254 163.162 34.7124C163.069 34.661 162.981 34.6793 162.91 34.7276C162.879 34.7485 162.933 34.8817 162.888 34.8108C162.885 34.8061 162.882 34.7278 162.872 34.7221C162.849 34.7093 162.814 34.7331 162.797 34.7312C162.766 34.7271 162.761 34.7292 162.733 34.7357C162.694 34.744 162.644 34.7178 162.605 34.7455C162.597 34.7517 162.619 34.827 162.607 34.8439C162.594 34.8607 162.556 34.8635 162.542 34.8481C162.527 34.8328 162.524 34.7699 162.52 34.7563C162.487 34.6417 162.465 34.8173 162.46 34.8228C162.369 34.9172 162.272 34.8437 162.179 34.8661C162.108 34.8834 162.037 34.9323 161.969 34.9438C161.934 34.9497 161.899 34.9477 161.866 34.9458C161.824 34.9435 161.783 34.9415 161.741 34.9556C161.733 34.9582 161.753 35.0484 161.743 35.0517C161.64 35.0872 161.535 35.1016 161.426 35.0645C161.415 35.0607 161.418 34.9764 161.406 34.9678C161.336 34.9165 161.212 34.7835 161.227 35.1439C161.184 35.1412 161.135 35.1404 161.088 35.0806C161.057 35.0423 161.063 34.9488 161.042 34.9944C161.038 35.0046 161.06 35.078 161.052 35.0875C161.031 35.113 161.006 35.1172 160.986 35.1304C160.972 35.1385 160.959 35.1495 160.949 35.1681C160.944 35.179 160.963 35.2448 160.964 35.2576C160.971 35.3612 160.9 35.2125 160.889 35.2038C160.815 35.1374 160.787 35.187 160.742 35.2049C160.732 35.2091 160.774 35.2903 160.765 35.2973C160.763 35.299 160.76 35.3008 160.758 35.3024L160.605 34.4369C160.665 34.4175 160.727 34.418 160.787 34.4496C160.801 34.4572 160.79 34.5398 160.797 34.5476C160.827 34.5809 160.83 34.4274 160.858 34.4564C160.864 34.4623 160.863 34.5319 160.864 34.5394C160.883 34.6562 160.894 34.4852 160.898 34.4808C160.952 34.4221 160.99 34.5935 161.043 34.561C161.049 34.5569 161.033 34.4714 161.051 34.4654C161.168 34.4244 161.294 34.4306 161.412 34.4839C161.43 34.4921 161.419 34.5597 161.42 34.5676C161.441 34.6916 161.45 34.5202 161.456 34.5129C161.502 34.4603 161.548 34.5963 161.576 34.3897C161.775 34.4316 161.97 34.29 162.17 34.443C162.173 34.4448 162.17 34.529 162.175 34.5321C162.236 34.5704 162.222 34.4422 162.259 34.2777C162.268 34.2364 162.302 34.4238 162.305 34.4375C162.316 34.4879 162.308 34.6137 162.311 34.6232C162.34 34.6981 162.328 34.2876 162.364 34.2823C162.366 34.2828 162.362 34.3591 162.365 34.3662C162.375 34.3885 162.384 34.3571 162.394 34.3818C162.417 34.439 162.428 34.6377 162.459 34.5168C162.463 34.5011 162.452 34.2688 162.485 34.2751C162.498 34.2778 162.556 34.2656 162.572 34.2784C162.588 34.2912 162.579 34.3679 162.58 34.371C162.626 34.4642 162.61 34.5077 162.635 34.6518C162.659 34.7952 162.646 34.4465 162.654 34.4062C162.663 34.366 162.696 34.4435 162.705 34.4708C162.713 34.4982 162.704 34.5474 162.711 34.5625C162.76 34.6614 162.728 34.3861 162.743 34.3284C162.776 34.1919 162.809 34.4472 162.842 34.4679C162.851 34.4735 162.843 34.4155 162.851 34.4088C162.882 34.3833 162.902 34.4615 162.936 34.3822C162.942 34.3693 162.968 34.2093 162.989 34.321C162.992 34.3371 162.986 34.4028 162.999 34.4154C163.02 34.4343 163.056 34.4432 163.077 34.4186C163.093 34.4003 163.072 34.2965 163.093 34.3267C163.102 34.3402 163.087 34.4048 163.104 34.425C163.121 34.4452 163.163 34.4364 163.179 34.4319C163.195 34.4274 163.185 34.3479 163.186 34.3423C163.193 34.31 163.224 34.2667 163.226 34.2664C163.364 34.2369 163.494 34.3549 163.627 34.2907C163.637 34.2858 163.629 34.2016 163.63 34.2C163.666 34.1592 163.642 34.3896 163.668 34.4618C163.661 34.2895 163.677 34.3187 163.702 34.2961C163.714 34.2851 163.706 34.2192 163.707 34.2122C163.723 34.1079 163.738 34.2374 163.742 34.2638C163.756 34.3609 163.767 34.2423 163.776 34.3071C163.786 34.3715 163.769 34.4714 163.793 34.4666C163.799 34.4038 163.777 34.2447 163.795 34.2159C163.863 34.1068 163.996 34.2151 164.052 34.2203C164.108 34.2255 164.126 34.2115 164.159 34.2292C164.219 34.2612 164.195 34.1443 164.23 34.0842C164.266 34.0241 164.254 34.3218 164.261 34.3844C164.267 34.4471 164.271 34.381 164.278 34.415C164.286 34.4489 164.273 34.494 164.288 34.505C164.303 34.5159 164.342 34.3972 164.346 34.3301C164.355 34.1879 164.333 34.0431 164.374 34.0892C164.377 34.092 164.371 34.1706 164.38 34.1772C164.451 34.227 164.524 34.2203 164.594 34.2632C164.604 34.2692 164.597 34.3568 164.603 34.3613C164.662 34.4082 164.639 34.2656 164.667 34.0993C164.664 34.3155 164.685 34.4447 164.729 34.4397C164.755 34.4367 164.749 34.3434 164.765 34.2747C164.769 34.254 164.79 34.3158 164.792 34.2712C164.8 34.1251 164.78 33.9659 164.826 34.0238C164.828 34.0266 164.824 34.1066 164.831 34.1104C164.876 34.1353 164.878 33.9835 164.926 33.9583C164.964 33.9385 165.033 34.0211 165.076 34.0299C165.08 34.272 165.119 34.2108 165.133 34.0416C165.161 34.0445 165.191 34.0308 165.218 34.05C165.228 34.0565 165.223 34.1274 165.224 34.1348C165.244 34.251 165.253 34.087 165.259 34.0797C165.304 34.03 165.345 34.0713 165.386 34.0568L165.248 34.2815C165.237 34.2648 165.217 34.2532 165.175 34.2455C165.17 34.2452 165.008 34.3086 165.118 34.2359C165.126 34.232 165.207 34.2282 165.202 34.1888C165.198 34.1424 165.27 34.0624 165.22 33.976C165.204 33.9618 165.118 33.837 165.233 33.8497C165.248 33.8528 165.282 33.8831 165.307 33.8922C165.381 33.9274 165.27 33.8114 165.382 33.8918C165.492 33.974 165.549 34.058 165.532 33.9569C165.531 33.9543 165.48 33.8352 165.493 33.8296C165.515 33.8207 165.552 33.8316 165.572 33.8209C165.582 33.8157 165.548 33.7433 165.549 33.7411C165.604 33.6651 165.677 33.7133 165.756 33.7166C165.77 33.7175 165.782 33.5953 165.829 33.6712C165.876 33.7485 165.934 34.0966 165.974 34.0571L167.368 33.6575L166.001 33.3107C165.997 33.312 165.991 33.3156 165.985 33.322C165.947 33.3561 165.764 33.868 165.796 33.5911C165.687 33.6411 165.644 33.4885 165.527 33.5668C165.522 33.5703 165.467 33.7125 165.458 33.7087C165.445 33.7029 165.457 33.634 165.448 33.6277C165.412 33.5995 165.356 33.6502 165.318 33.6337C165.304 33.6276 165.33 33.5587 165.312 33.5514C165.295 33.5442 165.256 33.6339 165.244 33.5849C165.235 33.5475 165.271 33.3561 165.253 33.3296C165.198 33.5148 165.182 33.5078 165.137 33.5511C165.128 33.5596 165.116 33.6253 165.111 33.6326C165.09 33.6637 165.095 33.6083 165.073 33.6426C165.068 33.6508 165.05 33.7141 165.044 33.7244C164.999 33.8143 165.011 33.6663 165.013 33.6406C165.021 33.5428 164.988 33.6234 164.983 33.5835C164.979 33.5437 165.015 33.5015 165.004 33.4757C164.981 33.4224 164.932 33.424 164.896 33.4143C164.881 33.4108 164.866 33.4972 164.864 33.4986C164.827 33.5144 164.822 33.4188 164.756 33.5841C164.862 33.1448 164.725 33.6229 164.707 33.5277C164.706 33.52 164.762 33.3133 164.784 33.2855C164.806 33.2577 164.807 33.3258 164.839 33.2821C164.847 33.2718 164.928 33.0835 164.935 33.0724C164.988 32.986 164.902 33.2943 164.898 33.3115C164.861 33.4968 164.952 33.2946 164.964 33.2817C165.02 33.2226 165.038 33.2716 165.083 33.2303C165.111 33.2037 165.172 33.0025 165.186 33.0116C165.232 33.0416 165.168 33.3261 165.289 33.0914C165.315 33.0414 165.368 32.8192 165.356 32.9994C165.355 33.0107 165.337 33.1743 165.382 33.0771C165.388 33.0649 165.406 33.0007 165.411 32.9958C165.439 32.9642 165.436 33.0176 165.463 32.9967C165.489 32.9758 165.524 32.9437 165.54 32.9696C165.549 32.9851 165.532 33.1079 165.53 33.1383C165.523 33.2261 165.583 33.0914 165.565 33.1956C165.546 33.3004 165.478 33.4522 165.489 33.524C165.539 33.3574 165.591 33.1867 165.642 33.0193C165.706 33.0373 165.754 33.1031 165.822 33.1079C165.831 33.1083 165.848 33.0171 165.858 33.0153C165.899 33.0078 165.913 33.0777 165.958 33.0593C165.994 33.0447 166.054 32.9558 166.092 32.9376C166.083 32.9841 166.08 33.0162 166.081 33.0386L168.423 33.6328L166.034 34.3173C165.998 34.2609 165.976 34.3042 165.951 34.2997C165.939 34.2977 165.928 34.249 165.916 34.236C165.874 34.1881 165.928 34.343 165.927 34.3709C165.926 34.4892 165.826 34.13 165.791 34.1541C165.789 34.1554 165.824 34.3543 165.827 34.3667C165.835 34.4503 165.803 34.3022 165.788 34.293C165.762 34.2754 165.73 34.2385 165.737 34.2997C165.737 34.3185 165.782 34.4325 165.741 34.3479C165.735 34.337 165.706 34.2794 165.704 34.2763C165.668 34.2246 165.771 34.3995 165.828 34.4412C165.888 34.482 165.851 34.3241 165.825 34.2901C165.766 34.1993 165.775 34.282 165.767 34.2747C165.672 34.2004 165.703 34.1993 165.712 34.1687C165.551 34.0579 165.563 34.0584 165.72 34.1371C165.737 34.1473 165.707 34.1603 165.712 34.1687C165.886 34.2655 165.985 34.1154 165.801 34.045C165.716 34.0222 165.612 34.035 165.649 34.0162C165.666 34.0096 165.808 33.9755 165.845 33.955C165.912 33.9136 165.839 33.9503 165.831 33.9811L165.981 34.7033L165.398 34.6861C165.39 34.6832 165.382 34.6831 165.374 34.688C165.359 34.6978 165.376 34.7742 165.365 34.7836C165.338 34.8089 165.313 34.7534 165.286 34.7875C165.283 34.7907 165.291 34.8721 165.282 34.8743C165.217 34.8932 165.159 34.8487 165.091 34.8569C165.058 34.861 165 34.9147 164.966 34.9105C164.906 34.9036 164.831 34.7944 164.781 34.8307C164.749 34.854 164.757 34.9352 164.744 34.9932C164.719 35.1057 164.667 34.918 164.66 34.8889C164.66 34.8879 164.688 34.8645 164.672 34.8244C164.661 34.7377 164.66 34.8884 164.66 34.8889C164.655 34.87 164.598 34.8594 164.587 34.8767C164.581 34.8862 164.586 34.9636 164.583 34.9671C164.509 35.0476 164.433 35.0782 164.356 35.0528C164.354 35.0514 164.355 34.964 164.351 34.9618C164.306 34.9294 164.28 35.0401 164.244 35.1086C164.209 35.1771 164.179 35.16 164.155 35.0135C164.127 35.0363 164.086 34.9759 164.063 34.939C164.039 34.9021 164.039 35.0722 164.037 35.0758C163.977 35.1921 163.939 35.1002 163.873 35.0944C163.842 35.0913 163.781 35.1247 163.748 35.148C163.722 35.1667 163.705 35.1292 163.681 35.1581C163.678 35.162 163.683 35.237 163.682 35.2401C163.656 35.3343 163.666 35.1478 163.66 35.1157C163.637 34.9987 163.623 34.9366 163.589 34.998C163.581 35.012 163.563 35.2812 163.549 35.2988C163.53 35.3213 163.536 35.225 163.516 35.2509C163.514 35.253 163.516 35.3118 163.504 35.3109C163.446 35.3078 163.383 35.2825 163.324 35.2969C163.316 35.2986 163.328 35.3904 163.316 35.3944C163.261 35.4133 163.201 35.4185 163.147 35.3825C163.133 35.3733 163.14 35.3069 163.137 35.2879C163.117 35.1731 163.096 35.3471 163.091 35.3509C162.995 35.4468 162.917 35.3033 162.818 35.391C162.813 35.3961 162.775 35.5847 162.753 35.4307C162.751 35.4205 162.73 35.2628 162.715 35.3747C162.715 35.3817 162.728 35.4626 162.707 35.4571C162.687 35.4516 162.656 35.5113 162.626 35.4246C162.617 35.3972 162.593 35.2403 162.57 35.3715C162.568 35.3806 162.533 35.6746 162.515 35.4778C162.512 35.4454 162.51 35.2346 162.481 35.3469C162.476 35.3687 162.488 35.4141 162.472 35.4457C162.449 35.4943 162.416 35.4424 162.389 35.5404C162.384 35.5577 162.365 35.7037 162.345 35.5978C162.342 35.5812 162.346 35.5102 162.336 35.5037C162.291 35.4722 162.246 35.5258 162.2 35.4836C162.184 35.4688 162.19 35.3541 162.173 35.326C162.156 35.298 162.122 35.2735 162.105 35.3278C162.089 35.3822 162.111 35.5605 162.086 35.5787C161.974 35.6577 161.86 35.5675 161.747 35.568C161.73 35.5681 161.745 35.6309 161.721 35.6356C161.63 35.6534 161.474 35.7365 161.393 35.6101C161.327 35.5089 161.405 35.4137 161.356 35.3757C161.332 35.3576 161.311 35.5717 161.306 35.5791C161.252 35.6542 161.212 35.5664 161.163 35.6021C161.153 35.6095 161.165 35.6933 161.156 35.6987C161.127 35.7177 161.095 35.6841 161.067 35.6951C161.054 35.7002 161.058 35.765 161.046 35.7617C161.018 35.7544 160.992 35.7306 160.964 35.6734C160.961 35.6682 160.976 35.5848 160.956 35.5847C160.922 35.5848 160.879 35.5306 160.842 35.5983C160.831 35.6186 160.833 35.7675 160.807 35.6682C160.801 35.6475 160.804 35.4678 160.778 35.6263C160.774 35.6527 160.73 35.8679 160.704 35.737C160.697 35.7025 160.678 35.5585 160.665 35.5835C160.663 35.5874 160.672 35.6663 160.661 35.6757C160.65 35.6839 160.64 35.6898 160.63 35.6946L160.358 34.1569C160.393 34.1303 160.432 34.1131 160.465 34.0799C160.476 34.0678 160.432 33.9998 160.451 33.9841C160.502 33.9406 160.578 33.9329 160.636 33.9377C160.658 33.9396 160.661 34.0093 160.664 34.0158C160.715 34.1222 160.69 33.9627 160.695 33.9508C160.697 33.9479 160.698 33.9452 160.7 33.9427C160.748 33.8795 160.801 33.9339 160.842 33.9014C160.854 33.8923 160.831 33.8198 160.832 33.8123C160.847 33.7385 160.852 33.8799 160.871 33.8898C160.924 33.9185 160.97 33.8992 161.01 33.878C161.025 33.8701 160.994 33.7867 161.008 33.7806C161.088 33.743 161.171 33.7308 161.251 33.7613C161.266 33.7672 161.266 33.8377 161.271 33.8526C161.304 33.9569 161.315 33.8008 161.32 33.785C161.343 33.7127 161.362 33.7703 161.387 33.7527C161.488 33.6809 161.614 33.6703 161.723 33.6673C161.747 33.6666 161.77 33.6663 161.792 33.6658C161.949 33.6616 162.074 33.699 162.216 33.6472C162.225 33.644 162.204 33.5552 162.212 33.5513C162.31 33.5048 162.413 33.5157 162.508 33.4639C162.515 33.4598 162.492 33.3769 162.504 33.3675C162.529 33.3476 162.563 33.3435 162.593 33.3638C162.608 33.3735 162.601 33.4518 162.616 33.4601C162.651 33.4794 162.684 33.4768 162.713 33.4545C162.725 33.4448 162.692 33.3628 162.709 33.3571C162.824 33.3163 162.929 33.2696 163.061 33.3463C163.071 33.3516 163.113 33.5248 163.122 33.4858C163.114 33.4368 163.102 33.3796 163.092 33.3275C163.24 33.2492 163.404 33.2528 163.507 33.2114C163.511 33.2099 163.47 33.1265 163.477 33.1232C163.518 33.1047 163.522 33.0666 163.539 33.1692C163.541 33.1799 163.645 33.3011 163.621 33.2903C163.621 33.2901 163.619 33.2898 163.618 33.2896C163.622 33.2743 163.635 33.2345 163.623 33.2048C163.621 33.1996 163.563 33.1509 163.574 33.1379C163.636 33.0637 163.736 32.9932 163.879 32.9436C163.902 32.936 163.926 33.0179 163.942 33.0135C164.052 32.9847 164.162 32.8493 164.311 32.8741C164.405 32.8939 164.404 33.0453 164.461 33.1746C164.469 33.1928 164.505 33.1869 164.515 33.2693C164.539 33.4765 164.556 33.7052 164.584 33.9254C164.589 33.973 164.585 33.9214 164.595 34.0371C164.595 34.0449 164.602 34.0824 164.61 34.1204C164.616 34.1467 164.624 34.2308 164.634 34.2638C164.645 34.2964 164.637 34.2259 164.653 34.2629C164.67 34.2997 164.688 34.3936 164.715 34.3951ZM163.956 34.7743C163.934 34.6959 163.936 34.9947 163.958 34.92C163.959 34.9161 163.957 34.7782 163.956 34.7743ZM165.688 33.3269C165.677 33.4626 165.751 33.2735 165.762 33.169C165.773 33.0646 165.692 33.2857 165.688 33.3269ZM165.386 33.3717C165.387 33.4806 165.515 33.0607 165.457 33.1397C165.453 33.1441 165.386 33.3653 165.386 33.3717ZM164.332 33.2656C164.334 33.2689 164.359 33.2616 164.358 33.2579C164.344 33.1643 164.288 33.1816 164.332 33.2656ZM165.083 33.4254C165.076 33.4841 165.123 33.4235 165.132 33.3505C165.139 33.2918 165.092 33.3523 165.083 33.4254ZM162.846 34.6134C162.846 34.609 162.833 34.6068 162.834 34.6319C162.836 34.7127 162.853 34.6874 162.846 34.6134ZM164.619 33.3446C164.683 33.3731 164.623 33.7283 164.56 33.6753C164.548 33.6658 164.621 33.5699 164.613 33.5354C164.598 33.4725 164.514 33.6868 164.516 33.564C164.516 33.5415 164.616 33.3422 164.619 33.3442C164.619 33.3443 164.619 33.3445 164.619 33.3446ZM163.937 34.4178C163.937 34.4139 163.92 34.4126 163.919 34.4165C163.912 34.5125 163.946 34.5153 163.937 34.4178ZM162.126 34.5311C162.125 34.5228 162.086 34.5206 162.085 34.5285C162.067 34.6863 162.147 34.6913 162.126 34.5311ZM165.077 34.0363C165.093 33.9384 165.115 33.924 165.133 34.0415C165.114 34.0378 165.095 34.0395 165.077 34.0363Z" fill="#00A0BA"/>
</g>
<path d="M257.389 30.0185C257.442 33.2403 257.306 37.4803 257.132 40.6998C257.078 41.7086 257.018 41.2054 256.976 41.9019C256.894 43.2641 256.88 44.5271 256.786 45.8724C256.754 46.3183 256.653 45.7743 256.622 46.2415C256.455 48.8014 256.373 51.2147 256.236 53.7999C256.083 56.6744 255.949 59.5335 255.858 62.382L255.858 62.3309C255.892 64.226 255.928 66.1191 255.966 68.012L255.996 68.9759L255.025 69.1181C253.139 69.3722 251.252 69.6275 249.363 69.8839L250.271 68.8487C250.264 69.3663 250.257 69.8813 250.254 70.3932C250.252 70.6652 250.251 70.9373 250.251 71.2095L250.25 71.186C250.292 73.0309 250.335 74.8784 250.378 76.7306L250.408 77.6137L249.518 77.7527C247.578 78.0368 245.633 78.3219 243.681 78.6082L243.659 78.6112C242.273 78.7787 240.882 78.956 239.487 79.1414C235.295 79.6955 230.191 80.3669 225.856 81.1015C225.35 81.1872 225.656 81.2496 225.56 81.2739C224.054 81.6511 224.549 81.3498 223.561 81.4762C219.642 81.9793 215.285 82.658 211.512 83.2575C209.907 83.512 211.522 83.4952 209.902 83.608C209.789 83.616 210.194 83.4399 209.754 83.4912C208.755 83.6085 206.859 83.8949 206.085 83.9898C204.592 84.1729 204.345 84.2065 202.933 84.3858C201.319 84.5885 199.45 84.7708 197.669 84.9652C197.321 85.0033 196.976 85.0427 196.636 85.0837C196.195 85.1373 196.777 85.1949 196.073 85.2912C195.369 85.3877 193.505 85.5775 192.878 85.6161C192.25 85.6548 192.519 85.5314 192.408 85.5216C191.496 85.4361 189.336 85.9189 189.059 85.9544C184.001 86.5966 179.667 86.9026 174.921 87.389C171.318 87.7585 167.464 88.1953 164.036 88.5308C159.952 88.9299 156.493 89.2053 152.525 89.6025C152.106 89.6443 152.593 89.7385 152.082 89.7897C151.791 89.8188 151.501 89.8478 151.211 89.8767C146.071 90.3874 140.964 90.8558 135.847 91.246C135.304 91.2872 136.007 91.0969 135.466 91.1306C132.15 91.3403 126.908 91.5805 124.921 92.3039C122.674 92.4895 119.946 92.7168 117.939 92.7899C116.645 92.8372 117.908 92.5872 116.314 92.7895C115.954 92.8349 116.418 92.9115 115.879 92.9707C113.61 93.2194 111.133 93.4036 108.888 93.6656C108.432 93.7192 108.553 93.8147 108.423 93.8454C107.331 94.098 105.531 94.0021 105.137 94.0185C105.006 94.024 104.877 94.0298 104.75 94.0358C101.947 94.1675 99.8228 94.4047 97.1479 94.6363C96.4988 94.6924 97.2611 94.7682 96.6364 94.8274C93.3964 95.132 90.0414 95.4118 86.872 95.6226C86.167 95.6692 86.8202 95.4911 86.4835 95.5071C84.9991 95.579 84.6613 95.8378 83.2375 95.9108C82.9373 95.9265 83.1104 95.8075 83.0559 95.8008C82.2044 95.6946 81.4497 96.0137 81.2288 96.0383C78.4344 96.3548 76.6598 96.241 73.9617 96.5083C73.6389 96.5406 74.3615 96.6108 73.4544 96.6933C68.4978 97.1448 63.3089 97.5632 58.3059 97.9158C57.2093 97.9931 56.1215 98.0673 55.0471 98.138C54.118 98.1993 54.7855 98.0446 54.7275 98.0373C53.7814 97.9256 53.1545 98.2332 52.8509 98.268C50.4566 98.5366 48.2309 98.5071 46.594 98.9469C46.2369 98.9728 45.8798 98.999 45.5227 99.0255L45.5587 99.0213C44.8698 99.1195 44.1811 99.2188 43.4927 99.3191L42.9798 99.3993L42.9626 98.8792C42.9463 98.1471 42.9289 97.4155 42.9107 96.6841L42.9109 96.6496C43.0122 94.2473 43.1071 91.8483 43.202 89.4518L43.68 89.9171C37.8085 90.3764 31.9518 90.8254 26.1146 91.1216L26.1361 91.1193C26.0528 91.1288 25.9694 91.1384 25.8861 91.1479C25.7582 91.1627 25.985 91.0051 25.73 91.0353C24.7951 91.1455 24.1997 91.2326 23.7667 91.3152L23.5167 91.3517L23.5622 91.0962C23.6956 90.1089 23.5879 89.9397 23.6784 88.5725L23.686 88.5372C23.6894 88.5105 23.6929 88.4834 23.6966 88.4558C23.7655 87.933 24.4278 86.4032 24.4823 86.2672C24.6813 85.7721 24.7324 86.3203 24.7885 86.153C24.9453 85.679 24.9721 85.3847 24.9583 85.1267L25.0002 85.2456C24.5363 85.1264 24.1172 85.187 23.1458 84.54C23.1002 84.5083 23.3639 84.5394 23.2469 84.4471C22.8835 84.1599 22.4739 83.9444 22.1211 83.6596C21.314 83.0067 21.1907 82.5429 19.7664 81.8158C19.6779 81.7709 19.6423 81.8615 19.4751 81.8603L19.493 81.8714C19.3179 81.8815 18.9932 81.8026 18.2936 81.3949C18.2093 81.3458 18.0802 81.2715 17.9194 81.1795L17.3978 80.8872L17.8536 80.3849C18.1973 80.0116 18.7034 79.4598 19.2055 78.9141L19.2297 78.8891C19.897 78.2413 20.5574 77.6023 20.862 77.3191C21.5081 76.7185 21.147 77.2189 21.1951 77.1783C21.4426 76.9639 21.6445 76.7917 21.8113 76.6525C22.8564 75.7802 22.5241 76.199 23.3818 75.6127C24.3757 74.9323 23.8022 74.8028 24.1122 74.4237C24.4229 74.0441 25.7499 72.9119 26.0841 72.6423C26.4181 72.3729 26.0818 72.7947 26.3699 72.5457C28.2788 70.8925 26.9959 71.5937 27.5379 70.956C27.9577 70.4617 28.3847 70.0436 28.8152 69.6614L28.6792 69.8969C29.0091 68.7948 29.4385 67.7953 29.7436 66.6613C29.8666 66.2042 29.689 66.5667 29.7816 66.1575C29.8757 65.7433 29.9691 65.3726 30.0617 65.0191C30.3316 63.9893 30.5954 63.1066 30.8534 61.7265C30.9101 61.4233 31.0516 59.9059 31.4545 58.9659C31.512 58.8329 31.5098 59.2328 31.7008 58.5466C31.9861 57.5217 32.4641 55.67 32.7059 54.5594C32.8656 53.8257 32.5742 54.4814 32.7271 53.8956C32.746 53.8231 32.7722 53.7328 32.8098 53.6207C32.9778 53.1527 32.7847 54.0365 33.1087 53.1714C33.1808 52.9985 33.2772 52.771 33.4236 52.5196C33.4914 52.4052 33.5683 52.2854 33.6725 52.1672L33.6347 52.2421C33.6513 52.167 33.6682 52.0904 33.6852 52.0127L33.7086 51.8993L33.8222 51.8848C34.0496 51.8587 34.2867 51.8309 34.523 51.8027L34.5064 51.8058C34.5788 51.7882 34.6515 51.7729 34.7243 51.7603C35.3916 51.6451 36.0282 51.5323 36.3967 51.4665C37.2194 51.3195 36.7628 51.2776 36.8289 51.2579C37.2289 51.141 38.8054 50.8078 38.945 50.7837C39.0069 50.7728 39.0687 50.762 39.1305 50.7511C40.0514 50.5895 40.9636 50.4321 41.8691 50.2799C42.431 50.1854 42.9896 50.0935 43.5455 50.0018C44.6113 49.8261 45.6687 49.6555 46.7211 49.487C47.1385 49.42 47.5555 49.3528 47.9722 49.2861C48.9588 49.1282 49.9421 48.9727 50.9247 48.8151C50.9261 48.815 50.9319 48.8139 50.9425 48.8122C51.4241 48.735 51.9059 48.6573 52.388 48.579C53.8613 48.3406 55.3367 48.0969 56.8239 47.8433C57.6119 47.7074 58.4033 47.5703 59.1991 47.4282C59.246 47.4198 59.293 47.4114 59.3399 47.403C59.8778 47.307 59.5135 47.2403 59.5955 47.2244C60.1346 47.1175 60.392 47.092 60.5194 47.1068C60.8235 47.1423 60.3871 47.4063 61.2591 47.3416C61.2693 47.3408 61.2796 47.34 61.2901 47.3392C61.0923 47.1124 61.8539 47.0307 63.1502 46.7836C63.7747 46.6644 63.4297 46.6218 63.4863 46.602C64.4066 46.2938 65.0612 46.3814 65.2293 46.3935C65.85 46.4378 66.5104 46.1512 66.9327 46.1797C67.3547 46.2075 66.4001 46.514 67.6443 46.3033C67.9891 46.1524 67.0545 46.0657 67.9976 45.8682C70.5606 45.3307 74.7345 44.7037 77.9405 44.2286C79.1854 44.0437 80.2844 43.8813 81.0864 43.7547C83.9481 43.3033 84.8715 43.1352 86.54 42.8956C89.5538 42.4637 88.443 42.4648 90.3096 42.0778C92.1818 41.6904 91.2875 42.2802 91.5608 42.3312C91.8292 42.383 92.1143 42.2384 92.4455 42.237C92.7756 42.2358 92.0679 42.4157 92.8403 42.3099C93.2377 42.2555 93.9872 42.0938 94.6583 41.9302C95.2922 41.7757 95.8562 41.6195 95.9872 41.5498C96.5577 41.2461 95.5979 41.1791 97.644 40.9265C97.7617 40.9122 97.3848 41.0898 97.8352 41.0289C101.412 40.5413 105.125 39.9514 108.697 39.4617C109.189 39.3945 108.754 39.5936 109.04 39.556C110.596 39.3516 111.047 39.2412 111.354 39.1105C111.634 38.9911 111.794 38.8549 112.569 38.6158C112.214 38.9959 113.123 39.0495 115.381 38.6938C116.738 38.4802 116.5 38.3765 117.374 38.1386C117.637 38.067 118.6 38.0119 118.772 37.9183C119.339 37.6115 118.425 37.5121 120.757 37.2412C120.859 37.2297 120.538 37.3993 120.891 37.3509C123.174 37.0383 123.44 36.7691 125.905 36.3545C127.837 36.0294 131.28 35.6293 133.482 35.3088C133.447 35.6781 135.524 35.2713 136.359 34.8905C137.788 34.6786 139.33 34.4251 140.712 34.2458C141.188 34.184 140.879 34.3372 140.939 34.3393C141.864 34.3748 142.477 34.0358 142.785 33.9786C146.124 33.3696 148.853 33.135 152.037 32.4665C152.15 32.4427 152.326 32.1629 153.184 32.2162C153.239 32.2204 152.189 32.4961 153.69 32.2755C155.191 32.0548 158.024 31.7584 160.104 31.3255C160.607 31.2209 161.877 30.823 162.905 30.8278C163.042 30.8288 162.895 30.9236 163.093 30.934C163.732 30.9657 164.073 30.6587 164.827 30.7619C165.58 30.8651 167.141 30.7921 169.237 30.3271C169.304 30.3127 169.796 30.0362 170.457 29.9402C171.512 29.7871 173.01 29.6048 174.112 29.4389C174.639 29.3593 174.298 29.2845 174.39 29.2685C177.934 28.6687 180.46 28.4052 184.26 27.8923C184.957 27.7986 186.954 27.3326 188.305 27.2697C189.789 27.2003 188.283 28.0382 191.681 27.3933C193.052 27.1339 194.772 26.0994 197.247 26.1455C202.028 25.3505 206.456 24.9208 211.25 24.0938C211.466 24.0567 212.144 23.7416 212.651 23.6724C213.404 23.5702 213.819 23.6134 214.357 23.5438C215.487 23.3989 216.569 23.2315 217.64 23.0638C218.705 22.8971 219.76 22.7302 220.842 22.5849C221.667 22.4741 221.38 22.6199 222.364 22.4879C223.347 22.3561 224 22.1257 225.333 22.0071C226.34 21.918 227.35 22.0618 228.686 21.9098C228.732 21.6229 229.649 21.5014 231.278 21.2024C231.591 21.1448 231.254 21.0938 231.402 21.0616C231.945 20.9413 232.453 20.9324 232.966 20.8342C233.023 20.8234 233.079 20.8115 233.136 20.7983C233.275 20.766 233.28 20.6696 233.394 20.6378C234.36 20.3637 235.959 20.3599 236.234 20.3599C237.286 20.3582 237.775 20.1668 238.582 20.1128C239.387 20.059 238.185 20.2931 239.125 20.1989C241.074 20.0035 243.576 19.6486 245.554 19.3866C246.343 19.2815 245.803 19.2264 245.916 19.2084C246.723 19.0837 247.534 18.9998 248.258 18.9016C248.555 18.8612 248.837 18.8182 249.098 18.7691C249.486 18.6902 249.827 18.598 250.099 18.4804C251.247 18.9676 251.081 18.27 253.417 18.0534C253.601 18.0366 253.843 18.312 253.139 18.4627C252.435 18.6134 251.363 18.676 250.386 18.893C250.23 18.9276 249.575 19.1623 249.112 19.3244C248.882 19.3999 248.703 19.4584 248.645 19.472C248.507 19.5039 248.381 19.5287 248.265 19.5472C247.188 19.7194 247.013 19.3615 246.945 19.3475C246.091 19.1864 244.472 19.7191 244.045 19.7986C242.092 20.1621 240.431 20.3226 238.797 20.6165C237.728 20.8083 237.628 21.1268 236.788 21.2323C235.115 21.4429 234.093 21.4233 232.977 21.5309C232.231 21.6029 231.444 21.7318 230.393 22.0247C229.83 22.1812 230.395 22.4358 228.371 22.4544C228.244 22.4555 226.74 22.4246 225.876 22.6966C225.767 22.7308 225.772 22.8272 225.629 22.8553C224.668 23.0419 224.025 23.0543 222.977 23.2378C221.93 23.4214 220.671 23.6532 219.474 23.7889C218.853 23.8594 218.078 23.8322 217.654 23.8263C217.586 23.8254 217.527 23.825 217.479 23.8256C216.502 23.836 215.461 24.1926 214.854 24.1242C214.242 24.0557 215.428 23.6516 213.829 23.7782C213.775 24.0381 213.644 24.3156 213.554 24.5821C210.055 25.0703 206.61 25.4817 203.1 25.9988C202.665 26.0632 203.113 26.1342 202.647 26.2067C200.679 26.5122 198.957 26.6647 196.917 26.9997C195.337 27.2596 193.608 27.6553 191.957 27.9331C190.941 27.7929 188.491 28.25 186.71 28.4861C186.086 28.5689 186.126 28.4859 185.681 28.5263C184.005 28.6805 184.796 28.819 184.338 28.9267C182.373 29.3884 182.191 28.8379 179.87 29.1966C179.747 29.2154 178.252 29.7454 178.045 29.7953C176.733 30.1157 177.825 29.721 177.001 29.821C175.497 30.0036 174.45 30.0863 172.689 30.4401C172.176 30.5437 170.947 30.9196 169.945 30.9218C169.813 30.9222 169.883 30.81 169.777 30.8199C167.86 31.0087 167.819 31.3348 166.728 31.6074C165.637 31.88 163.942 31.9156 163.596 31.9043C162.692 31.8766 164.283 31.7301 164.331 31.7067C164.898 31.4288 163.667 31.648 162.725 31.7744C162.58 31.4829 161.264 31.7012 161.749 31.9067C161.804 31.9289 162.536 31.7887 162.725 31.7744C161.907 32.2057 160.462 32.4642 158.855 32.4211C158.103 32.4008 158.806 32.1366 156.535 32.54C155.504 32.7231 155.909 32.8772 155.001 33.0747C152.925 33.5257 150.218 33.7392 148.075 34.1004C147.297 34.2315 148.059 34.2326 147.527 34.3262C146.117 34.5752 144.87 34.6788 143.455 34.9429C143.326 34.9669 143.644 35.0416 143.203 35.1112C139.863 35.6416 136.952 36.0142 133.464 36.5557C131.779 36.8173 128.768 37.3562 127.022 37.6165C123.996 38.0678 120.268 38.4753 117.685 38.9274C116 39.2217 116.374 39.2863 115.655 39.4845C114.267 39.8675 111.789 39.968 111.456 39.9758C111.445 39.9759 112.895 39.7166 112.119 39.7763C111.664 39.7162 111.472 39.9726 111.456 39.9758C111.442 39.9762 111.418 39.9781 111.385 39.9816C110.885 40.0337 108.302 40.4215 107.763 40.5298C107.451 40.5926 107.63 40.6812 107.468 40.7117C103.597 41.4343 99.7177 42.0876 95.7866 42.6689C95.7174 42.6777 95.8165 42.5305 95.6537 42.553C95.3149 42.5991 94.9944 42.6472 94.688 42.6969C92.9359 42.9814 91.6481 43.3191 90.0546 43.6598C88.1828 44.06 86.6943 44.2717 85.5749 44.2299C84.161 44.4899 82.1267 44.7247 80.9559 44.8573C79.7851 44.9899 79.6327 45.2705 79.5302 45.2925C78.9854 45.4099 78.4795 45.5121 77.9986 45.6035C75.6551 46.0485 73.9051 46.2352 71.1448 46.677C69.5631 46.9296 66.4283 47.4922 64.7177 47.8083C63.3671 48.0581 62.5497 48.1363 61.3068 48.3843C61.3042 48.3848 61.3029 48.385 61.3016 48.3853C61.1342 48.4185 61.3086 48.5029 61.2577 48.5159C60.9413 48.6003 60.7301 48.6456 60.5906 48.6644C60.1252 48.7278 60.4638 48.4966 60.2404 48.4963C59.8832 48.4954 59.5729 48.4962 59.249 48.5129C58.6386 48.5447 57.9794 48.6314 56.8729 48.8703C56.8361 48.8781 56.8006 48.8858 56.7645 48.8936C56.3546 48.9824 55.1765 49.5828 54.4288 49.7338C53.4564 49.9295 53.8172 49.7244 52.799 49.9331C52.7331 49.9465 52.7299 49.9983 52.4591 50.0677C52.373 50.0899 52.2584 50.114 52.1054 50.1393C51.7455 50.199 51.3817 50.2587 51.0145 50.3187C51.0287 50.3161 51.0228 50.3172 50.9952 50.322C50.0303 50.4794 49.042 50.6379 48.0466 50.8001C47.6316 50.8677 47.2143 50.9364 46.7956 51.0052C45.7344 51.1793 44.6712 51.3566 43.6227 51.5386C43.4011 51.5771 43.1802 51.6156 42.9602 51.6542C42.5454 51.7267 43.0839 51.7741 42.4851 51.881C42.309 51.9125 42.132 51.9441 41.9543 51.9757C41.0598 52.1352 40.141 52.298 39.2169 52.457C37.7277 52.7132 36.2281 52.9628 34.7983 53.1865C34.7612 53.1917 34.721 53.1988 34.6803 53.2075L34.523 53.2365C34.2872 53.2608 34.0535 53.2845 33.8222 53.3074L35.0647 52.1468C35.062 52.1587 35.0592 52.1706 35.0564 52.1825C35.038 52.2607 35.0216 52.3242 35.007 52.3755L34.9256 52.7519L34.6715 53.0394C34.635 53.0456 34.5907 52.9761 34.5535 52.9881C34.5325 53.0017 34.509 53.0234 34.4853 53.0504C34.2922 53.2687 34.1562 53.7335 34.1156 54.0844C34.0543 54.5027 34.0273 54.8376 34.0053 54.9359C33.17 58.6884 32.3079 61.7659 31.444 65.2064C31.1408 66.4141 30.8375 67.6668 30.535 69.0091C30.5088 69.126 30.4472 69.5733 30.3509 70.1232L30.2437 70.5489L29.9295 70.8523C29.384 71.4566 28.6709 72.1997 28.1557 72.5216C28.0957 72.5596 27.2184 73.0991 26.6849 73.835C26.6518 73.8807 27.1818 73.5267 26.3877 74.2842C25.5937 75.0418 24.382 76.3316 23.2144 77.2916C23.1049 77.3818 22.9431 77.5001 22.7464 77.6512C22.28 78.0095 21.617 78.553 20.986 79.3455C20.9617 79.3765 20.7192 79.7175 20.3899 80.1282L20.4507 80.0654C20.061 80.6123 19.5364 81.281 19.1217 81.5575L18.9539 79.5324C18.9787 79.5592 19.001 79.586 19.0203 79.6129C19.0911 79.7128 18.8104 79.9371 20.2169 80.5393C20.278 80.5653 20.3037 80.5688 20.315 80.5626L20.3715 80.5974C20.3769 80.5948 20.3793 80.59 20.3808 80.5843L20.3235 80.549C20.3265 80.5342 20.3227 80.5141 20.3478 80.5103L20.4073 80.547C20.444 80.5439 20.5399 80.5802 20.8015 80.7324C21.8113 81.319 23.0424 82.247 24.319 82.9184C24.5196 83.0235 25.3624 83.361 25.9729 83.8744L26.7258 84.3823L26.4871 85.3326C26.4551 85.4251 26.4203 85.516 26.3825 85.6043C26.323 85.7429 26.2877 85.4596 26.1587 85.9366C25.9072 86.8659 25.6719 87.8162 25.4377 88.7727L25.4549 88.6926C25.3031 89.5246 25.1526 90.361 24.9929 91.1929L23.7404 89.8517C24.2877 89.7794 24.8335 89.7117 25.3753 89.6526C25.9239 89.5926 25.9149 89.6772 26.111 89.716L26.1777 89.7087C26.2703 89.7337 26.4109 89.751 26.6859 89.7447C27.5308 89.7253 29.2349 89.6376 30.1244 89.4905C31.0142 89.3435 30.0582 89.1451 31.3869 89.0203C35.5302 88.6312 39.6399 88.3742 43.7593 88.1017L45.0525 88.0075L44.9945 89.3041C44.9099 90.9508 44.827 92.5986 44.7551 94.2489C44.7174 95.1147 44.8423 94.3893 44.7939 95.6645C44.7838 95.9313 44.7736 96.209 44.7632 96.4963L44.7637 96.4044C44.7848 97.0868 44.8086 97.8237 44.8335 98.5968L43.4401 97.4406C44.1055 97.337 44.7979 97.2292 45.5054 97.1196L45.5979 97.1088C49.7603 96.7487 54.4429 96.3596 57.2196 96.2704C57.8403 96.2504 58.1906 96.2516 58.3692 96.2655C58.6278 96.2857 58.5264 96.3326 58.3648 96.3808C58.1056 96.4581 57.6917 96.5386 58.3596 96.5171C58.4811 96.5132 58.6385 96.5059 58.8391 96.4946C60.0289 96.4273 61.3295 96.0014 61.6174 95.9673C64.4299 95.6298 66.3765 95.606 68.9061 95.349C69.4285 95.2959 68.9213 95.2104 69.3658 95.1666C70.8842 95.0159 72.477 94.938 73.9276 94.804C74.5783 94.7437 74.4621 94.6555 75.0604 94.6121C76.4922 94.5071 77.7573 94.4402 79.1503 94.4128C79.2773 94.4103 78.4146 94.6061 79.4742 94.5199C81.1892 94.38 83.315 94.2879 85.2918 94.0237C85.8784 93.9449 85.9094 93.7182 87.1624 93.7645C87.4253 93.7741 87.0789 94.0732 88.5533 93.713C88.8013 93.6529 91.2752 93.1246 92.4768 93.2218C92.7938 93.2474 93.6 93.3972 94.3053 93.301C94.401 93.2871 94.0227 93.1998 94.6065 93.137C96.6643 92.9178 98.819 92.7415 100.933 92.5172C101.497 92.4571 100.661 92.4064 101.503 92.3207C102.53 92.216 103.669 92.1136 104.817 92.0178C106.255 91.8976 107.705 91.7877 108.961 91.697C109.794 91.6371 109.215 91.7921 109.275 91.7979C110.245 91.8937 110.829 91.5948 111.154 91.5513C113.17 91.2842 114.699 91.262 116.556 91.0632C117.069 91.0086 116.709 90.9237 116.812 90.904C117.872 90.7054 117.078 90.9885 117.746 90.9511C119.619 90.8469 121.71 90.6467 123.607 90.4577C124.303 90.3881 123.525 90.3233 124.15 90.2624C127.85 89.8992 131.696 89.5553 135.304 89.2918C135.984 89.2425 135.553 89.3878 135.694 89.3985C136.666 89.4749 138.104 89.1107 138.434 89.0578C139.934 88.8166 140.513 88.8545 141.836 88.7114C144.772 88.3931 148.021 88.0729 151.264 87.764C155.158 87.3934 159.044 87.0389 162.371 86.7288C170.317 85.9868 176.482 85.4577 184.062 84.64C184.544 84.5881 184.061 84.4991 184.476 84.4526C188.907 83.9608 193.28 83.528 197.697 83.0395C198.62 82.9374 199.545 82.8279 200.474 82.7106C200.913 82.6552 200.281 82.5986 200.985 82.5049C202.43 82.3114 204.26 82.0832 205.723 81.9273C206.437 81.8509 205.481 82.0941 206.2 82.0146C207.873 81.8292 209.667 81.5823 211.386 81.307C212.117 81.1894 211.01 81.2182 211.961 81.0756C218.438 80.0986 224.809 79.0216 231.386 78.1913C231.837 78.1346 232.24 78.3478 233.197 78.1513C233.267 78.0644 233.26 77.9756 233.29 77.8896C236.749 77.3544 240.2 76.8672 243.653 76.445L243.62 76.4496C245.566 76.1615 247.511 75.8761 249.458 75.591L248.225 77.0559C248.182 75.2094 248.14 73.3618 248.096 71.5115L248.095 71.4795C248.096 71.2057 248.096 70.9318 248.097 70.6576C248.1 70.1338 248.106 69.6131 248.112 69.096L248.128 67.8767L249.324 67.7141C250.738 67.5194 252.155 67.3233 253.574 67.1251C253.974 67.0692 253.281 67.0215 254.055 66.9126C254.365 66.8689 254.674 66.8252 254.983 66.7814L253.642 68.3588C253.591 66.4576 253.536 64.5761 253.493 62.6838L253.493 62.6137C253.556 60.3308 253.663 58.0347 253.831 55.6762C253.864 55.2144 254.108 55.43 254.127 54.0759C254.13 53.8368 254.186 51.7959 254.155 51.272C254.149 51.2009 254.014 51.5827 254.04 50.9247C254.195 47.1002 254.408 43.0971 254.598 39.2899C254.629 38.6756 254.735 39.3171 254.758 38.8793C254.92 35.7723 254.877 32.4203 254.969 29.4625C254.977 29.2315 254.986 29.0368 254.997 28.8716C255.08 27.6149 255.277 28.0529 255.458 27.0985C255.487 26.9457 255.479 25.7195 255.604 25.6395C255.917 25.4347 256.267 25.9825 256.6 25.6941C256.672 25.633 256.576 24.0012 256.762 24.9501C256.774 25.0165 256.845 26.1994 256.907 26.4847C256.95 26.6834 257.073 26.2986 257.13 26.7082C257.186 27.1178 257.084 27.5897 257.153 28.272C257.166 28.4065 257.183 28.5019 257.201 28.579C257.273 28.8949 257.371 28.9048 257.389 30.0185ZM75.6841 45.459C74.5971 45.5167 74.4567 45.9891 75.622 45.6883C75.6784 45.6732 75.7402 45.4557 75.6841 45.459ZM206.623 25.1426C205.204 25.1483 204.241 25.5779 205.243 25.5868C206.244 25.5955 207.056 25.1406 206.623 25.1426ZM221.297 22.915C219.64 22.9916 219.391 23.663 221.16 23.2858C221.263 23.2641 221.394 22.9104 221.297 22.915ZM255.543 31.966C255.55 31.9503 255.558 31.0686 255.552 31.0482C255.412 30.5965 255.395 32.3585 255.543 31.966ZM235.86 20.7386C235.342 20.7234 233.856 21.0268 234.5 21.0455C235.017 21.0604 236.504 20.7573 235.86 20.7386ZM29.9655 66.644C29.9548 66.6604 29.7932 67.2914 29.8327 67.2836C29.9603 67.2566 30.1441 66.3728 29.9655 66.644ZM255.652 22.7659C255.58 19.0899 256.043 16.7854 256.089 20.7935C256.097 21.5193 255.882 19.2574 255.859 20.1862C255.817 21.8857 256.174 22.9568 256.044 24.7043C256.02 25.0206 255.655 22.9758 255.651 22.7595C255.652 22.7616 255.652 22.7638 255.652 22.7659ZM75.0382 45.0268C75.0164 45.0244 74.1479 45.1631 74.1273 45.1724C73.6632 45.3921 75.4128 45.1128 75.0382 45.0268ZM28.1938 90.8315C28.2411 90.8405 30.2554 90.6965 30.3217 90.6797C31.3831 90.3644 27.3108 90.6549 28.1938 90.8315ZM133.517 35.3131C134.46 35.0226 135.593 34.8294 136.355 34.891C135.412 35.028 134.464 35.1742 133.517 35.3131Z" fill="url(#paint1_linear_2103_5804)"/>
<g filter="url(#filter1_f_2103_5804)">
<path d="M69.0789 61.8501C69.0898 60.1829 68.5533 58.9746 67.4693 58.2252C66.3962 57.4744 64.8961 57.2173 62.969 57.4539C61.5893 57.6233 60.3575 57.9952 59.2735 58.5696C58.2004 59.1316 57.3245 59.8348 56.6456 60.6794C55.9777 61.5116 55.5671 62.4169 55.4138 63.3955C55.2714 64.2183 55.3426 64.9046 55.6273 65.4543C55.9229 66.0027 56.3445 66.4419 56.892 66.7718C57.4504 67.0893 58.0636 67.3395 58.7315 67.5223C59.3994 67.694 60.0454 67.8243 60.6696 67.9131L63.8231 68.3864C64.8414 68.5261 65.8761 68.7576 66.9273 69.0808C67.9784 69.4041 68.9256 69.8835 69.7687 70.5191C70.6118 71.1547 71.2414 71.9931 71.6575 73.0341C72.0736 74.0752 72.1557 75.3724 71.9038 76.9257C71.5754 78.8855 70.8034 80.6847 69.588 82.3233C68.3726 83.9618 66.7685 85.3337 64.7757 86.4388C62.7828 87.544 60.4725 88.2579 57.8446 88.5806C55.3262 88.8898 53.2074 88.7473 51.4883 88.153C49.7802 87.5574 48.5265 86.5696 47.7272 85.1895C46.9278 83.7983 46.6431 82.0682 46.8731 79.9991L51.9811 79.3719C51.8606 80.6112 52.0796 81.6048 52.638 82.3525C53.2074 83.088 54.0067 83.5911 55.036 83.8618C56.0653 84.1216 57.2314 84.1714 58.5344 84.0114C59.9797 83.834 61.2992 83.4458 62.4927 82.847C63.6862 82.2371 64.6716 81.4762 65.4491 80.5644C66.2265 79.6416 66.7028 78.6178 66.878 77.4931C67.0532 76.4677 66.9108 75.6633 66.451 75.08C66.002 74.4952 65.3231 74.0491 64.4143 73.7414C63.5165 73.4325 62.4927 73.1886 61.343 73.0099L57.5489 72.3836C54.9758 71.9604 53.0268 71.113 51.7019 69.8416C50.377 68.5701 49.9006 66.7311 50.2729 64.3246C50.6014 62.3316 51.4117 60.5277 52.7037 58.9129C53.9958 57.2981 55.6054 55.9697 57.5325 54.9277C59.4596 53.8747 61.551 53.2098 63.8066 52.9328C66.0841 52.6532 68.0222 52.8234 69.6209 53.4435C71.2195 54.0635 72.4021 55.0436 73.1685 56.3836C73.935 57.7236 74.2033 59.3455 73.9733 61.2491L69.0789 61.8501ZM77.3149 56.1393L78.0375 51.6488L104.07 48.4524L103.348 52.9428L92.8523 54.2315L87.9907 84.3165L82.932 84.9376L87.7936 54.8526L77.3149 56.1393ZM100.793 82.7446L95.4055 83.4061L113.095 47.3444L118.958 46.6244L125.479 79.7135L120.091 80.375L115.18 53.244L114.918 53.2763L100.793 82.7446ZM103.88 69.0942L121.356 66.9484L120.633 71.3396L103.158 73.4853L103.88 69.0942ZM127.252 50.0078L127.974 45.5174L154.007 42.321L153.284 46.8114L142.789 48.1L137.927 78.185L132.869 78.8061L137.73 48.7212L127.252 50.0078ZM162.522 41.2754L156.938 75.8508L151.863 76.474L157.447 41.8986L162.522 41.2754ZM184.436 47.686C184.446 46.0189 183.91 44.8106 182.826 44.0612C181.753 43.3104 180.253 43.0533 178.326 43.2899C176.946 43.4593 175.714 43.8312 174.63 44.4056C173.557 44.9676 172.681 45.6708 172.002 46.5154C171.334 47.3475 170.924 48.2529 170.77 49.2315C170.628 50.0543 170.699 50.7406 170.984 51.2903C171.28 51.8387 171.701 52.2779 172.249 52.6078C172.807 52.9253 173.42 53.1755 174.088 53.3582C174.756 53.53 175.402 53.6602 176.026 53.7491L179.18 54.2224C180.198 54.3621 181.233 54.5936 182.284 54.9168C183.335 55.2401 184.282 55.7195 185.125 56.3551C185.968 56.9907 186.598 57.829 187.014 58.8701C187.43 59.9112 187.512 61.2083 187.261 62.7617C186.932 64.7215 186.16 66.5207 184.945 68.1593C183.729 69.7978 182.125 71.1696 180.132 72.2748C178.139 73.38 175.829 74.0939 173.201 74.4166C170.683 74.7258 168.564 74.5833 166.845 73.989C165.137 73.3934 163.883 72.4056 163.084 71.0255C162.284 69.6343 162 67.9042 162.23 65.8351L167.338 65.2079C167.217 66.4472 167.436 67.4407 167.995 68.1885C168.564 68.9239 169.363 69.427 170.393 69.6978C171.422 69.9575 172.588 70.0074 173.891 69.8474C175.336 69.67 176.656 69.2818 177.849 68.683C179.043 68.0731 180.028 67.3122 180.806 66.4004C181.583 65.4776 182.059 64.4538 182.235 63.3291C182.41 62.3037 182.267 61.4993 181.808 60.9159C181.359 60.3312 180.68 59.885 179.771 59.5774C178.873 59.2685 177.849 59.0246 176.7 58.8458L172.906 58.2195C170.332 57.7963 168.383 56.949 167.059 55.6776C165.734 54.4061 165.257 52.5671 165.63 50.1606C165.958 48.1676 166.768 46.3637 168.06 44.7489C169.352 43.134 170.962 41.8056 172.889 40.7637C174.816 39.7107 176.908 39.0458 179.163 38.7688C181.441 38.4892 183.379 38.6594 184.978 39.2794C186.576 39.8995 187.759 40.8796 188.525 42.2196C189.292 43.5596 189.56 45.1814 189.33 47.0851L184.436 47.686ZM192.672 41.9752L193.394 37.4848L219.427 34.2884L218.704 38.7788L208.209 40.0675L203.347 70.1525L198.289 70.7736L203.15 40.6886L192.672 41.9752ZM227.942 33.2429L222.358 67.8183L217.283 68.4414L222.867 33.866L227.942 33.2429ZM259.102 40.4376L254.077 41.0547C254.055 39.9542 253.852 39.0083 253.469 38.217C253.086 37.4146 252.56 36.7675 251.892 36.2759C251.235 35.7719 250.463 35.4254 249.576 35.2364C248.689 35.0475 247.731 35.0162 246.702 35.1426C244.72 35.3859 242.859 36.1219 241.118 37.3506C239.377 38.5793 237.893 40.2397 236.667 42.3319C235.44 44.4241 234.597 46.8939 234.137 49.7415C233.688 52.5104 233.743 54.7818 234.302 56.5555C234.86 58.3292 235.802 59.6092 237.127 60.3952C238.462 61.1689 240.067 61.4408 241.939 61.2109C243.034 61.0764 244.101 60.8019 245.142 60.3874C246.193 59.9605 247.167 59.4051 248.065 58.7212C248.963 58.0373 249.757 57.2393 250.447 56.3272C251.148 55.4027 251.695 54.3757 252.089 53.2462L257.181 52.621C256.633 54.3651 255.861 55.9933 254.865 57.5057C253.868 59.018 252.691 60.365 251.334 61.5467C249.976 62.7283 248.487 63.6944 246.866 64.445C245.246 65.1955 243.532 65.6817 241.725 65.9036C238.758 66.2679 236.229 65.8669 234.137 64.7006C232.057 63.5219 230.562 61.6645 229.653 59.1285C228.756 56.5911 228.602 53.4548 229.194 49.7197C229.796 46.0824 230.946 42.8855 232.643 40.1287C234.351 37.3596 236.431 35.146 238.884 33.4879C241.348 31.8175 244.008 30.8068 246.866 30.4559C248.673 30.2341 250.326 30.2903 251.826 30.6246C253.326 30.9479 254.619 31.5394 255.703 32.3992C256.798 33.2466 257.641 34.3455 258.232 35.696C258.823 37.0355 259.113 38.616 259.102 40.4376ZM281.554 35.7614C281.565 34.0943 281.028 32.886 279.944 32.1365C278.871 31.3857 277.371 31.1287 275.444 31.3653C274.064 31.5347 272.832 31.9066 271.748 32.4809C270.675 33.0429 269.799 33.7462 269.12 34.5908C268.453 35.4229 268.042 36.3283 267.889 37.3069C267.746 38.1297 267.817 38.816 268.102 39.3657C268.398 39.9141 268.819 40.3532 269.367 40.6832C269.925 41.0007 270.538 41.2509 271.206 41.4336C271.874 41.6053 272.52 41.7356 273.144 41.8245L276.298 42.2978C277.316 42.4375 278.351 42.669 279.402 42.9922C280.453 43.3154 281.4 43.7949 282.244 44.4305C283.087 45.0661 283.716 45.9044 284.132 46.9455C284.548 47.9865 284.631 49.2837 284.379 50.837C284.05 52.7969 283.278 54.5961 282.063 56.2346C280.847 57.8732 279.243 59.245 277.251 60.3502C275.258 61.4554 272.947 62.1693 270.319 62.4919C267.801 62.8012 265.682 62.6587 263.963 62.0644C262.255 61.4688 261.001 60.481 260.202 59.1008C259.403 57.7097 259.118 55.9796 259.348 53.9104L264.456 53.2833C264.335 54.5226 264.554 55.5161 265.113 56.2639C265.682 56.9993 266.482 57.5024 267.511 57.7732C268.54 58.0329 269.706 58.0828 271.009 57.9228C272.455 57.7453 273.774 57.3572 274.968 56.7583C276.161 56.1485 277.146 55.3876 277.924 54.4758C278.701 53.553 279.178 52.5292 279.353 51.4045C279.528 50.3791 279.386 49.5747 278.926 48.9913C278.477 48.4066 277.798 47.9604 276.889 47.6528C275.991 47.3438 274.968 47.1 273.818 46.9212L270.024 46.2949C267.451 45.8717 265.502 45.0244 264.177 43.753C262.852 42.4815 262.375 40.6425 262.748 38.236C263.076 36.243 263.887 34.4391 265.179 32.8243C266.471 31.2094 268.08 29.881 270.007 28.8391C271.934 27.7861 274.026 27.1211 276.281 26.8442C278.559 26.5645 280.497 26.7348 282.096 27.3548C283.694 27.9749 284.877 28.9549 285.643 30.295C286.41 31.635 286.678 33.2568 286.448 35.1605L281.554 35.7614Z" fill="black"/>
</g>
</g>
<defs>
<filter id="filter0_f_2103_5804" x="-12.0875" y="-6.50742" width="328.706" height="125.574" filterUnits="userSpaceOnUse" color-interpolation-filters="sRGB">
<feFlood flood-opacity="0" result="BackgroundImageFix"/>
<feBlend mode="normal" in="SourceGraphic" in2="BackgroundImageFix" result="shape"/>
<feGaussianBlur stdDeviation="7.7" result="effect1_foregroundBlur_2103_5804"/>
</filter>
<filter id="filter1_f_2103_5804" x="42.5273" y="21.5537" width="248.266" height="72.4165" filterUnits="userSpaceOnUse" color-interpolation-filters="sRGB">
<feFlood flood-opacity="0" result="BackgroundImageFix"/>
<feBlend mode="normal" in="SourceGraphic" in2="BackgroundImageFix" result="shape"/>
<feGaussianBlur stdDeviation="2" result="effect1_foregroundBlur_2103_5804"/>
</filter>
<linearGradient id="paint0_linear_2103_5804" x1="15.7825" y1="76.1461" x2="265.694" y2="76.1461" gradientUnits="userSpaceOnUse">
<stop stop-color="#00A0B9" stop-opacity="0"/>
<stop offset="0.423077" stop-color="#00A0B9"/>
</linearGradient>
<linearGradient id="paint1_linear_2103_5804" x1="29.4957" y1="96.2374" x2="31.4944" y2="76.7371" gradientUnits="userSpaceOnUse">
<stop stop-color="#2EE3FF"/>
<stop offset="1" stop-color="white" stop-opacity="0"/>
</linearGradient>
<clipPath id="clip0_2103_5804">
<rect width="304" height="119" fill="white" transform="matrix(-1 0 0 1 304 0)"/>
</clipPath>
</defs>
</svg>
