<svg width="304" height="119" viewBox="0 0 304 119" fill="none" xmlns="http://www.w3.org/2000/svg">
<path d="M69.0789 61.8501C69.0898 60.1829 68.5533 58.9746 67.4693 58.2252C66.3962 57.4744 64.8961 57.2173 62.969 57.4539C61.5893 57.6233 60.3575 57.9952 59.2735 58.5696C58.2004 59.1316 57.3245 59.8348 56.6456 60.6794C55.9777 61.5116 55.5671 62.4169 55.4138 63.3955C55.2714 64.2183 55.3426 64.9046 55.6273 65.4543C55.9229 66.0027 56.3445 66.4419 56.892 66.7718C57.4504 67.0893 58.0636 67.3395 58.7315 67.5223C59.3994 67.694 60.0454 67.8243 60.6696 67.9131L63.8231 68.3864C64.8414 68.5261 65.8761 68.7576 66.9273 69.0808C67.9784 69.4041 68.9256 69.8835 69.7687 70.5191C70.6118 71.1547 71.2414 71.9931 71.6575 73.0341C72.0736 74.0752 72.1557 75.3724 71.9038 76.9257C71.5754 78.8855 70.8034 80.6847 69.588 82.3233C68.3726 83.9618 66.7685 85.3337 64.7757 86.4388C62.7828 87.544 60.4725 88.2579 57.8446 88.5806C55.3262 88.8898 53.2074 88.7473 51.4883 88.153C49.7802 87.5574 48.5265 86.5696 47.7272 85.1895C46.9278 83.7983 46.6431 82.0682 46.8731 79.9991L51.9811 79.3719C51.8606 80.6112 52.0796 81.6048 52.638 82.3525C53.2074 83.088 54.0067 83.5911 55.036 83.8618C56.0653 84.1216 57.2314 84.1714 58.5344 84.0114C59.9797 83.834 61.2992 83.4458 62.4927 82.847C63.6862 82.2371 64.6716 81.4762 65.4491 80.5644C66.2265 79.6416 66.7028 78.6178 66.878 77.4931C67.0532 76.4677 66.9108 75.6633 66.451 75.08C66.002 74.4952 65.3231 74.0491 64.4143 73.7414C63.5165 73.4325 62.4927 73.1886 61.343 73.0099L57.5489 72.3836C54.9758 71.9604 53.0268 71.113 51.7019 69.8416C50.377 68.5701 49.9006 66.7311 50.2729 64.3246C50.6014 62.3316 51.4117 60.5277 52.7037 58.9129C53.9958 57.2981 55.6054 55.9697 57.5325 54.9277C59.4596 53.8747 61.551 53.2098 63.8066 52.9328C66.0841 52.6532 68.0222 52.8234 69.6209 53.4435C71.2195 54.0635 72.4021 55.0436 73.1685 56.3836C73.935 57.7236 74.2033 59.3455 73.9733 61.2491L69.0789 61.8501ZM77.3149 56.1393L78.0375 51.6488L104.07 48.4524L103.348 52.9428L92.8523 54.2315L87.9907 84.3165L82.932 84.9376L87.7936 54.8526L77.3149 56.1393ZM100.793 82.7446L95.4055 83.4061L113.095 47.3444L118.958 46.6244L125.479 79.7135L120.091 80.375L115.18 53.244L114.918 53.2763L100.793 82.7446ZM103.88 69.0942L121.356 66.9484L120.633 71.3396L103.158 73.4853L103.88 69.0942ZM127.252 50.0078L127.974 45.5174L154.007 42.321L153.284 46.8114L142.789 48.1L137.927 78.185L132.869 78.8061L137.73 48.7212L127.252 50.0078ZM162.522 41.2754L156.938 75.8508L151.863 76.474L157.447 41.8986L162.522 41.2754ZM184.436 47.686C184.446 46.0189 183.91 44.8106 182.826 44.0612C181.753 43.3104 180.253 43.0533 178.326 43.2899C176.946 43.4593 175.714 43.8312 174.63 44.4056C173.557 44.9676 172.681 45.6708 172.002 46.5154C171.334 47.3475 170.924 48.2529 170.77 49.2315C170.628 50.0543 170.699 50.7406 170.984 51.2903C171.28 51.8387 171.701 52.2779 172.249 52.6078C172.807 52.9253 173.42 53.1755 174.088 53.3582C174.756 53.53 175.402 53.6602 176.026 53.7491L179.18 54.2224C180.198 54.3621 181.233 54.5936 182.284 54.9168C183.335 55.2401 184.282 55.7195 185.125 56.3551C185.968 56.9907 186.598 57.829 187.014 58.8701C187.43 59.9112 187.512 61.2083 187.261 62.7617C186.932 64.7215 186.16 66.5207 184.945 68.1593C183.729 69.7978 182.125 71.1696 180.132 72.2748C178.139 73.38 175.829 74.0939 173.201 74.4166C170.683 74.7258 168.564 74.5833 166.845 73.989C165.137 73.3934 163.883 72.4056 163.084 71.0255C162.284 69.6343 162 67.9042 162.23 65.8351L167.338 65.2079C167.217 66.4472 167.436 67.4407 167.995 68.1885C168.564 68.9239 169.363 69.427 170.393 69.6978C171.422 69.9575 172.588 70.0074 173.891 69.8474C175.336 69.67 176.656 69.2818 177.849 68.683C179.043 68.0731 180.028 67.3122 180.806 66.4004C181.583 65.4776 182.059 64.4538 182.235 63.3291C182.41 62.3037 182.267 61.4993 181.808 60.9159C181.359 60.3312 180.68 59.885 179.771 59.5774C178.873 59.2685 177.849 59.0246 176.7 58.8458L172.906 58.2195C170.332 57.7963 168.383 56.949 167.059 55.6776C165.734 54.4061 165.257 52.5671 165.63 50.1606C165.958 48.1676 166.768 46.3637 168.06 44.7489C169.352 43.134 170.962 41.8056 172.889 40.7637C174.816 39.7107 176.908 39.0458 179.163 38.7688C181.441 38.4892 183.379 38.6594 184.978 39.2794C186.576 39.8995 187.759 40.8796 188.525 42.2196C189.292 43.5596 189.56 45.1814 189.33 47.0851L184.436 47.686ZM192.672 41.9752L193.394 37.4848L219.427 34.2884L218.704 38.7788L208.209 40.0675L203.347 70.1525L198.289 70.7736L203.15 40.6886L192.672 41.9752ZM227.942 33.2429L222.358 67.8183L217.283 68.4414L222.867 33.866L227.942 33.2429ZM259.102 40.4376L254.077 41.0547C254.055 39.9542 253.852 39.0083 253.469 38.217C253.086 37.4146 252.56 36.7675 251.892 36.2759C251.235 35.7719 250.463 35.4254 249.576 35.2364C248.689 35.0475 247.731 35.0162 246.702 35.1426C244.72 35.3859 242.859 36.1219 241.118 37.3506C239.377 38.5793 237.893 40.2397 236.667 42.3319C235.44 44.4241 234.597 46.8939 234.137 49.7415C233.688 52.5104 233.743 54.7818 234.302 56.5555C234.86 58.3292 235.802 59.6092 237.127 60.3952C238.462 61.1689 240.067 61.4408 241.939 61.2109C243.034 61.0764 244.101 60.8019 245.142 60.3874C246.193 59.9605 247.167 59.4051 248.065 58.7212C248.963 58.0373 249.757 57.2393 250.447 56.3272C251.148 55.4027 251.695 54.3757 252.089 53.2462L257.181 52.621C256.633 54.3651 255.861 55.9933 254.865 57.5057C253.868 59.018 252.691 60.365 251.334 61.5467C249.976 62.7283 248.487 63.6944 246.866 64.445C245.246 65.1955 243.532 65.6817 241.725 65.9036C238.758 66.2679 236.229 65.8669 234.137 64.7006C232.057 63.5219 230.562 61.6645 229.653 59.1285C228.756 56.5911 228.602 53.4548 229.194 49.7197C229.796 46.0824 230.946 42.8855 232.643 40.1287C234.351 37.3596 236.431 35.146 238.884 33.4879C241.348 31.8175 244.008 30.8068 246.866 30.4559C248.673 30.2341 250.326 30.2903 251.826 30.6246C253.326 30.9479 254.619 31.5394 255.703 32.3992C256.798 33.2466 257.641 34.3455 258.232 35.696C258.823 37.0355 259.113 38.616 259.102 40.4376ZM281.554 35.7614C281.565 34.0943 281.028 32.886 279.944 32.1365C278.871 31.3857 277.371 31.1287 275.444 31.3653C274.064 31.5347 272.832 31.9066 271.748 32.4809C270.675 33.0429 269.799 33.7462 269.12 34.5908C268.453 35.4229 268.042 36.3283 267.889 37.3069C267.746 38.1297 267.817 38.816 268.102 39.3657C268.398 39.9141 268.819 40.3532 269.367 40.6832C269.925 41.0007 270.538 41.2509 271.206 41.4336C271.874 41.6053 272.52 41.7356 273.144 41.8245L276.298 42.2978C277.316 42.4375 278.351 42.669 279.402 42.9922C280.453 43.3154 281.4 43.7949 282.244 44.4305C283.087 45.0661 283.716 45.9044 284.132 46.9455C284.548 47.9865 284.631 49.2837 284.379 50.837C284.05 52.7969 283.278 54.5961 282.063 56.2346C280.847 57.8732 279.243 59.245 277.251 60.3502C275.258 61.4554 272.947 62.1693 270.319 62.4919C267.801 62.8012 265.682 62.6587 263.963 62.0644C262.255 61.4688 261.001 60.481 260.202 59.1008C259.403 57.7097 259.118 55.9796 259.348 53.9104L264.456 53.2833C264.335 54.5226 264.554 55.5161 265.113 56.2639C265.682 56.9993 266.482 57.5024 267.511 57.7732C268.54 58.0329 269.706 58.0828 271.009 57.9228C272.455 57.7453 273.774 57.3572 274.968 56.7583C276.161 56.1485 277.146 55.3876 277.924 54.4758C278.701 53.553 279.178 52.5292 279.353 51.4045C279.528 50.3791 279.386 49.5747 278.926 48.9913C278.477 48.4066 277.798 47.9604 276.889 47.6528C275.991 47.3438 274.968 47.1 273.818 46.9212L270.024 46.2949C267.451 45.8717 265.502 45.0244 264.177 43.753C262.852 42.4815 262.375 40.6425 262.748 38.236C263.076 36.243 263.887 34.4391 265.179 32.8243C266.471 31.2094 268.08 29.881 270.007 28.8391C271.934 27.7861 274.026 27.1211 276.281 26.8442C278.559 26.5645 280.497 26.7348 282.096 27.3548C283.694 27.9749 284.877 28.9549 285.643 30.295C286.41 31.635 286.678 33.2568 286.448 35.1605L281.554 35.7614Z" fill="white"/>
<path d="M69.0789 61.8501C69.0898 60.1829 68.5533 58.9746 67.4693 58.2252C66.3962 57.4744 64.8961 57.2173 62.969 57.4539C61.5893 57.6233 60.3575 57.9952 59.2735 58.5696C58.2004 59.1316 57.3245 59.8348 56.6456 60.6794C55.9777 61.5116 55.5671 62.4169 55.4138 63.3955C55.2714 64.2183 55.3426 64.9046 55.6273 65.4543C55.9229 66.0027 56.3445 66.4419 56.892 66.7718C57.4504 67.0893 58.0636 67.3395 58.7315 67.5223C59.3994 67.694 60.0454 67.8243 60.6696 67.9131L63.8231 68.3864C64.8414 68.5261 65.8761 68.7576 66.9273 69.0808C67.9784 69.4041 68.9256 69.8835 69.7687 70.5191C70.6118 71.1547 71.2414 71.9931 71.6575 73.0341C72.0736 74.0752 72.1557 75.3724 71.9038 76.9257C71.5754 78.8855 70.8034 80.6847 69.588 82.3233C68.3726 83.9618 66.7685 85.3337 64.7757 86.4388C62.7828 87.544 60.4725 88.2579 57.8446 88.5806C55.3262 88.8898 53.2074 88.7473 51.4883 88.153C49.7802 87.5574 48.5265 86.5696 47.7272 85.1895C46.9278 83.7983 46.6431 82.0682 46.8731 79.9991L51.9811 79.3719C51.8606 80.6112 52.0796 81.6048 52.638 82.3525C53.2074 83.088 54.0067 83.5911 55.036 83.8618C56.0653 84.1216 57.2314 84.1714 58.5344 84.0114C59.9797 83.834 61.2992 83.4458 62.4927 82.847C63.6862 82.2371 64.6716 81.4762 65.4491 80.5644C66.2265 79.6416 66.7028 78.6178 66.878 77.4931C67.0532 76.4677 66.9108 75.6633 66.451 75.08C66.002 74.4952 65.3231 74.0491 64.4143 73.7414C63.5165 73.4325 62.4927 73.1886 61.343 73.0099L57.5489 72.3836C54.9758 71.9604 53.0268 71.113 51.7019 69.8416C50.377 68.5701 49.9006 66.7311 50.2729 64.3246C50.6014 62.3316 51.4117 60.5277 52.7037 58.9129C53.9958 57.2981 55.6054 55.9697 57.5325 54.9277C59.4596 53.8747 61.551 53.2098 63.8066 52.9328C66.0841 52.6532 68.0222 52.8234 69.6209 53.4435C71.2195 54.0635 72.4021 55.0436 73.1685 56.3836C73.935 57.7236 74.2033 59.3455 73.9733 61.2491L69.0789 61.8501ZM77.3149 56.1393L78.0375 51.6488L104.07 48.4524L103.348 52.9428L92.8523 54.2315L87.9907 84.3165L82.932 84.9376L87.7936 54.8526L77.3149 56.1393ZM100.793 82.7446L95.4055 83.4061L113.095 47.3444L118.958 46.6244L125.479 79.7135L120.091 80.375L115.18 53.244L114.918 53.2763L100.793 82.7446ZM103.88 69.0942L121.356 66.9484L120.633 71.3396L103.158 73.4853L103.88 69.0942ZM127.252 50.0078L127.974 45.5174L154.007 42.321L153.284 46.8114L142.789 48.1L137.927 78.185L132.869 78.8061L137.73 48.7212L127.252 50.0078ZM162.522 41.2754L156.938 75.8508L151.863 76.474L157.447 41.8986L162.522 41.2754ZM184.436 47.686C184.446 46.0189 183.91 44.8106 182.826 44.0612C181.753 43.3104 180.253 43.0533 178.326 43.2899C176.946 43.4593 175.714 43.8312 174.63 44.4056C173.557 44.9676 172.681 45.6708 172.002 46.5154C171.334 47.3475 170.924 48.2529 170.77 49.2315C170.628 50.0543 170.699 50.7406 170.984 51.2903C171.28 51.8387 171.701 52.2779 172.249 52.6078C172.807 52.9253 173.42 53.1755 174.088 53.3582C174.756 53.53 175.402 53.6602 176.026 53.7491L179.18 54.2224C180.198 54.3621 181.233 54.5936 182.284 54.9168C183.335 55.2401 184.282 55.7195 185.125 56.3551C185.968 56.9907 186.598 57.829 187.014 58.8701C187.43 59.9112 187.512 61.2083 187.261 62.7617C186.932 64.7215 186.16 66.5207 184.945 68.1593C183.729 69.7978 182.125 71.1696 180.132 72.2748C178.139 73.38 175.829 74.0939 173.201 74.4166C170.683 74.7258 168.564 74.5833 166.845 73.989C165.137 73.3934 163.883 72.4056 163.084 71.0255C162.284 69.6343 162 67.9042 162.23 65.8351L167.338 65.2079C167.217 66.4472 167.436 67.4407 167.995 68.1885C168.564 68.9239 169.363 69.427 170.393 69.6978C171.422 69.9575 172.588 70.0074 173.891 69.8474C175.336 69.67 176.656 69.2818 177.849 68.683C179.043 68.0731 180.028 67.3122 180.806 66.4004C181.583 65.4776 182.059 64.4538 182.235 63.3291C182.41 62.3037 182.267 61.4993 181.808 60.9159C181.359 60.3312 180.68 59.885 179.771 59.5774C178.873 59.2685 177.849 59.0246 176.7 58.8458L172.906 58.2195C170.332 57.7963 168.383 56.949 167.059 55.6776C165.734 54.4061 165.257 52.5671 165.63 50.1606C165.958 48.1676 166.768 46.3637 168.06 44.7489C169.352 43.134 170.962 41.8056 172.889 40.7637C174.816 39.7107 176.908 39.0458 179.163 38.7688C181.441 38.4892 183.379 38.6594 184.978 39.2794C186.576 39.8995 187.759 40.8796 188.525 42.2196C189.292 43.5596 189.56 45.1814 189.33 47.0851L184.436 47.686ZM192.672 41.9752L193.394 37.4848L219.427 34.2884L218.704 38.7788L208.209 40.0675L203.347 70.1525L198.289 70.7736L203.15 40.6886L192.672 41.9752ZM227.942 33.2429L222.358 67.8183L217.283 68.4414L222.867 33.866L227.942 33.2429ZM259.102 40.4376L254.077 41.0547C254.055 39.9542 253.852 39.0083 253.469 38.217C253.086 37.4146 252.56 36.7675 251.892 36.2759C251.235 35.7719 250.463 35.4254 249.576 35.2364C248.689 35.0475 247.731 35.0162 246.702 35.1426C244.72 35.3859 242.859 36.1219 241.118 37.3506C239.377 38.5793 237.893 40.2397 236.667 42.3319C235.44 44.4241 234.597 46.8939 234.137 49.7415C233.688 52.5104 233.743 54.7818 234.302 56.5555C234.86 58.3292 235.802 59.6092 237.127 60.3952C238.462 61.1689 240.067 61.4408 241.939 61.2109C243.034 61.0764 244.101 60.8019 245.142 60.3874C246.193 59.9605 247.167 59.4051 248.065 58.7212C248.963 58.0373 249.757 57.2393 250.447 56.3272C251.148 55.4027 251.695 54.3757 252.089 53.2462L257.181 52.621C256.633 54.3651 255.861 55.9933 254.865 57.5057C253.868 59.018 252.691 60.365 251.334 61.5467C249.976 62.7283 248.487 63.6944 246.866 64.445C245.246 65.1955 243.532 65.6817 241.725 65.9036C238.758 66.2679 236.229 65.8669 234.137 64.7006C232.057 63.5219 230.562 61.6645 229.653 59.1285C228.756 56.5911 228.602 53.4548 229.194 49.7197C229.796 46.0824 230.946 42.8855 232.643 40.1287C234.351 37.3596 236.431 35.146 238.884 33.4879C241.348 31.8175 244.008 30.8068 246.866 30.4559C248.673 30.2341 250.326 30.2903 251.826 30.6246C253.326 30.9479 254.619 31.5394 255.703 32.3992C256.798 33.2466 257.641 34.3455 258.232 35.696C258.823 37.0355 259.113 38.616 259.102 40.4376ZM281.554 35.7614C281.565 34.0943 281.028 32.886 279.944 32.1365C278.871 31.3857 277.371 31.1287 275.444 31.3653C274.064 31.5347 272.832 31.9066 271.748 32.4809C270.675 33.0429 269.799 33.7462 269.12 34.5908C268.453 35.4229 268.042 36.3283 267.889 37.3069C267.746 38.1297 267.817 38.816 268.102 39.3657C268.398 39.9141 268.819 40.3532 269.367 40.6832C269.925 41.0007 270.538 41.2509 271.206 41.4336C271.874 41.6053 272.52 41.7356 273.144 41.8245L276.298 42.2978C277.316 42.4375 278.351 42.669 279.402 42.9922C280.453 43.3154 281.4 43.7949 282.244 44.4305C283.087 45.0661 283.716 45.9044 284.132 46.9455C284.548 47.9865 284.631 49.2837 284.379 50.837C284.05 52.7969 283.278 54.5961 282.063 56.2346C280.847 57.8732 279.243 59.245 277.251 60.3502C275.258 61.4554 272.947 62.1693 270.319 62.4919C267.801 62.8012 265.682 62.6587 263.963 62.0644C262.255 61.4688 261.001 60.481 260.202 59.1008C259.403 57.7097 259.118 55.9796 259.348 53.9104L264.456 53.2833C264.335 54.5226 264.554 55.5161 265.113 56.2639C265.682 56.9993 266.482 57.5024 267.511 57.7732C268.54 58.0329 269.706 58.0828 271.009 57.9228C272.455 57.7453 273.774 57.3572 274.968 56.7583C276.161 56.1485 277.146 55.3876 277.924 54.4758C278.701 53.553 279.178 52.5292 279.353 51.4045C279.528 50.3791 279.386 49.5747 278.926 48.9913C278.477 48.4066 277.798 47.9604 276.889 47.6528C275.991 47.3438 274.968 47.1 273.818 46.9212L270.024 46.2949C267.451 45.8717 265.502 45.0244 264.177 43.753C262.852 42.4815 262.375 40.6425 262.748 38.236C263.076 36.243 263.887 34.4391 265.179 32.8243C266.471 31.2094 268.08 29.881 270.007 28.8391C271.934 27.7861 274.026 27.1211 276.281 26.8442C278.559 26.5645 280.497 26.7348 282.096 27.3548C283.694 27.9749 284.877 28.9549 285.643 30.295C286.41 31.635 286.678 33.2568 286.448 35.1605L281.554 35.7614Z" fill="url(#paint0_linear_2103_5825)"/>
<defs>
<linearGradient id="paint0_linear_2103_5825" x1="24.5664" y1="100.729" x2="128.219" y2="68.711" gradientUnits="userSpaceOnUse">
<stop/>
<stop offset="1" stop-color="white"/>
</linearGradient>
</defs>
</svg>
